# Blender 5.1.2
# www.blender.org
mtllib Akeymag2.mtl
o RenderMesh_122951013021207
v -0.196185 -0.286518 -0.086443
v -0.196185 -0.286518 0.086443
v -0.217296 -0.264994 -0.086443
v -0.217296 -0.264994 0.086443
v -0.139016 -0.334617 -0.086443
v -0.139016 -0.334617 0.086443
v -0.160127 -0.313092 -0.086443
v -0.160127 -0.313092 0.086443
v -0.065286 -0.392897 -0.086443
v -0.065286 -0.392897 0.086443
v -0.086397 -0.371373 -0.086443
v -0.086397 -0.371373 0.086443
v 0.086702 0.162375 -0.086443
v 0.086702 0.162375 0.086443
v 0.116850 0.162375 -0.086443
v 0.116850 0.162375 0.086443
v 0.187148 0.161635 -0.086443
v 0.187148 0.161635 0.086443
v 0.217296 0.161635 -0.086443
v 0.217296 0.161635 0.086443
v -0.003429 0.161635 -0.086443
v -0.003429 0.161635 0.086443
v 0.026718 0.161635 -0.086443
v 0.026718 0.161635 0.086443
v 0.217296 0.161635 -0.086443
v 0.217296 0.161635 0.086443
v 0.209555 0.051388 -0.086443
v 0.209555 0.051388 0.086443
v 0.173458 -0.058541 -0.086443
v 0.173458 -0.058541 0.086443
v 0.140016 -0.130321 -0.086443
v 0.140016 -0.130321 0.086443
v 0.044086 -0.276043 -0.086443
v 0.044086 -0.276043 0.086443
v -0.065286 -0.392897 -0.086443
v -0.065286 -0.392897 0.086443
v -0.010003 0.079720 -0.086443
v -0.010003 0.079720 0.086443
v -0.003429 0.161635 -0.086443
v -0.003429 0.161635 0.086443
v -0.032654 -0.011058 0.086443
v -0.032654 -0.011058 -0.086443
v -0.061136 -0.063143 0.086443
v -0.061136 -0.063143 -0.086443
v -0.136684 -0.185289 0.086443
v -0.136684 -0.185289 -0.086443
v -0.217296 -0.264994 0.086443
v -0.217296 -0.264994 -0.086443
v 0.086702 0.162375 0.086443
v 0.080129 0.068344 0.086443
v 0.110008 0.064316 0.086443
v 0.116850 0.162375 0.086443
v 0.078044 -0.037211 0.086443
v 0.048553 -0.030944 0.086443
v 0.051543 -0.102048 0.086443
v 0.022977 -0.092405 0.086443
v -0.037267 -0.237687 0.086443
v -0.064279 -0.224296 0.086443
v -0.139016 -0.334617 0.086443
v -0.160127 -0.313092 0.086443
v 0.086702 0.162375 -0.086443
v 0.110008 0.064316 -0.086443
v 0.080129 0.068344 -0.086443
v 0.116850 0.162375 -0.086443
v 0.078044 -0.037211 -0.086443
v 0.048553 -0.030944 -0.086443
v 0.051543 -0.102048 -0.086443
v 0.022977 -0.092405 -0.086443
v -0.037267 -0.237687 -0.086443
v -0.064279 -0.224296 -0.086443
v -0.139016 -0.334617 -0.086443
v -0.160127 -0.313092 -0.086443
v 0.187148 0.161635 0.086443
v 0.179578 0.054608 0.086443
v 0.209555 0.051388 0.086443
v 0.217296 0.161635 0.086443
v 0.173458 -0.058541 0.086443
v 0.143968 -0.052270 0.086443
v 0.140016 -0.130321 0.086443
v 0.111547 -0.120398 0.086443
v 0.044086 -0.276043 0.086443
v 0.017453 -0.261913 0.086443
v -0.065286 -0.392897 0.086443
v -0.086397 -0.371373 0.086443
v 0.209555 0.051388 -0.086443
v 0.187148 0.161635 -0.086443
v 0.217296 0.161635 -0.086443
v 0.179578 0.054608 -0.086443
v 0.173458 -0.058541 -0.086443
v 0.143968 -0.052270 -0.086443
v 0.140016 -0.130321 -0.086443
v 0.111547 -0.120398 -0.086443
v 0.044086 -0.276043 -0.086443
v 0.017453 -0.261913 -0.086443
v -0.065286 -0.392897 -0.086443
v -0.086397 -0.371373 -0.086443
v -0.003429 0.161635 0.086443
v -0.010003 0.079720 0.086443
v 0.019876 0.075692 0.086443
v 0.026718 0.161635 0.086443
v -0.003253 -0.017734 0.086443
v -0.032654 -0.011058 0.086443
v -0.032768 -0.073352 0.086443
v -0.061136 -0.063143 0.086443
v -0.109903 -0.199136 0.086443
v -0.136684 -0.185289 0.086443
v -0.196185 -0.286518 0.086443
v -0.217296 -0.264994 0.086443
v -0.003429 0.161635 -0.086443
v 0.019876 0.075692 -0.086443
v -0.010003 0.079720 -0.086443
v 0.026718 0.161635 -0.086443
v -0.003253 -0.017734 -0.086443
v -0.032654 -0.011058 -0.086443
v -0.032768 -0.073352 -0.086443
v -0.061136 -0.063143 -0.086443
v -0.109903 -0.199136 -0.086443
v -0.136684 -0.185289 -0.086443
v -0.196185 -0.286518 -0.086443
v -0.217296 -0.264994 -0.086443
v 0.080129 0.068344 -0.086443
v 0.080129 0.068344 0.086443
v 0.086702 0.162375 -0.086443
v 0.086702 0.162375 0.086443
v 0.048553 -0.030944 0.086443
v 0.048553 -0.030944 -0.086443
v 0.022977 -0.092405 0.086443
v 0.022977 -0.092405 -0.086443
v -0.064279 -0.224296 0.086443
v -0.064279 -0.224296 -0.086443
v -0.160127 -0.313092 0.086443
v -0.160127 -0.313092 -0.086443
v 0.116850 0.162375 -0.086443
v 0.116850 0.162375 0.086443
v 0.110008 0.064316 -0.086443
v 0.110008 0.064316 0.086443
v 0.078044 -0.037211 -0.086443
v 0.078044 -0.037211 0.086443
v 0.051543 -0.102048 -0.086443
v 0.051543 -0.102048 0.086443
v -0.037267 -0.237687 -0.086443
v -0.037267 -0.237687 0.086443
v -0.139016 -0.334617 -0.086443
v -0.139016 -0.334617 0.086443
v 0.026718 0.161635 -0.086443
v 0.026718 0.161635 0.086443
v 0.019876 0.075692 -0.086443
v 0.019876 0.075692 0.086443
v -0.003253 -0.017734 -0.086443
v -0.003253 -0.017734 0.086443
v -0.032768 -0.073352 -0.086443
v -0.032768 -0.073352 0.086443
v -0.109903 -0.199136 -0.086443
v -0.109903 -0.199136 0.086443
v -0.196185 -0.286518 -0.086443
v -0.196185 -0.286518 0.086443
v 0.187148 0.161635 -0.086443
v 0.179578 0.054608 -0.086443
v 0.179578 0.054608 0.086443
v 0.187148 0.161635 0.086443
v 0.143968 -0.052270 0.086443
v 0.143968 -0.052270 -0.086443
v 0.111547 -0.120398 0.086443
v 0.111547 -0.120398 -0.086443
v 0.017453 -0.261913 0.086443
v 0.017453 -0.261913 -0.086443
v -0.086397 -0.371373 0.086443
v -0.086397 -0.371373 -0.086443
vn -0.7139 -0.7002 -0.0000
vn -0.0000 1.0000 -0.0000
vn 0.9975 -0.0700 -0.0000
vn 0.9808 -0.1951 -0.0000
vn 0.9808 -0.1950 -0.0000
vn 0.9295 -0.3688 -0.0000
vn 0.9295 -0.3689 -0.0000
vn 0.8719 -0.4897 -0.0000
vn 0.7826 -0.6226 -0.0000
vn 0.7301 -0.6833 -0.0000
vn -0.9867 0.1625 -0.0000
vn -0.9968 0.0800 -0.0000
vn -0.9293 0.3692 -0.0000
vn -0.8642 0.5031 -0.0000
vn -0.7763 0.6303 -0.0000
vn -0.7031 0.7111 -0.0000
vn -0.0000 -0.0000 1.0000
vn -0.0000 -0.0000 -1.0000
vn -0.9818 0.1901 -0.0000
vn -0.9976 0.0697 -0.0000
vn -0.9388 0.3444 -0.0000
vn -0.9387 0.3446 -0.0000
vn -0.8806 0.4738 -0.0000
vn -0.7556 0.6550 -0.0000
vn -0.6796 0.7336 -0.0000
vn 0.9976 -0.0696 -0.0000
vn 0.9821 -0.1886 -0.0000
vn 0.9404 -0.3399 -0.0000
vn 0.9404 -0.3402 -0.0000
vn 0.8833 -0.4689 -0.0000
vn 0.8832 -0.4689 -0.0000
vn 0.7623 -0.6472 -0.0000
vn 0.6898 -0.7240 -0.0000
vn 0.9968 -0.0794 -0.0000
vn 0.9869 -0.1612 -0.0000
vn 0.9869 -0.1613 -0.0000
vn 0.9322 -0.3620 -0.0000
vn 0.8683 -0.4960 -0.0000
vn 0.7818 -0.6236 -0.0000
vn 0.7116 -0.7026 -0.0000
vn -0.9975 0.0706 -0.0000
vn -0.9803 0.1976 -0.0000
vn -0.9803 0.1975 -0.0000
vn -0.9271 0.3749 -0.0000
vn -0.9271 0.3748 -0.0000
vn -0.8689 0.4951 -0.0000
vn -0.8688 0.4951 -0.0000
vn -0.7789 0.6272 -0.0000
vn -0.7255 0.6883 -0.0000
vt 0.000000 0.000000
s 1
f 1/1/1 2/1/1 3/1/1
f 3/1/1 2/1/1 4/1/1
f 5/1/1 6/1/1 7/1/1
f 7/1/1 6/1/1 8/1/1
f 9/1/1 10/1/1 11/1/1
f 11/1/1 10/1/1 12/1/1
f 13/1/2 14/1/2 15/1/2
f 15/1/2 14/1/2 16/1/2
f 17/1/2 18/1/2 19/1/2
f 19/1/2 18/1/2 20/1/2
f 21/1/2 22/1/2 23/1/2
f 23/1/2 22/1/2 24/1/2
f 25/1/3 26/1/3 27/1/4
f 27/1/4 26/1/3 28/1/5
f 27/1/4 28/1/5 29/1/6
f 29/1/6 28/1/5 30/1/7
f 29/1/6 30/1/7 31/1/8
f 31/1/8 30/1/7 32/1/8
f 31/1/8 32/1/8 33/1/9
f 33/1/9 32/1/8 34/1/9
f 34/1/9 35/1/10 33/1/9
f 35/1/10 34/1/9 36/1/10
f 37/1/11 38/1/11 39/1/12
f 39/1/12 38/1/11 40/1/12
f 37/1/11 41/1/13 38/1/11
f 42/1/13 41/1/13 37/1/11
f 42/1/13 43/1/14 41/1/13
f 44/1/14 43/1/14 42/1/13
f 44/1/14 45/1/15 43/1/14
f 44/1/14 46/1/15 45/1/15
f 46/1/15 47/1/16 45/1/15
f 48/1/16 47/1/16 46/1/15
f 49/1/17 50/1/17 51/1/17
f 51/1/17 52/1/17 49/1/17
f 53/1/17 51/1/17 50/1/17
f 50/1/17 54/1/17 53/1/17
f 55/1/17 53/1/17 54/1/17
f 54/1/17 56/1/17 55/1/17
f 56/1/17 57/1/17 55/1/17
f 56/1/17 58/1/17 57/1/17
f 58/1/17 59/1/17 57/1/17
f 59/1/17 58/1/17 60/1/17
f 61/1/18 62/1/18 63/1/18
f 62/1/18 61/1/18 64/1/18
f 65/1/18 63/1/18 62/1/18
f 63/1/18 65/1/18 66/1/18
f 67/1/18 66/1/18 65/1/18
f 66/1/18 67/1/18 68/1/18
f 69/1/18 68/1/18 67/1/18
f 68/1/18 69/1/18 70/1/18
f 71/1/18 70/1/18 69/1/18
f 70/1/18 71/1/18 72/1/18
f 73/1/17 74/1/17 75/1/17
f 75/1/17 76/1/17 73/1/17
f 77/1/17 75/1/17 74/1/17
f 74/1/17 78/1/17 77/1/17
f 79/1/17 77/1/17 78/1/17
f 78/1/17 80/1/17 79/1/17
f 80/1/17 81/1/17 79/1/17
f 80/1/17 82/1/17 81/1/17
f 82/1/17 83/1/17 81/1/17
f 83/1/17 82/1/17 84/1/17
f 85/1/18 86/1/18 87/1/18
f 86/1/18 85/1/18 88/1/18
f 89/1/18 88/1/18 85/1/18
f 88/1/18 89/1/18 90/1/18
f 91/1/18 90/1/18 89/1/18
f 90/1/18 91/1/18 92/1/18
f 93/1/18 92/1/18 91/1/18
f 92/1/18 93/1/18 94/1/18
f 95/1/18 94/1/18 93/1/18
f 94/1/18 95/1/18 96/1/18
f 97/1/17 98/1/17 99/1/17
f 99/1/17 100/1/17 97/1/17
f 101/1/17 99/1/17 98/1/17
f 98/1/17 102/1/17 101/1/17
f 103/1/17 101/1/17 102/1/17
f 102/1/17 104/1/17 103/1/17
f 104/1/17 105/1/17 103/1/17
f 104/1/17 106/1/17 105/1/17
f 106/1/17 107/1/17 105/1/17
f 107/1/17 106/1/17 108/1/17
f 109/1/18 110/1/18 111/1/18
f 110/1/18 109/1/18 112/1/18
f 113/1/18 111/1/18 110/1/18
f 111/1/18 113/1/18 114/1/18
f 115/1/18 114/1/18 113/1/18
f 114/1/18 115/1/18 116/1/18
f 117/1/18 116/1/18 115/1/18
f 116/1/18 117/1/18 118/1/18
f 119/1/18 118/1/18 117/1/18
f 118/1/18 119/1/18 120/1/18
f 121/1/19 122/1/19 123/1/20
f 123/1/20 122/1/19 124/1/20
f 121/1/19 125/1/21 122/1/19
f 126/1/22 125/1/21 121/1/19
f 126/1/22 127/1/23 125/1/21
f 128/1/23 127/1/23 126/1/22
f 128/1/23 129/1/24 127/1/23
f 128/1/23 130/1/24 129/1/24
f 130/1/24 131/1/25 129/1/24
f 132/1/25 131/1/25 130/1/24
f 133/1/26 134/1/26 135/1/27
f 135/1/27 134/1/26 136/1/27
f 135/1/27 136/1/27 137/1/28
f 137/1/28 136/1/27 138/1/29
f 138/1/29 139/1/30 137/1/28
f 139/1/30 138/1/29 140/1/31
f 139/1/30 140/1/31 141/1/32
f 141/1/32 140/1/31 142/1/32
f 141/1/32 142/1/32 143/1/33
f 143/1/33 142/1/32 144/1/33
f 145/1/34 146/1/34 147/1/35
f 147/1/35 146/1/34 148/1/36
f 147/1/35 148/1/36 149/1/37
f 149/1/37 148/1/36 150/1/37
f 149/1/37 150/1/37 151/1/38
f 151/1/38 150/1/37 152/1/38
f 151/1/38 152/1/38 153/1/39
f 153/1/39 152/1/38 154/1/39
f 153/1/39 154/1/39 155/1/40
f 155/1/40 154/1/39 156/1/40
f 157/1/41 158/1/42 159/1/43
f 157/1/41 159/1/43 160/1/41
f 158/1/42 161/1/44 159/1/43
f 158/1/42 162/1/45 161/1/44
f 162/1/45 163/1/46 161/1/44
f 164/1/47 163/1/46 162/1/45
f 164/1/47 165/1/48 163/1/46
f 164/1/47 166/1/48 165/1/48
f 166/1/48 167/1/49 165/1/48
f 166/1/48 168/1/49 167/1/49
