# Blender 5.1.2
# www.blender.org
mtllib candycanedef1.mtl
o cane1
v -0.228098 -0.057897 0.106140
v -0.078559 -0.241952 0.182634
v -0.145851 -0.276905 0.020873
v -0.040148 -0.468322 0.117313
v -0.023897 -0.467205 -0.060500
v -0.018099 -0.590374 0.030313
v 0.084040 -0.576019 -0.115477
v 0.017987 -0.702354 -0.055587
v -0.212383 -0.055688 -0.071819
v -0.243615 0.183291 -0.136920
v -0.337844 0.143384 0.009356
v -0.400836 0.380198 -0.076731
v -0.415479 0.378140 0.089116
v -0.529284 0.637942 -0.001094
v -0.473874 0.666595 0.131915
v -0.624291 0.946712 0.052375
v -1.105147 -0.989983 0.019387
v -0.967189 -1.095743 0.098476
v -1.021260 -1.153170 -0.061843
v -0.868513 -1.270750 0.042691
v -0.851753 -1.271859 -0.135105
v -0.696167 -1.385576 -0.030401
v -0.061267 -0.916264 -0.062175
v -0.078038 -0.915155 0.115620
v -0.038402 -0.805299 0.029276
v 0.001202 -0.701212 0.122322
v -0.614146 0.948139 -0.062495
v -0.668886 1.206976 -0.081364
v -0.714756 1.188931 -0.010340
v -0.774495 1.407672 -0.043144
v -0.779806 1.406926 0.016972
v -0.823893 1.525879 -0.015692
v -0.806897 1.535200 0.025292
v -0.890432 1.729732 -0.007224
v -1.088375 -0.991091 -0.158409
v -1.045171 -0.855237 -0.166255
v -1.104482 -0.886735 -0.069034
v 0.189710 -1.095362 -0.038007
v 0.021556 -1.188519 -0.119024
v 0.063736 -1.256747 0.040572
v -0.108324 -1.342354 -0.064990
v -0.124939 -1.342356 0.112806
v -0.299018 -1.423613 0.007113
v -0.328264 -1.335037 0.159319
v -0.506220 -1.406373 0.077263
v -0.851753 -1.271859 -0.135105
v -0.696167 -1.385576 -0.030401
v -0.650638 -1.302686 -0.181753
v -0.489435 -1.407515 -0.100647
v -0.228098 -0.057897 0.106140
v -0.095977 0.005865 0.208214
v -0.270794 0.179471 0.170874
v -0.078559 -0.241952 0.182634
v -0.328264 -1.335037 0.159319
v -0.506220 -1.406373 0.077263
v -0.499941 -1.252545 0.166989
v -0.679656 -1.300965 0.126188
v -0.617599 -1.133499 0.131406
v -0.787549 -1.144654 0.139474
v -0.689836 -1.019668 0.058574
v -0.830023 -0.982577 0.110928
v -0.473874 0.666595 0.131915
v -0.624291 0.946712 0.052375
v -0.538990 0.987664 0.118319
v -0.682069 1.205124 0.067907
v -0.603828 1.241616 0.075245
v -0.735187 1.428261 0.051391
v -0.685280 1.450341 0.025804
v -0.765866 1.553733 0.029186
v -0.967430 1.948347 -0.022869
v -0.340811 0.728155 0.144536
v -0.154358 0.498261 0.113773
v -0.292247 0.437188 0.184369
v -0.109195 0.253176 0.186124
v -0.964645 -0.791759 0.046531
v -1.064306 -0.854460 0.037361
v -0.982935 -0.907916 0.120244
v -1.105147 -0.989983 0.019387
v -0.967189 -1.095743 0.098476
v -0.078038 -0.915155 0.115620
v 0.001202 -0.701212 0.122322
v 0.030506 -0.836141 0.191176
v 0.146200 -0.715596 0.225597
v 0.055172 -0.575443 0.192577
v 0.230433 -0.545012 0.208940
v 0.095584 -0.413318 0.219706
v 0.247726 -0.358341 0.144287
v 0.083077 -0.167110 0.197779
v -0.806897 1.535200 0.025292
v -0.890432 1.729732 -0.007224
v -0.873225 1.737950 0.006002
v -0.357913 -1.158428 0.155912
v -0.253144 -1.060282 0.099719
v -0.197426 -1.200764 0.195217
v -0.120667 -1.049763 0.177789
v -0.007451 -1.186796 0.188918
v 0.039056 -1.004153 0.216712
v 0.172930 -1.094256 0.139902
v 0.197165 -0.898474 0.207054
v -0.689836 -1.019668 0.058574
v -0.830023 -0.982577 0.110928
v 0.263998 -0.357221 -0.033639
v 0.259461 -0.546733 -0.099113
v -0.685280 1.450341 0.025804
v -0.765866 1.553733 0.029186
v -0.741980 1.564020 -0.007902
v -0.853972 1.746456 -0.003863
v -0.851938 1.746742 -0.026954
v -0.967430 1.948347 -0.022869
v -0.679990 1.451084 -0.034200
v -0.590666 1.243467 -0.073914
v -0.558124 1.260771 0.004334
v -0.433423 1.031497 -0.045480
v -0.443558 1.030073 0.069390
v -0.263005 0.759954 0.023919
v -0.340811 0.728155 0.144536
v -0.154358 0.498261 0.113773
v -0.747073 -0.925726 -0.036927
v -0.844114 -0.825813 0.043307
v -0.827510 -0.825813 -0.134490
v -0.905164 -0.761403 -0.050811
v 0.247726 -0.358341 0.144287
v 0.083077 -0.167110 0.197779
v 0.177568 -0.128333 0.051388
v 0.052004 0.070725 0.132441
v 0.067709 0.072933 -0.045407
v -0.014799 0.291904 0.039838
v -0.082014 0.256996 -0.121680
v -0.139706 0.500320 -0.052180
v -0.460280 -1.099790 -0.098979
v -0.572071 -1.050609 -0.019947
v -0.477052 -1.098681 0.078816
v 0.172930 -1.094256 0.139902
v 0.197165 -0.898474 0.207054
v 0.294923 -0.929929 0.061013
v 0.307953 -0.731126 0.151187
v 0.324563 -0.731089 -0.026608
v 0.332755 -0.531799 0.063031
v -0.827510 -0.825813 -0.134490
v -0.905164 -0.761403 -0.050811
v -0.945495 -0.792569 -0.157207
v -1.027658 -0.773987 -0.061234
v -0.964645 -0.791759 0.046531
v -1.064306 -0.854460 0.037361
v -0.236384 -1.061392 -0.078078
v -0.091800 -1.050337 -0.130264
v -0.162847 -0.981534 0.018193
v -0.061267 -0.916264 -0.062175
v -0.078038 -0.915155 0.115620
v -1.045171 -0.855237 -0.166255
v -1.104482 -0.886735 -0.069034
v -0.673216 -1.019631 -0.119334
v -0.460280 -1.099790 -0.098979
v -0.572071 -1.050609 -0.019947
v -0.477052 -1.098681 0.078816
v -0.358145 -1.071539 0.000178
v -0.357913 -1.158428 0.155912
v -0.253144 -1.060282 0.099719
v 0.084040 -0.576019 -0.115477
v 0.017987 -0.702354 -0.055587
v 0.179575 -0.716704 -0.129995
v 0.059362 -0.836718 -0.116878
v 0.226022 -0.899051 -0.100886
v 0.072607 -1.006368 -0.138984
v 0.189710 -1.095362 -0.038007
v 0.021556 -1.188519 -0.119024
v 0.128106 -0.411080 -0.136032
v 0.263998 -0.357221 -0.033639
v 0.259461 -0.546733 -0.099113
v 0.110275 -0.163287 -0.110366
v -0.051505 -0.237017 -0.125631
v -0.064569 0.010279 -0.147595
v -0.212383 -0.055688 -0.071819
v -0.243615 0.183291 -0.136920
v -0.967430 1.948347 -0.022869
v -0.869135 1.738526 -0.040294
v -0.888387 1.730020 -0.030429
v -0.800008 1.536168 -0.052772
v -0.758967 1.554702 -0.048990
v -0.724597 1.429749 -0.068616
v -0.679990 1.451084 -0.034200
v -0.590666 1.243467 -0.073914
v -0.650638 -1.302686 -0.181753
v -0.489435 -1.407515 -0.100647
v -0.466556 -1.253653 -0.188707
v -0.299406 -1.335614 -0.148622
v -0.328896 -1.160150 -0.152142
v -0.164041 -1.201873 -0.160488
v -0.236384 -1.061392 -0.078078
v -0.091800 -1.050337 -0.130264
v -0.082014 0.256996 -0.121680
v -0.139706 0.500320 -0.052180
v -0.262953 0.441306 -0.147433
v -0.318417 0.731303 -0.109204
v -0.451479 0.669742 -0.121711
v -0.518709 0.990514 -0.111422
v -0.614146 0.948139 -0.062495
v -0.668886 1.206976 -0.081364
v -0.949565 -0.908990 -0.235348
v -1.088375 -0.991091 -0.158409
v -1.045171 -0.855237 -0.166255
v -0.938166 -1.097429 -0.209579
v -0.801155 -0.983153 -0.197125
v -0.754174 -1.145762 -0.216118
v -0.673216 -1.019631 -0.119334
v -0.588571 -1.135219 -0.176649
v -0.460280 -1.099790 -0.098979
vn -0.8742 -0.3768 0.3062
vn -0.7759 -0.3404 0.5311
vn -0.6138 -0.2619 0.7448
vn -0.9222 -0.3835 0.0495
vn -0.9112 -0.3025 -0.2796
vn -0.8827 -0.2517 -0.3968
vn -0.6678 -0.0779 -0.7402
vn -0.5859 -0.0347 -0.8096
vn -0.6805 -0.3104 -0.6638
vn -0.4741 -0.2333 -0.8490
vn -0.8071 -0.3451 -0.4791
vn -0.9103 -0.3658 -0.1936
vn -0.9350 -0.3547 0.0019
vn -0.8892 -0.3080 0.3384
vn -0.8391 -0.2767 0.4683
vn -0.6225 -0.1512 0.7679
vn -0.6918 -0.6520 0.3104
vn -0.7074 -0.4249 0.5648
vn -0.6771 -0.2306 0.6988
vn -0.6315 -0.7707 0.0857
vn -0.5041 -0.8429 -0.1883
vn -0.3554 -0.8430 -0.4037
vn -0.7049 0.6431 -0.2992
vn -0.8635 0.4832 0.1446
vn -0.8725 0.4350 0.2225
vn -0.7097 0.1534 0.6876
vn -0.4632 -0.1206 -0.8780
vn -0.8059 -0.2571 -0.5333
vn -0.7424 -0.2317 -0.6286
vn -0.9401 -0.3068 -0.1483
vn -0.9508 -0.3083 -0.0308
vn -0.8935 -0.2765 0.3537
vn -0.8611 -0.2638 0.4346
vn -0.5934 -0.1390 0.7928
vn -0.6257 0.1033 -0.7732
vn -0.8312 0.4016 -0.3844
vn -0.7369 0.2462 -0.6296
vn 0.5654 -0.7621 -0.3154
vn 0.5853 -0.5835 -0.5630
vn 0.5380 -0.4171 -0.7325
vn 0.4819 -0.8710 -0.0954
vn 0.3382 -0.9244 0.1764
vn 0.1954 -0.8978 0.3946
vn 0.0377 -0.7769 0.6285
vn -0.0617 -0.6190 0.7829
vn -0.1808 -0.7472 -0.6395
vn -0.3553 -0.8431 -0.4037
vn -0.5040 -0.8429 -0.1884
vn -0.0522 -0.6130 -0.7883
vn -0.6137 -0.2618 0.7449
vn -0.4362 -0.1724 0.8832
vn -0.2001 -0.0441 0.9788
vn -0.7758 -0.3403 0.5313
vn -0.1207 -0.3518 0.9283
vn -0.0617 -0.6189 0.7830
vn 0.0375 -0.7769 0.6285
vn -0.1111 -0.1672 0.9796
vn 0.0117 0.1447 0.9894
vn 0.1006 0.2680 0.9582
vn 0.3830 0.4761 0.7916
vn 0.4766 0.5099 0.7161
vn -0.8391 -0.2767 0.4684
vn -0.5297 -0.0982 0.8425
vn -0.6224 -0.1512 0.7680
vn -0.1984 0.0595 0.9783
vn -0.0944 0.1061 0.9899
vn 0.2714 0.2771 0.9217
vn 0.3711 0.3216 0.8712
vn 0.6507 0.4336 0.6233
vn 0.2564 0.2036 0.9449
vn 0.4178 0.2891 0.8613
vn 0.6519 0.4095 0.6382
vn -0.0012 0.0636 0.9980
vn -0.6062 0.1856 0.7734
vn -0.4657 0.6543 0.5958
vn -0.5664 0.3972 0.7221
vn -0.6771 -0.2306 0.6989
vn -0.7074 -0.4248 0.5649
vn -0.7674 0.2094 0.6060
vn -0.7098 0.1534 0.6875
vn -0.8635 0.4833 0.1445
vn -0.4120 0.0372 0.9104
vn -0.2633 0.0185 0.9645
vn 0.0705 0.0656 0.9954
vn 0.2469 0.1297 0.9603
vn 0.4850 0.2274 0.8444
vn 0.6781 0.3177 0.6627
vn -0.8611 -0.2637 0.4346
vn -0.5667 -0.1275 0.8140
vn -0.5933 -0.1390 0.7929
vn -0.4126 0.9106 -0.0247
vn -0.2205 0.3036 0.9269
vn -0.2575 0.6331 0.7300
vn -0.2385 0.7206 0.6510
vn -0.1642 0.1594 0.9735
vn 0.0460 -0.0973 0.9942
vn 0.2074 -0.2017 0.9572
vn 0.4724 -0.2999 0.8288
vn 0.6608 -0.3048 0.6859
vn 0.6509 0.4336 0.6232
vn 0.3711 0.3216 0.8711
vn 0.7011 0.4561 0.5481
vn 0.8530 0.5098 0.1117
vn 0.8599 0.5041 0.0806
vn -0.4128 0.9105 -0.0247
vn 0.5232 0.3438 -0.7798
vn 0.8016 0.4780 -0.3590
vn 0.7584 0.4561 -0.4657
vn 0.8596 0.5103 0.0254
vn 0.8479 0.5082 0.1507
vn 0.7299 0.4446 0.5193
vn 0.4178 0.2892 0.8613
vn 0.6845 0.6205 0.3828
vn 0.4767 0.5101 0.7159
vn 0.3831 0.4763 0.7914
vn 0.7063 0.6558 0.2667
vn 0.5461 0.8342 -0.0772
vn 0.4003 0.8994 -0.1757
vn 0.7997 0.3747 0.4690
vn 0.6782 0.3177 0.6627
vn 0.4850 0.2275 0.8444
vn 0.8878 0.4104 0.2081
vn 0.9065 0.4207 -0.0345
vn 0.8571 0.4068 -0.3161
vn 0.7685 0.3705 -0.5217
vn 0.5832 0.3048 -0.7530
vn -0.0288 0.9744 0.2229
vn 0.2124 0.9549 -0.2077
vn 0.2537 0.9251 -0.2824
vn 0.8533 -0.2522 0.4564
vn 0.4726 -0.2998 0.8287
vn 0.9608 -0.1519 0.2319
vn 0.9982 -0.0345 -0.0482
vn 0.9546 0.0786 -0.2872
vn 0.8215 0.1550 -0.5487
vn 0.6637 0.1810 -0.7258
vn 0.1276 0.9374 -0.3241
vn 0.4001 0.8995 -0.1758
vn 0.5458 0.8343 -0.0774
vn -0.4929 0.8688 -0.0479
vn -0.4657 0.6544 0.5957
vn -0.4928 0.8688 -0.0479
vn -0.5664 0.3973 0.7221
vn -0.6598 0.6563 -0.3660
vn -0.3647 0.6005 -0.7116
vn -0.2799 0.5560 -0.7826
vn -0.8634 0.4834 0.1447
vn -0.8312 0.4018 -0.3843
vn -0.4929 0.8687 -0.0479
vn -0.7369 0.2461 -0.6296
vn 0.2124 0.9548 -0.2077
vn 0.3727 0.5854 -0.7200
vn 0.2123 0.9549 -0.2078
vn -0.0289 0.9744 0.2229
vn -0.0719 0.9541 0.2906
vn -0.2385 0.7208 0.6508
vn -0.2575 0.6332 0.7299
vn -0.2384 0.0302 -0.9707
vn -0.5858 -0.0347 -0.8097
vn -0.6677 -0.0780 -0.7403
vn -0.0816 0.0125 -0.9966
vn 0.2275 -0.1030 -0.9683
vn 0.3800 -0.2086 -0.9012
vn 0.5380 -0.4170 -0.7326
vn 0.5852 -0.5835 -0.5631
vn 0.4470 0.1501 -0.8819
vn 0.6636 0.1810 -0.7259
vn 0.8214 0.1551 -0.5488
vn 0.1990 0.0518 -0.9786
vn -0.0188 -0.0345 -0.9992
vn -0.2705 -0.1494 -0.9511
vn -0.4740 -0.2334 -0.8490
vn -0.6804 -0.3105 -0.6638
vn -0.4126 0.9106 -0.0246
vn -0.3949 -0.0874 -0.9145
vn -0.4144 -0.1058 -0.9039
vn 0.0248 0.1070 -0.9939
vn 0.1067 0.1422 -0.9841
vn 0.4299 0.3061 -0.8494
vn 0.5231 0.3437 -0.7799
vn 0.7583 0.4561 -0.4657
vn 0.0529 -0.3582 -0.9321
vn -0.0522 -0.6130 -0.7884
vn -0.1808 -0.7471 -0.6397
vn 0.0790 -0.1716 -0.9820
vn 0.0176 0.1541 -0.9879
vn -0.0447 0.2951 -0.9544
vn -0.2798 0.5558 -0.7828
vn -0.3646 0.6004 -0.7117
vn 0.4396 0.2440 -0.8644
vn 0.5831 0.3049 -0.7530
vn 0.7684 0.3704 -0.5219
vn 0.1336 0.1222 -0.9835
vn -0.0019 0.0715 -0.9974
vn -0.3541 -0.0736 -0.9323
vn -0.7424 -0.2316 -0.6287
vn -0.2859 -0.0322 -0.9577
vn -0.6256 0.1031 -0.7733
vn -0.7368 0.2461 -0.6297
vn -0.1002 -0.0221 -0.9947
vn 0.1942 0.1388 -0.9711
vn 0.2770 0.2623 -0.9244
vn 0.3712 0.6650 -0.6481
vt 1.622990 -0.827527
vt 1.606120 -0.827802
vt 1.613250 -0.852765
vt 1.613260 -0.803623
vt 1.632710 -0.803453
vt 1.622750 -0.790574
vt 1.639550 -0.788030
vt 1.632260 -0.778093
vt 1.639800 -0.878162
vt 1.632710 -0.852766
vt 1.622990 -0.877885
vt 1.632050 -0.904523
vt 1.613910 -0.904522
vt 1.622980 -0.935551
vt 1.609090 -0.935778
vt 1.616690 -0.970474
vt 1.622570 -0.776950
vt 1.605770 -0.780027
vt 1.613190 -0.796728
vt 1.612510 -0.758402
vt 1.631970 -0.758062
vt 1.621910 -0.739793
vt 1.631950 -0.760032
vt 1.612500 -0.760372
vt 1.622390 -0.769899
vt 1.612810 -0.778433
vt 1.629250 -0.970474
vt 1.622970 -0.998682
vt 1.631120 -0.998816
vt 1.626240 -1.023290
vt 1.619680 -1.023290
vt 1.622960 -1.037210
vt 1.618680 -1.037280
vt 1.621690 -1.060390
vt 1.632640 -0.796389
vt 1.622920 -0.807298
vt 1.634080 -0.808124
vt 1.645470 -0.901518
vt 1.642690 -0.918530
vt 1.664190 -0.911432
vt 1.623670 -0.911241
vt 1.623660 -0.891786
vt 1.601840 -0.901518
vt 1.604080 -0.884834
vt 1.582510 -0.891977
vt 1.570130 -0.918867
vt 1.563440 -0.901899
vt 1.551770 -0.911954
vt 1.582520 -0.911432
vt 1.576890 -0.852765
vt 1.560070 -0.853243
vt 1.570490 -0.878160
vt 1.569070 -0.827802
vt 1.654260 -0.744354
vt 1.662270 -0.729360
vt 1.640690 -0.728814
vt 1.674660 -0.747158
vt 1.661300 -0.761299
vt 1.678670 -0.767406
vt 1.664320 -0.776072
vt 1.676270 -0.785594
vt 1.570410 -0.935778
vt 1.563390 -0.970782
vt 1.574250 -0.970474
vt 1.568890 -0.998815
vt 1.559480 -0.999083
vt 1.564880 -1.023450
vt 1.559190 -1.023610
vt 1.562800 -1.037420
vt 1.561530 -0.904968
vt 1.545810 -0.905414
vt 1.554400 -0.936233
vt 1.551060 -0.878712
vt 1.688270 -0.799570
vt 1.682210 -0.810554
vt 1.694910 -0.808513
vt 1.704910 -0.796728
vt 1.694910 -0.780027
vt 1.583370 -0.763513
vt 1.581200 -0.778433
vt 1.598260 -0.760372
vt 1.566380 -0.770596
vt 1.569810 -0.788618
vt 1.550880 -0.784119
vt 1.558630 -0.803084
vt 1.541780 -0.802375
vt 1.549620 -0.828355
vt 1.567730 -1.037280
vt 1.565920 -1.060460
vt 1.568110 -1.060390
vt 1.566640 -1.085690
vt 1.621600 -0.736591
vt 1.622080 -0.753262
vt 1.636190 -0.747741
vt 1.607670 -0.748551
vt 1.602100 -0.729910
vt 1.589430 -0.746196
vt 1.580590 -0.731680
vt 1.569230 -0.750153
vt 1.626100 -1.037420
vt 1.625120 -1.023610
vt 1.621830 -1.037490
vt 1.623090 -1.060520
vt 1.620560 -1.060520
vt 1.621820 -1.085690
vt 1.618550 -1.023610
vt 1.621840 -0.999217
vt 1.613670 -0.999084
vt 1.615560 -0.971092
vt 1.628120 -0.971091
vt 1.621850 -0.936461
vt 1.635710 -0.936233
vt 1.630920 -0.905414
vt 1.622030 -0.788083
vt 1.638920 -0.785594
vt 1.631970 -0.776072
vt 1.631510 -0.802073
vt 1.612060 -0.801734
vt 1.621790 -0.811380
vt 1.621860 -0.828632
vt 1.638690 -0.828355
vt 1.631590 -0.802375
vt 1.631580 -0.853722
vt 1.612120 -0.853723
vt 1.621860 -0.878989
vt 1.605010 -0.878714
vt 1.612780 -0.905415
vt 1.632280 -0.759008
vt 1.612820 -0.758669
vt 1.622380 -0.768076
vt 1.622860 -0.743179
vt 1.639590 -0.750153
vt 1.632790 -0.731680
vt 1.632260 -0.762420
vt 1.612810 -0.762081
vt 1.622200 -0.781575
vt 1.605310 -0.783531
vt 1.612130 -0.802205
vt 1.682200 -0.914095
vt 1.675850 -0.902969
vt 1.671620 -0.912705
vt 1.688720 -0.902940
vt 1.682210 -0.891813
vt 1.694910 -0.891784
vt 1.610440 -0.902174
vt 1.607650 -0.918858
vt 1.622070 -0.911829
vt 1.598250 -0.911941
vt 1.598260 -0.892487
vt 1.701260 -0.902910
vt 1.694900 -0.914066
vt 1.646240 -0.911941
vt 1.664310 -0.912248
vt 1.654610 -0.902379
vt 1.646250 -0.892487
vt 1.633930 -0.902174
vt 1.636190 -0.885162
vt 1.622080 -0.892375
vt 1.678420 -0.769917
vt 1.663590 -0.778093
vt 1.674980 -0.788030
vt 1.661420 -0.762925
vt 1.675570 -0.749565
vt 1.655360 -0.745517
vt 1.664190 -0.731341
vt 1.642690 -0.729322
vt 1.686210 -0.802744
vt 1.703030 -0.802205
vt 1.693910 -0.783531
vt 1.695210 -0.828356
vt 1.675760 -0.827804
vt 1.684780 -0.853245
vt 1.667920 -0.852766
vt 1.674340 -0.878162
vt 1.678140 -1.085690
vt 1.678860 -1.060460
vt 1.676670 -1.060390
vt 1.677060 -1.037280
vt 1.681990 -1.037420
vt 1.679920 -1.023450
vt 1.685600 -1.023610
vt 1.685330 -0.999084
vt 1.590530 -0.743675
vt 1.582520 -0.729021
vt 1.570130 -0.746570
vt 1.604100 -0.728226
vt 1.608600 -0.747153
vt 1.623190 -0.735912
vt 1.622710 -0.752923
vt 1.637120 -0.747963
vt 1.683310 -0.904969
vt 1.698990 -0.905415
vt 1.693770 -0.878714
vt 1.690420 -0.936234
vt 1.674410 -0.935779
vt 1.681430 -0.970783
vt 1.670540 -0.970474
vt 1.675910 -0.998816
vt 1.556520 -0.798891
vt 1.539880 -0.796389
vt 1.549880 -0.808124
vt 1.549880 -0.779439
vt 1.568530 -0.785006
vt 1.566130 -0.766727
vt 1.580470 -0.775732
vt 1.583490 -0.760711
vt 1.598530 -0.758669
s 1
usemtl Meshpart1Mtl
f 3/1/1 2/2/2 1/3/3
f 2/2/2 3/1/1 4/4/4
f 5/5/5 4/4/4 3/1/1
f 4/4/4 5/5/5 6/6/6
f 6/6/6 5/5/5 7/7/7
f 6/6/6 7/7/7 8/8/8
f 10/9/9 9/10/10 11/11/11
f 11/11/11 12/12/12 10/9/9
f 13/13/13 12/12/12 11/11/11
f 12/12/12 13/13/13 14/14/14
f 15/15/15 14/14/14 13/13/13
f 14/14/14 15/15/15 16/16/16
f 19/17/17 18/18/18 17/19/19
f 18/18/18 19/17/17 20/20/20
f 19/17/17 21/21/21 20/20/20
f 22/22/22 20/20/20 21/21/21
f 23/23/23 24/24/24 25/25/25
f 26/26/26 25/25/25 24/24/24
f 27/27/27 29/28/28 28/29/29
f 29/28/28 30/30/30 28/29/29
f 31/31/31 30/30/30 29/28/28
f 30/30/30 31/31/31 32/32/32
f 33/33/33 32/32/32 31/31/31
f 32/32/32 33/33/33 34/34/34
f 35/35/35 37/36/36 36/37/37
f 40/38/38 39/39/39 38/40/40
f 39/39/39 40/38/38 41/41/41
f 40/38/38 42/42/42 41/41/41
f 43/43/43 41/41/41 42/42/42
f 44/44/44 43/43/43 42/42/42
f 43/43/43 44/44/44 45/45/45
f 48/46/46 47/47/47 46/48/48
f 47/47/47 48/46/46 49/49/49
f 50/50/50 51/51/51 52/52/52
f 51/51/51 50/50/50 53/53/53
f 56/54/54 55/55/55 54/56/56
f 55/55/55 56/54/54 57/57/57
f 58/58/58 57/57/57 56/54/54
f 57/57/57 58/58/58 59/59/59
f 60/60/60 59/59/59 58/58/58
f 59/59/59 60/60/60 61/61/61
f 62/62/62 64/63/63 63/64/64
f 65/65/65 63/64/64 64/63/63
f 64/63/63 66/66/66 65/65/65
f 67/67/67 65/65/65 66/66/66
f 66/66/66 68/68/68 67/67/67
f 68/68/68 69/69/69 67/67/67
f 73/70/70 72/71/71 71/72/72
f 72/71/71 73/70/70 74/73/73
f 52/52/52 74/73/73 73/70/70
f 74/73/73 52/52/52 51/51/51
f 77/74/74 75/75/75 76/76/76
f 78/77/77 77/74/74 76/76/76
f 77/74/74 78/77/77 79/78/78
f 82/79/79 81/80/80 80/81/81
f 83/82/82 81/80/80 82/79/79
f 81/80/80 83/82/82 84/83/83
f 85/84/84 84/83/83 83/82/82
f 84/83/83 85/84/84 86/85/85
f 87/86/86 86/85/85 85/84/84
f 86/85/85 87/86/86 88/87/87
f 89/88/88 91/89/89 90/90/90
f 70/91/91 90/90/90 91/89/89
f 94/92/92 93/93/93 92/94/94
f 93/93/93 94/92/92 95/95/95
f 96/96/96 95/95/95 94/92/92
f 95/95/95 96/96/96 97/97/97
f 98/98/98 97/97/97 96/96/96
f 97/97/97 98/98/98 99/99/99
f 105/100/100 104/101/101 106/102/102
f 106/102/102 107/103/103 105/100/100
f 107/103/103 106/102/102 108/104/104
f 109/105/105 107/103/103 108/104/104
f 110/106/106 112/107/107 111/108/108
f 113/109/109 111/108/108 112/107/107
f 112/107/107 114/110/110 113/109/109
f 115/111/111 113/109/109 114/110/110
f 114/110/110 116/112/72 115/111/111
f 117/113/112 115/111/111 116/112/72
f 118/114/113 101/115/114 100/116/115
f 101/115/114 118/114/113 119/117/116
f 120/118/117 119/117/116 118/114/113
f 119/117/116 120/118/117 121/119/118
f 124/120/119 123/121/120 122/122/121
f 123/121/120 124/120/119 125/123/122
f 125/123/122 124/120/119 126/124/123
f 127/125/124 125/123/122 126/124/123
f 128/126/125 127/125/124 126/124/123
f 127/125/124 128/126/125 129/127/126
f 132/128/127 130/129/128 131/130/129
f 135/131/130 134/132/99 133/133/131
f 134/132/99 135/131/130 136/134/132
f 136/134/132 135/131/130 137/135/133
f 138/136/134 136/134/132 137/135/133
f 103/137/135 138/136/134 137/135/133
f 138/136/134 103/137/135 102/138/136
f 141/139/137 140/140/138 139/141/139
f 140/140/138 141/139/137 142/142/140
f 143/143/141 142/142/142 144/144/143
f 147/145/144 146/146/145 145/147/146
f 147/145/144 148/148/23 146/146/145
f 149/149/147 148/148/23 147/145/144
f 151/150/148 142/142/149 150/151/150
f 153/152/151 152/153/152 154/154/129
f 153/152/153 155/155/154 156/156/155
f 157/157/156 156/156/155 155/155/154
f 156/156/155 157/157/156 158/158/157
f 161/159/158 160/160/159 159/161/160
f 160/160/159 161/159/158 162/162/161
f 163/163/162 162/162/161 161/159/158
f 162/162/161 163/163/162 164/164/163
f 165/165/164 164/164/163 163/163/162
f 164/164/163 165/165/164 166/166/165
f 167/167/166 168/168/167 169/169/168
f 168/168/167 167/167/166 170/170/169
f 171/171/170 170/170/169 167/167/166
f 170/170/169 171/171/170 172/172/171
f 173/173/172 172/172/171 171/171/170
f 172/172/171 173/173/172 174/174/173
f 175/175/174 176/176/175 177/177/176
f 178/178/177 177/177/176 176/176/175
f 178/178/177 176/176/175 179/179/178
f 179/179/178 180/180/179 178/178/177
f 180/180/179 179/179/178 181/181/180
f 181/181/180 182/182/181 180/180/179
f 185/183/182 184/184/183 183/185/184
f 184/184/183 185/183/182 186/186/185
f 187/187/186 186/186/185 185/183/182
f 186/186/185 187/187/186 188/188/187
f 189/189/188 188/188/187 187/187/186
f 188/188/187 189/189/188 190/190/189
f 193/191/190 192/192/191 191/193/192
f 192/192/191 193/191/190 194/194/193
f 195/195/194 194/194/193 193/191/190
f 194/194/193 195/195/194 196/196/195
f 196/196/195 195/195/194 197/197/27
f 197/197/27 198/198/196 196/196/195
f 199/199/197 200/200/198 201/201/199
f 200/200/198 199/199/197 202/202/200
f 203/203/201 202/202/200 199/199/197
f 202/202/200 203/203/201 204/204/202
f 205/205/152 204/204/202 203/203/201
f 204/204/202 205/205/152 206/206/203
f 205/205/152 207/207/128 206/206/203
