# Blender 5.1.2
# www.blender.org
mtllib DontPress2.mtl
o DontPress
v -1.385582 -0.100284 -0.806046
v -1.385582 0.808515 -0.806046
v -0.798378 -0.100284 -1.393246
v -1.600479 0.808516 -0.003847
v -1.600479 -0.100284 -0.003847
v -0.798378 0.808515 -1.393246
v -1.269379 0.993046 -0.738947
v -1.466377 0.993046 -0.003847
v -1.269379 0.993046 0.731255
v -0.798378 -0.100284 1.385553
v -0.731277 0.993046 1.269354
v -0.798378 0.808516 1.385553
v -1.385582 -0.100284 0.798353
v -1.385582 0.808516 0.798353
v 1.277016 0.993046 0.731255
v 1.277016 0.993046 -0.738947
v 0.738922 0.993046 -1.277046
v 1.474022 0.993046 -0.003847
v -0.731277 0.993046 1.269354
v 0.738922 0.993046 1.269354
v 0.003822 0.993046 1.466354
v -1.269379 0.993046 0.731255
v -0.731277 0.993046 -1.277046
v 0.003822 0.993046 -1.474047
v -1.269379 0.993046 -0.738947
v -1.466377 0.993046 -0.003847
v -0.798378 -0.100284 -1.393246
v -0.798378 0.808515 -1.393246
v 0.003822 -0.100284 -1.608147
v -1.269379 0.993046 -0.738947
v -0.731277 0.993046 -1.277046
v 0.003822 0.808515 -1.608147
v 0.003822 0.993046 -1.474047
v 0.806023 -0.100284 -1.393246
v 0.738922 0.993046 -1.277046
v 0.806023 0.808515 -1.393246
v 0.806023 -0.100284 -1.393246
v 0.738922 0.993046 -1.277046
v 0.806023 0.808515 -1.393246
v 1.393219 -0.100284 -0.806046
v 1.277016 0.993046 -0.738947
v 1.393219 0.808515 -0.806046
v 1.608215 -0.100284 -0.003847
v 1.608215 0.808516 -0.003847
v 1.474022 0.993046 -0.003847
v 1.393219 -0.100284 0.798353
v 1.277016 0.993046 0.731255
v 1.393219 0.808516 0.798353
v 0.806023 -0.100284 1.385553
v 0.806023 0.808516 1.385553
v 0.738922 0.993046 1.269354
v 0.806023 -0.100284 1.385553
v 0.806023 0.808516 1.385553
v 0.738922 0.993046 1.269354
v 0.003822 -0.100284 1.600554
v 0.003822 0.808516 1.600553
v 0.003822 0.993046 1.466354
v -0.798378 -0.100284 1.385553
v -0.731277 0.993046 1.269354
v -0.798378 0.808516 1.385553
v -0.990082 -1.312874 -1.725345
v -0.990082 -0.056335 -1.725346
v -1.717682 -1.312874 -0.997745
v -1.717682 -0.056335 -0.997746
v -1.983978 -1.312874 -0.003847
v -1.983978 -0.056334 -0.003847
v -1.717682 -1.312874 0.990053
v -1.717682 -0.056334 0.990053
v -0.990082 -1.312874 1.717653
v -0.990082 -0.056334 1.717653
v 0.943916 -0.033274 -1.632147
v 1.393219 -0.033274 -0.806046
v 1.632118 -0.033274 -0.943947
v 0.806023 -0.033274 -1.393246
v 1.608215 -0.033274 -0.003847
v 0.003822 -0.033274 -1.608147
v 1.884018 -0.033274 -0.003847
v 1.991615 -0.056334 -0.003847
v 1.632118 -0.033274 0.936255
v 1.725319 -0.056335 -0.997746
v 0.997719 -0.056335 -1.725346
v 0.003822 -0.056335 -1.991646
v 1.393219 -0.033274 0.798353
v 1.725319 -0.056334 0.990053
v 0.806023 -0.033274 1.385553
v 0.997719 -0.056334 1.717653
v 0.003822 -0.033274 -1.884047
v -0.936279 -0.033274 -1.632147
v -0.990082 -0.056335 -1.725346
v -0.798378 -0.033274 -1.393246
v 0.943916 -0.033274 1.624454
v 0.003822 -0.056334 1.983953
v 0.003822 -0.033274 1.600554
v 0.003822 -0.033274 1.876453
v -0.936279 -0.033274 1.624454
v -0.990082 -0.056334 1.717653
v -0.798378 -0.033274 1.385553
v -1.717682 -0.056334 0.990053
v -1.385582 -0.033274 0.798353
v -1.624481 -0.033274 0.936255
v -1.983978 -0.056334 -0.003847
v -1.600479 -0.033274 -0.003847
v -1.876381 -0.033274 -0.003847
v -1.624481 -0.033274 -0.943947
v -1.717682 -0.056335 -0.997746
v -1.385582 -0.033274 -0.806046
v 0.003822 -1.312874 -1.991646
v -0.990082 -1.312874 -1.725345
v 0.003822 -0.056335 -1.991646
v -0.990082 -0.056335 -1.725346
v 0.997719 -0.056335 -1.725346
v 0.997719 -1.312874 -1.725345
v 0.997719 -0.056335 -1.725346
v 0.997719 -1.312874 -1.725345
v 1.725319 -0.056335 -0.997746
v 1.725319 -1.312874 -0.997745
v 1.991615 -0.056334 -0.003847
v 1.991615 -1.312874 -0.003847
v 1.725319 -0.056334 0.990053
v 1.725319 -1.312874 0.990053
v 0.997719 -0.056334 1.717653
v 0.997719 -1.312874 1.717653
v -1.717682 -1.312874 -0.997745
v -0.990082 -1.312874 1.717653
v -1.717682 -1.312874 0.990053
v -1.983978 -1.312874 -0.003847
v 0.997719 -1.312874 1.717653
v 0.003822 -1.312874 1.983954
v 0.997719 -1.312874 -1.725345
v -0.990082 -1.312874 -1.725345
v 0.003822 -1.312874 -1.991646
v 1.725319 -1.312874 -0.997745
v 1.725319 -1.312874 0.990053
v 1.991615 -1.312874 -0.003847
v -0.990082 -1.312874 1.717653
v -0.990082 -0.056334 1.717653
v 0.997719 -0.056334 1.717653
v 0.003822 -1.312874 1.983954
v 0.997719 -1.312874 1.717653
v 0.003822 -0.056334 1.983953
vn -0.8677 -0.0000 -0.4971
vn -0.8271 0.2914 -0.4805
vn -0.4970 -0.0000 -0.8677
vn -0.9563 0.2925 -0.0000
vn -1.0000 -0.0000 -0.0000
vn -0.4806 0.2914 -0.8271
vn -0.7004 0.5902 -0.4013
vn -0.8084 0.5887 -0.0000
vn -0.7004 0.5902 0.4014
vn -0.4806 0.2915 0.8271
vn -0.8677 -0.0000 0.4970
vn -0.4970 -0.0000 0.8677
vn -0.4014 0.5902 0.7004
vn -0.8271 0.2915 0.4805
vn -0.0000 1.0000 -0.0000
vn -0.4970 -0.0000 -0.8678
vn -0.4805 0.2915 -0.8271
vn -0.0000 -0.0000 -1.0000
vn -0.7004 0.5902 -0.4014
vn -0.4013 0.5902 -0.7004
vn -0.0000 0.2925 -0.9563
vn -0.0000 0.5886 -0.8085
vn 0.4970 -0.0000 -0.8678
vn 0.4013 0.5902 -0.7004
vn 0.4805 0.2914 -0.8271
vn 0.4970 -0.0000 -0.8677
vn 0.4806 0.2915 -0.8271
vn 0.8677 -0.0000 -0.4970
vn 0.7004 0.5902 -0.4014
vn 0.4014 0.5902 -0.7004
vn 0.8271 0.2915 -0.4805
vn 1.0000 -0.0000 -0.0000
vn 0.9563 0.2925 -0.0000
vn 0.8084 0.5886 -0.0000
vn 0.8677 -0.0000 0.4970
vn 0.7004 0.5902 0.4014
vn 0.8271 0.2915 0.4805
vn 0.4970 -0.0000 0.8677
vn 0.4806 0.2915 0.8271
vn 0.4014 0.5902 0.7004
vn 0.4805 0.2915 0.8271
vn -0.0000 -0.0000 1.0000
vn 0.4969 -0.0000 0.8678
vn -0.0000 0.2925 0.9563
vn 0.4013 0.5902 0.7004
vn -0.0000 0.5887 0.8083
vn -0.4969 -0.0000 0.8678
vn -0.4013 0.5902 0.7004
vn -0.4805 0.2915 0.8271
vn -0.8678 -0.0000 -0.4970
vn -0.8677 -0.0000 -0.4970
vn -0.8678 -0.0000 0.4970
vn 0.0630 0.9927 -0.1024
vn 0.1024 0.9927 -0.0630
vn 0.1260 0.9920 -0.0000
vn 0.2127 0.9771 -0.0000
vn 0.1024 0.9927 0.0630
vn 0.1814 0.9780 -0.1026
vn 0.1025 0.9780 -0.1814
vn -0.0000 0.9771 -0.2127
vn 0.1814 0.9781 0.1025
vn 0.1026 0.9780 0.1814
vn -0.0000 0.9920 -0.1260
vn -0.0630 0.9927 -0.1024
vn -0.1026 0.9780 -0.1814
vn 0.0630 0.9927 0.1024
vn -0.0000 0.9771 0.2127
vn -0.0000 0.9920 0.1260
vn -0.0630 0.9927 0.1025
vn -0.1025 0.9780 0.1814
vn -0.1814 0.9780 0.1026
vn -0.1024 0.9927 0.0630
vn -0.2127 0.9771 -0.0000
vn -0.1260 0.9920 -0.0000
vn -0.1024 0.9927 -0.0630
vn -0.1814 0.9780 -0.1025
vn -0.4969 -0.0000 -0.8678
vn 0.4969 -0.0000 -0.8678
vn 0.8678 -0.0000 -0.4970
vn 0.8678 -0.0000 0.4970
vn -0.0000 -1.0000 -0.0000
vt 33.899700 -55.068298
vt 33.899700 -54.954700
vt 33.826302 -55.068298
vt 34.000000 -54.954700
vt 34.000000 -55.068298
vt 33.826302 -54.954700
vt 33.908100 -54.931702
vt 34.000000 -54.931702
vt 34.091900 -54.931702
vt 34.173698 -54.954700
vt 34.100300 -55.068298
vt 34.173698 -55.068298
vt 34.159199 -54.931702
vt 34.100300 -54.954700
vt 34.159199 -55.091900
vt 34.159199 -54.908100
vt 34.091900 -54.840801
vt 34.183800 -55.000000
vt 33.908100 -55.159199
vt 34.091900 -55.159199
vt 34.000000 -55.183800
vt 33.840801 -55.091900
vt 33.908100 -54.840801
vt 34.000000 -54.816200
vt 33.840801 -54.908100
vt 33.816200 -55.000000
vt 33.840801 -54.931702
vt 45.784801 -29.080000
vt 45.875801 -29.080000
vt 45.784801 -28.922899
vt 45.875801 -28.922899
vt 46.000000 -29.080000
vt 46.000000 -28.922899
vt 46.124199 -29.080000
vt 46.124199 -28.922899
vt 46.215199 -29.080000
vt 46.215199 -28.922899
vt 46.117500 -28.796499
vt 46.173698 -28.899700
vt 46.203499 -28.882500
vt 46.100300 -28.826300
vt 46.200500 -29.000000
vt 46.000000 -28.799500
vt 46.235001 -29.000000
vt 46.248501 -29.000000
vt 46.203499 -29.117500
vt 46.215199 -28.875799
vt 46.124199 -28.784800
vt 46.000000 -28.751499
vt 46.173698 -29.100300
vt 46.215199 -29.124201
vt 46.100300 -29.173700
vt 46.124199 -29.215200
vt 46.000000 -28.764999
vt 45.882500 -28.796499
vt 45.875801 -28.784800
vt 45.899700 -28.826300
vt 46.117500 -29.203501
vt 46.000000 -29.248501
vt 46.000000 -29.200500
vt 46.000000 -29.235001
vt 45.882500 -29.203501
vt 45.875801 -29.215200
vt 45.899700 -29.173700
vt 45.784801 -29.124201
vt 45.826302 -29.100300
vt 45.796501 -29.117500
vt 45.751499 -29.000000
vt 45.799500 -29.000000
vt 45.764999 -29.000000
vt 45.796501 -28.882500
vt 45.784801 -28.875799
vt 45.826302 -28.899700
s 1
usemtl Meshpart1Mtl
f 1/1/1 2/2/2 3/3/3
f 1/1/1 4/4/4 2/2/2
f 4/4/4 1/1/1 5/5/5
f 3/3/3 2/2/2 6/6/6
f 6/6/6 2/2/2 7/7/7
f 4/4/4 7/7/7 2/2/2
f 7/7/7 4/4/4 8/8/8
f 4/4/4 9/9/9 8/8/8
f 12/10/10 13/11/11 10/12/12
f 9/9/9 12/10/10 11/13/13
f 12/10/10 14/14/14 13/11/11
f 12/10/10 9/9/9 14/14/14
f 14/14/14 5/5/5 13/11/11
f 9/9/9 4/4/4 14/14/14
f 5/5/5 14/14/14 4/4/4
f 15/15/15 16/16/15 17/17/15
f 16/16/15 15/15/15 18/18/15
f 19/19/15 15/15/15 17/17/15
f 15/15/15 19/19/15 20/20/15
f 20/20/15 19/19/15 21/21/15
f 19/19/15 17/17/15 22/22/15
f 17/17/15 23/23/15 22/22/15
f 23/23/15 17/17/15 24/24/15
f 22/22/15 23/23/15 25/25/15
f 22/22/15 25/25/15 26/26/15
f 27/11/16 28/14/17 29/5/18
f 28/14/17 30/13/19 31/9/20
f 29/5/18 28/14/17 32/4/21
f 32/4/21 28/14/17 31/9/20
f 32/4/21 31/9/20 33/8/22
f 29/5/18 32/4/21 34/1/23
f 35/7/24 32/4/21 33/8/22
f 34/1/23 32/4/21 36/2/25
f 32/4/21 35/7/24 36/2/25
f 37/12/26 39/10/27 40/11/28
f 41/9/29 39/10/27 38/13/30
f 40/11/28 39/10/27 42/14/31
f 39/10/27 41/9/29 42/14/31
f 43/5/32 40/11/28 42/14/31
f 44/4/33 42/14/31 41/9/29
f 44/4/33 43/5/32 42/14/31
f 41/9/29 45/8/34 44/4/33
f 46/1/35 43/5/32 44/4/33
f 47/7/36 44/4/33 45/8/34
f 48/2/37 46/1/35 44/4/33
f 44/4/33 47/7/36 48/2/37
f 48/2/37 49/3/38 46/1/35
f 50/6/39 48/2/37 47/7/36
f 48/2/37 50/6/39 49/3/38
f 47/7/36 51/27/40 50/6/39
f 53/14/41 55/5/42 52/11/43
f 56/4/44 53/14/41 54/9/45
f 53/14/41 56/4/44 55/5/42
f 54/9/45 57/8/46 56/4/44
f 56/4/44 58/1/47 55/5/42
f 59/7/48 56/4/44 57/8/46
f 56/4/44 60/2/49 58/1/47
f 56/4/44 59/7/48 60/2/49
usemtl Meshpart2Mtl
f 61/28/3 63/29/50 62/30/3
f 63/29/50 64/31/51 62/30/3
f 65/32/5 64/31/51 63/29/50
f 64/31/51 65/32/5 66/33/5
f 67/34/52 66/33/5 65/32/5
f 66/33/5 67/34/52 68/35/11
f 69/36/12 68/35/11 67/34/52
f 68/35/11 69/36/12 70/37/12
f 71/38/53 72/39/15 73/40/54
f 72/39/15 71/38/53 74/41/15
f 75/42/15 73/40/54 72/39/15
f 71/38/53 76/43/15 74/41/15
f 73/40/54 75/42/15 77/44/55
f 73/40/54 77/44/55 78/45/56
f 79/46/57 77/44/55 75/42/15
f 79/46/57 78/45/56 77/44/55
f 78/45/56 80/47/58 73/40/54
f 80/47/58 71/38/53 73/40/54
f 71/38/53 80/47/58 81/48/59
f 82/49/60 71/38/53 81/48/59
f 75/42/15 83/50/15 79/46/57
f 78/45/56 79/46/57 84/51/61
f 85/52/15 79/46/57 83/50/15
f 79/46/57 86/53/62 84/51/61
f 71/38/53 82/49/60 87/54/63
f 76/43/15 71/38/53 87/54/63
f 88/55/64 87/54/63 82/49/60
f 88/55/64 76/43/15 87/54/63
f 82/49/60 89/56/65 88/55/64
f 76/43/15 88/55/64 90/57/15
f 86/53/62 79/46/57 91/58/66
f 79/46/57 85/52/15 91/58/66
f 91/58/66 92/59/67 86/53/62
f 93/60/15 91/58/66 85/52/15
f 92/59/67 91/58/66 94/61/68
f 91/58/66 93/60/15 94/61/68
f 95/62/69 92/59/67 94/61/68
f 95/62/69 94/61/68 93/60/15
f 92/59/67 95/62/69 96/63/70
f 95/62/69 93/60/15 97/64/15
f 98/65/71 96/63/70 95/62/69
f 99/66/15 95/62/69 97/64/15
f 95/62/69 100/67/72 98/65/71
f 95/62/69 99/66/15 100/67/72
f 100/67/72 101/68/73 98/65/71
f 102/69/15 100/67/72 99/66/15
f 101/68/73 100/67/72 103/70/74
f 100/67/72 102/69/15 103/70/74
f 104/71/75 101/68/73 103/70/74
f 102/69/15 104/71/75 103/70/74
f 101/68/73 104/71/75 105/72/76
f 104/71/75 102/69/15 106/73/15
f 89/56/65 105/72/76 104/71/75
f 90/57/15 104/71/75 106/73/15
f 104/71/75 88/55/64 89/56/65
f 104/71/75 90/57/15 88/55/64
f 107/32/18 108/34/77 109/33/18
f 108/34/77 110/35/77 109/33/18
f 107/32/18 109/33/18 111/31/78
f 112/29/78 107/32/18 111/31/78
f 114/36/26 113/37/26 115/35/79
f 116/34/28 114/36/26 115/35/79
f 117/33/32 116/34/28 115/35/79
f 117/33/32 118/32/32 116/34/28
f 119/31/35 118/32/32 117/33/32
f 119/31/35 120/29/80 118/32/32
f 121/30/38 120/29/80 119/31/35
f 120/29/80 121/30/38 122/28/38
f 123/47/81 124/53/81 125/51/81
f 123/47/81 125/51/81 126/45/81
f 127/63/81 124/53/81 123/47/81
f 124/53/81 127/63/81 128/59/81
f 123/47/81 129/56/81 127/63/81
f 130/48/81 129/56/81 123/47/81
f 129/56/81 130/48/81 131/49/81
f 127/63/81 129/56/81 132/72/81
f 132/72/81 133/65/81 127/63/81
f 133/65/81 132/72/81 134/68/81
f 138/32/42 136/31/47 135/29/47
f 136/31/47 138/32/42 140/33/42
f 140/33/42 139/34/43 137/35/43
f 139/34/43 140/33/42 138/32/42
