# Blender 5.1.2
# www.blender.org
mtllib FamasMag12.mtl
o FamasMag
v 0.098127 0.427417 0.061670
v 0.100203 0.330137 -0.061523
v 0.098127 0.427417 -0.061523
v 0.100203 0.330137 0.061670
v 0.091464 0.235777 -0.061523
v 0.091464 0.235777 0.061670
v 0.063350 0.146661 -0.061523
v 0.063350 0.146661 0.061670
v 0.015769 0.062789 -0.061523
v 0.015769 0.062789 0.061670
v -0.042585 -0.018163 -0.061523
v -0.042585 -0.018163 0.061670
v -0.030991 -0.066015 0.073682
v -0.030991 -0.066015 -0.073926
v -0.047300 -0.117515 0.073682
v -0.047300 -0.117515 -0.073926
v -0.030991 -0.066015 -0.073926
v -0.030991 -0.066015 0.073682
v 0.098127 0.427417 -0.061523
v -0.208427 0.510221 -0.061523
v -0.208427 0.510221 0.061670
v 0.098127 0.427417 0.061670
v -0.349181 0.064641 0.061670
v -0.349181 0.064641 -0.061523
v -0.398881 0.033349 -0.073926
v -0.398881 0.033349 0.073682
v -0.047300 -0.117515 0.073682
v -0.398881 0.033349 0.073682
v -0.415187 -0.018151 0.073682
v -0.030991 -0.066015 0.073682
v -0.206351 0.412941 0.061670
v 0.098127 0.427417 0.061670
v -0.208427 0.510221 0.061670
v 0.100203 0.330137 0.061670
v -0.215086 0.318585 0.061670
v 0.091464 0.235777 0.061670
v 0.063350 0.146661 0.061670
v -0.243246 0.229469 0.061670
v 0.015769 0.062789 0.061670
v -0.290785 0.145593 0.061670
v -0.042585 -0.018163 0.061670
v -0.349181 0.064641 0.061670
v -0.030991 -0.066015 0.073682
v -0.398881 0.033349 0.073682
v -0.415187 -0.018151 -0.073926
v -0.398881 0.033349 0.073682
v -0.398881 0.033349 -0.073926
v -0.415187 -0.018151 0.073682
v -0.208427 0.510221 -0.061523
v -0.206351 0.412941 -0.061523
v -0.206351 0.412941 0.061670
v -0.208427 0.510221 0.061670
v -0.215086 0.318585 0.061670
v -0.215086 0.318585 -0.061523
v -0.243246 0.229469 0.061670
v -0.243246 0.229469 -0.061523
v -0.290785 0.145593 0.061670
v -0.290785 0.145593 -0.061523
v -0.349181 0.064641 0.061670
v -0.349181 0.064641 -0.061523
v -0.415187 -0.018151 -0.073926
v -0.047300 -0.117515 -0.073926
v -0.047300 -0.117515 0.073682
v -0.415187 -0.018151 0.073682
v -0.047300 -0.117515 -0.073926
v -0.398881 0.033349 -0.073926
v -0.030991 -0.066015 -0.073926
v -0.415187 -0.018151 -0.073926
v 0.098127 0.427417 -0.061523
v -0.206351 0.412941 -0.061523
v -0.208427 0.510221 -0.061523
v 0.100203 0.330137 -0.061523
v -0.215086 0.318585 -0.061523
v 0.091464 0.235777 -0.061523
v 0.063350 0.146661 -0.061523
v -0.243246 0.229469 -0.061523
v 0.015769 0.062789 -0.061523
v -0.290785 0.145593 -0.061523
v -0.042585 -0.018163 -0.061523
v -0.349181 0.064641 -0.061523
v -0.030991 -0.066015 -0.073926
v -0.398881 0.033349 -0.073926
v 0.057552 0.418505 -0.065527
v 0.057552 0.418505 0.065674
v 0.060492 0.335745 -0.065527
v 0.060492 0.335745 0.065674
v 0.051628 0.244841 -0.065527
v 0.051628 0.244841 0.065674
v 0.024461 0.158877 -0.065527
v 0.024461 0.158877 0.065674
v -0.020998 0.077857 -0.065527
v -0.020998 0.077857 0.065674
v -0.071609 0.009561 -0.065527
v -0.071609 0.009561 0.065674
v -0.042713 0.445581 -0.065527
v -0.042713 0.445581 0.065674
v -0.039773 0.362825 -0.065527
v -0.039773 0.362825 0.065674
v -0.048640 0.271921 -0.065527
v -0.048640 0.271921 0.065674
v -0.075804 0.185957 -0.065527
v -0.075804 0.185957 0.065674
v -0.121224 0.104933 -0.065527
v -0.121224 0.104933 0.065674
v -0.171874 0.036641 -0.065527
v -0.171874 0.036641 0.065674
v -0.142939 0.472661 -0.065527
v -0.142939 0.472661 0.065674
v -0.140038 0.389901 -0.065527
v -0.140038 0.389901 0.065674
v -0.148905 0.299001 -0.065527
v -0.148905 0.299001 0.065674
v -0.176072 0.213037 -0.065527
v -0.176072 0.213037 0.065674
v -0.221489 0.132013 -0.065527
v -0.221489 0.132013 0.065674
v -0.272142 0.063717 -0.065527
v -0.272142 0.063717 0.065674
v -0.069966 0.452949 -0.065527
v -0.069966 0.452949 0.065674
v -0.042713 0.445581 -0.065527
v -0.042713 0.445581 0.065674
v 0.030259 0.425869 -0.065527
v 0.030259 0.425869 0.065674
v 0.057552 0.418505 -0.065527
v 0.057552 0.418505 0.065674
v -0.170231 0.480029 -0.065527
v -0.170231 0.480029 0.065674
v -0.142939 0.472661 -0.065527
v -0.142939 0.472661 0.065674
v -0.067068 0.370189 0.065674
v -0.042713 0.445581 0.065674
v -0.069966 0.452949 0.065674
v -0.039773 0.362825 0.065674
v -0.075936 0.279289 0.065674
v -0.048640 0.271921 0.065674
v -0.075804 0.185957 0.065674
v -0.103056 0.193325 0.065674
v -0.121224 0.104933 0.065674
v -0.148519 0.112301 0.065674
v -0.171874 0.036641 0.065674
v -0.199127 0.044005 0.065674
v 0.033200 0.343113 0.065674
v 0.057552 0.418505 0.065674
v 0.030259 0.425869 0.065674
v 0.060492 0.335745 0.065674
v 0.024332 0.252209 0.065674
v 0.051628 0.244841 0.065674
v -0.002831 0.166245 0.065674
v 0.024461 0.158877 0.065674
v -0.020998 0.077857 0.065674
v -0.048251 0.085221 0.065674
v -0.071609 0.009561 0.065674
v -0.098905 0.016929 0.065674
v -0.167290 0.397269 0.065674
v -0.142939 0.472661 0.065674
v -0.170231 0.480029 0.065674
v -0.140038 0.389901 0.065674
v -0.176158 0.306365 0.065674
v -0.148905 0.299001 0.065674
v -0.203321 0.220401 0.065674
v -0.176072 0.213037 0.065674
v -0.221489 0.132013 0.065674
v -0.248784 0.139377 0.065674
v -0.272142 0.063717 0.065674
v -0.299392 0.071085 0.065674
v -0.170231 0.480029 -0.065527
v -0.167290 0.397269 -0.065527
v -0.167290 0.397269 0.065674
v -0.170231 0.480029 0.065674
v -0.176158 0.306365 0.065674
v -0.176158 0.306365 -0.065527
v -0.203321 0.220401 0.065674
v -0.203321 0.220401 -0.065527
v -0.248784 0.139377 0.065674
v -0.248784 0.139377 -0.065527
v -0.299392 0.071085 0.065674
v -0.299392 0.071085 -0.065527
v -0.069966 0.452949 -0.065527
v -0.067068 0.370189 -0.065527
v -0.067068 0.370189 0.065674
v -0.069966 0.452949 0.065674
v -0.075936 0.279289 0.065674
v -0.075936 0.279289 -0.065527
v -0.103056 0.193325 0.065674
v -0.103056 0.193325 -0.065527
v -0.148519 0.112301 0.065674
v -0.148519 0.112301 -0.065527
v -0.199127 0.044005 0.065674
v -0.199127 0.044005 -0.065527
v 0.030259 0.425869 -0.065527
v 0.033200 0.343113 -0.065527
v 0.033200 0.343113 0.065674
v 0.030259 0.425869 0.065674
v 0.024332 0.252209 0.065674
v 0.024332 0.252209 -0.065527
v -0.002831 0.166245 0.065674
v -0.002831 0.166245 -0.065527
v -0.048251 0.085221 0.065674
v -0.048251 0.085221 -0.065527
v -0.098905 0.016929 0.065674
v -0.098905 0.016929 -0.065527
v -0.171874 0.036641 -0.065527
v -0.171874 0.036641 0.065674
v -0.199127 0.044005 -0.065527
v -0.199127 0.044005 0.065674
v -0.071609 0.009561 -0.065527
v -0.071609 0.009561 0.065674
v -0.098905 0.016929 -0.065527
v -0.098905 0.016929 0.065674
v -0.272142 0.063717 -0.065527
v -0.272142 0.063717 0.065674
v -0.299392 0.071085 -0.065527
v -0.299392 0.071085 0.065674
v -0.042713 0.445581 -0.065527
v -0.067068 0.370189 -0.065527
v -0.069966 0.452949 -0.065527
v -0.039773 0.362825 -0.065527
v -0.075936 0.279289 -0.065527
v -0.048640 0.271921 -0.065527
v -0.075804 0.185957 -0.065527
v -0.103056 0.193325 -0.065527
v -0.121224 0.104933 -0.065527
v -0.148519 0.112301 -0.065527
v -0.171874 0.036641 -0.065527
v -0.199127 0.044005 -0.065527
v 0.057552 0.418505 -0.065527
v 0.033200 0.343113 -0.065527
v 0.030259 0.425869 -0.065527
v 0.060492 0.335745 -0.065527
v 0.024332 0.252209 -0.065527
v 0.051628 0.244841 -0.065527
v -0.002831 0.166245 -0.065527
v 0.024461 0.158877 -0.065527
v -0.020998 0.077857 -0.065527
v -0.048251 0.085221 -0.065527
v -0.071609 0.009561 -0.065527
v -0.098905 0.016929 -0.065527
v -0.142939 0.472661 -0.065527
v -0.167290 0.397269 -0.065527
v -0.170231 0.480029 -0.065527
v -0.140038 0.389901 -0.065527
v -0.176158 0.306365 -0.065527
v -0.148905 0.299001 -0.065527
v -0.203321 0.220401 -0.065527
v -0.176072 0.213037 -0.065527
v -0.221489 0.132013 -0.065527
v -0.248784 0.139377 -0.065527
v -0.272142 0.063717 -0.065527
v -0.299392 0.071085 -0.065527
vn 0.9997 0.0255 -0.0000
vn 0.9994 -0.0341 -0.0000
vn 0.9791 -0.2033 -0.0000
vn 0.9154 -0.4026 -0.0000
vn 0.9153 -0.4027 -0.0000
vn 0.8404 -0.5420 -0.0000
vn 0.9808 -0.1951 -0.0000
vn 0.9715 0.2372 -0.0000
vn 0.9527 -0.3040 -0.0000
vn 0.2632 0.9647 -0.0000
vn -0.5302 0.8479 -0.0000
vn -0.6459 0.7634 -0.0000
vn -0.6458 0.7635 -0.0000
vn -0.0000 -0.0000 1.0000
vn -0.0000 -0.0003 1.0000
vn 0.0509 0.1806 0.9822
vn 0.0292 0.1028 0.9943
vn 0.0728 0.2675 0.9608
vn 0.0728 0.2681 0.9606
vn -0.9527 0.3040 -0.0000
vn -0.9527 0.3039 -0.0000
vn -0.9997 -0.0255 -0.0000
vn -0.9994 0.0341 -0.0000
vn -0.9791 0.2033 -0.0000
vn -0.9154 0.4026 -0.0000
vn -0.8404 0.5420 -0.0000
vn -0.2633 -0.9647 -0.0000
vn -0.0000 -0.0000 -1.0000
vn -0.0000 0.0003 -1.0000
vn -0.0000 0.0005 -1.0000
vn 0.0509 0.1806 -0.9822
vn 0.0292 0.1024 -0.9943
vn 0.0728 0.2677 -0.9607
vn 0.0728 0.2674 -0.9608
vn 0.9994 0.0340 -0.0000
vn 0.9994 -0.0340 -0.0000
vn 0.8404 -0.5419 -0.0000
vn 0.8031 -0.5958 -0.0000
vn 0.8034 -0.5954 -0.0000
vn 0.8405 -0.5419 -0.0000
vn 0.8032 -0.5957 -0.0000
vn 0.9994 0.0339 -0.0000
vn 0.2633 0.9647 -0.0000
vn -0.0000 0.0005 1.0000
vn -0.0000 0.0003 1.0000
vn -0.0000 0.0006 1.0000
vn -0.9994 -0.0340 -0.0000
vn -0.9994 0.0340 -0.0000
vn -0.9154 0.4027 -0.0000
vn -0.8032 0.5957 -0.0000
vn -0.8034 0.5954 -0.0000
vn -0.9994 -0.0341 -0.0000
vn -0.9153 0.4027 -0.0000
vn -0.8033 0.5956 -0.0000
vn -0.8035 0.5954 -0.0000
vn -0.8404 0.5419 -0.0000
vn -0.8034 0.5955 -0.0000
vn -0.2632 -0.9647 -0.0000
vn -0.2632 -0.9648 -0.0000
vn -0.0000 -0.0006 -1.0000
vn -0.0000 -0.0005 -1.0000
vn -0.0000 -0.0003 -1.0000
vn -0.0000 0.0006 -1.0000
vt 13.980800 -50.927799
vt 14.019200 -50.958199
vt 14.019200 -50.927799
vt 13.980800 -50.958199
vt 14.019200 -50.987701
vt 13.980800 -50.987701
vt 14.019200 -51.015499
vt 13.980800 -51.015499
vt 14.019200 -51.041698
vt 13.980800 -51.041698
vt 14.019200 -51.067001
vt 13.980800 -51.067001
vt 13.976900 -51.082001
vt 14.023100 -51.082001
vt 13.976900 -51.098099
vt 14.023100 -51.098099
vt 13.926100 -51.019199
vt 14.014700 -51.019199
vt 14.014700 -50.980801
vt 13.926100 -50.980801
vt 14.069800 -51.023102
vt 14.055400 -50.980801
vt 14.055400 -51.019199
vt 14.069800 -50.976898
vt 14.031800 -51.098099
vt 13.930200 -51.050900
vt 13.925500 -51.067001
vt 14.036600 -51.082001
vt 13.985900 -50.932301
vt 14.073900 -50.927799
vt 13.985300 -50.901901
vt 14.074500 -50.958199
vt 13.983300 -50.961800
vt 14.071900 -50.987701
vt 14.063800 -51.015499
vt 13.975200 -50.989700
vt 14.050100 -51.041698
vt 13.961500 -51.015900
vt 14.033200 -51.067001
vt 13.944600 -51.041199
vt 13.976900 -51.067001
vt 14.023100 -51.050900
vt 13.976900 -51.050900
vt 14.023100 -51.067001
vt 13.980800 -50.901901
vt 13.980800 -50.932301
vt 14.019200 -50.932301
vt 14.019200 -50.901901
vt 14.019200 -50.961800
vt 13.980800 -50.961800
vt 14.019200 -50.989700
vt 13.980800 -50.989700
vt 14.019200 -51.015900
vt 13.980800 -51.015900
vt 14.019200 -51.041199
vt 13.980800 -51.041199
vt 13.925500 -51.023102
vt 14.031800 -51.023102
vt 14.031800 -50.976898
vt 13.925500 -50.976898
vt 13.968200 -51.098099
vt 14.069800 -51.050900
vt 13.963400 -51.082001
vt 14.074500 -51.067001
vt 13.926100 -50.927799
vt 14.014100 -50.932301
vt 14.014700 -50.901901
vt 13.925500 -50.958199
vt 14.016700 -50.961800
vt 13.928100 -50.987701
vt 13.936200 -51.015499
vt 14.024800 -50.989700
vt 13.949900 -51.041698
vt 14.038500 -51.015900
vt 13.966800 -51.067001
vt 14.055400 -51.041199
vt 40.020500 1.054280
vt 39.979500 1.054280
vt 40.020500 1.028420
vt 39.979500 1.028420
vt 40.020500 1.000010
vt 39.979500 1.000010
vt 40.020500 0.973151
vt 39.979500 0.973151
vt 40.020500 0.947831
vt 39.979500 0.947831
vt 40.020500 0.926490
vt 39.979500 0.926490
vt 40.020500 1.062750
vt 39.979500 1.062750
vt 40.020500 1.036880
vt 39.979500 1.036880
vt 40.020500 1.008480
vt 39.979500 1.008480
vt 40.020500 0.981613
vt 39.979500 0.981613
vt 40.020500 0.956293
vt 39.979500 0.956293
vt 40.020500 0.934952
vt 39.979500 0.934952
vt 40.020500 1.071210
vt 39.979500 1.071210
vt 40.020500 1.045350
vt 39.979500 1.045350
vt 40.020500 1.016940
vt 39.979500 1.016940
vt 40.020500 0.990075
vt 39.979500 0.990075
vt 40.020500 0.964755
vt 39.979500 0.964755
vt 40.020500 0.943414
vt 39.979500 0.943414
vt 39.985699 0.979481
vt 39.985699 1.020520
vt 39.977798 0.979481
vt 39.977798 1.020520
vt 39.956699 0.979481
vt 39.956699 1.020520
vt 39.948799 0.979481
vt 39.948799 1.020520
vt 40.014702 0.979481
vt 40.014702 1.020520
vt 40.006802 0.979481
vt 40.006802 1.020520
vt 40.015099 1.039190
vt 40.022202 1.062750
vt 40.014301 1.065050
vt 40.022999 1.036880
vt 40.012600 1.010780
vt 40.012600 0.981613
vt 40.004700 0.983915
vt 39.999500 0.956293
vt 39.991600 0.958595
vt 39.984901 0.934952
vt 39.977001 0.937254
vt 40.044102 1.030720
vt 40.051201 1.054280
vt 40.043301 1.056590
vt 40.051998 1.028420
vt 40.041599 1.002320
vt 40.049400 1.000010
vt 40.033699 0.975453
vt 40.041599 0.973151
vt 40.028500 0.947831
vt 40.020599 0.950133
vt 40.013802 0.926490
vt 40.005901 0.928792
vt 39.986198 1.047650
vt 39.993198 1.071210
vt 39.985298 1.073510
vt 39.994099 1.045350
vt 39.983601 1.019240
vt 39.991501 1.016940
vt 39.975800 0.992377
vt 39.983601 0.990075
vt 39.970501 0.964755
vt 39.962601 0.967057
vt 39.955898 0.943414
vt 39.948002 0.945716
vt 39.979500 1.073510
vt 39.979500 1.047650
vt 40.020500 1.047650
vt 40.020500 1.073510
vt 40.020500 1.019240
vt 39.979500 1.019240
vt 40.020500 0.992377
vt 39.979500 0.992377
vt 40.020500 0.967057
vt 39.979500 0.967057
vt 40.020500 0.945716
vt 39.979500 0.945716
vt 39.979500 1.065050
vt 39.979500 1.039190
vt 40.020500 1.039190
vt 40.020500 1.065050
vt 40.020500 1.010780
vt 39.979500 1.010780
vt 40.020500 0.983915
vt 39.979500 0.983915
vt 40.020500 0.958595
vt 39.979500 0.958595
vt 40.020500 0.937254
vt 39.979500 0.937254
vt 39.979500 1.056590
vt 39.979500 1.030720
vt 40.020500 1.030720
vt 40.020500 1.056590
vt 40.020500 1.002320
vt 39.979500 1.002320
vt 40.020500 0.975453
vt 39.979500 0.975453
vt 40.020500 0.950133
vt 39.979500 0.950133
vt 40.020500 0.928792
vt 39.979500 0.928792
vt 39.984901 0.979481
vt 39.984901 1.020520
vt 39.977001 0.979481
vt 39.977001 1.020520
vt 40.013802 0.979481
vt 40.013802 1.020520
vt 40.005901 0.979481
vt 40.005901 1.020520
vt 39.955898 0.979481
vt 39.955898 1.020520
vt 39.948002 0.979481
vt 39.948002 1.020520
vt 39.977798 1.062750
vt 39.984901 1.039190
vt 39.985699 1.065050
vt 39.977001 1.036880
vt 39.987400 1.010780
vt 39.987400 0.981613
vt 39.995300 0.983915
vt 40.000500 0.956293
vt 40.008400 0.958595
vt 40.015099 0.934952
vt 40.022999 0.937254
vt 39.948799 1.054280
vt 39.955898 1.030720
vt 39.956699 1.056590
vt 39.948002 1.028420
vt 39.958401 1.002320
vt 39.950600 1.000010
vt 39.966301 0.975453
vt 39.958401 0.973151
vt 39.971500 0.947831
vt 39.979401 0.950133
vt 39.986198 0.926490
vt 39.994099 0.928792
vt 40.006802 1.071210
vt 40.013802 1.047650
vt 40.014702 1.073510
vt 40.005901 1.045350
vt 40.016399 1.019240
vt 40.008499 1.016940
vt 40.024200 0.992377
vt 40.016399 0.990075
vt 40.029499 0.964755
vt 40.037399 0.967057
vt 40.044102 0.943414
vt 40.051998 0.945716
s 1
usemtl Meshpart1Mtl.008
f 1/1/1 2/2/2 3/3/1
f 2/2/2 1/1/1 4/4/2
f 4/4/2 5/5/3 2/2/2
f 5/5/3 4/4/2 6/6/3
f 6/6/3 7/7/4 5/5/3
f 7/7/4 6/6/3 8/8/5
f 7/7/4 8/8/5 9/9/6
f 9/9/6 8/8/5 10/10/6
f 9/9/6 10/10/6 11/11/7
f 11/11/7 10/10/6 12/12/7
f 11/11/7 12/12/7 13/13/8
f 13/13/8 14/14/8 11/11/7
f 15/15/9 16/16/9 17/14/9
f 17/14/9 18/13/9 15/15/9
f 19/17/10 20/18/10 21/19/10
f 19/17/10 21/19/10 22/20/10
f 25/21/11 23/22/12 24/23/13
f 23/22/12 25/21/11 26/24/11
f 27/25/14 28/26/14 29/27/14
f 28/26/14 27/25/14 30/28/15
f 31/29/14 32/30/14 33/31/14
f 32/30/14 31/29/14 34/32/14
f 35/33/14 34/32/14 31/29/14
f 34/32/14 35/33/14 36/34/14
f 37/35/14 36/34/14 35/33/14
f 38/36/14 37/35/14 35/33/14
f 39/37/14 37/35/14 38/36/14
f 40/38/14 39/37/14 38/36/14
f 41/39/16 39/37/14 40/38/14
f 42/40/17 41/39/16 40/38/14
f 42/40/17 43/28/18 41/39/16
f 43/28/18 42/40/17 44/26/19
f 45/41/20 46/42/21 47/43/20
f 46/42/21 45/41/20 48/44/20
f 49/45/22 50/46/23 51/47/23
f 49/45/22 51/47/23 52/48/22
f 50/46/23 53/49/24 51/47/23
f 50/46/23 54/50/24 53/49/24
f 54/50/24 55/51/25 53/49/24
f 54/50/24 56/52/25 55/51/25
f 56/52/25 57/53/26 55/51/25
f 56/52/25 58/54/26 57/53/26
f 58/54/26 59/55/12 57/53/26
f 58/54/26 60/56/12 59/55/12
f 61/57/27 62/58/27 63/59/27
f 61/57/27 63/59/27 64/60/27
f 65/61/28 66/62/29 67/63/28
f 66/62/29 65/61/28 68/64/30
f 69/65/28 70/66/28 71/67/28
f 70/66/28 69/65/28 72/68/28
f 72/68/28 73/69/28 70/66/28
f 73/69/28 72/68/28 74/70/28
f 75/71/28 73/69/28 74/70/28
f 73/69/28 75/71/28 76/72/28
f 77/73/28 76/72/28 75/71/28
f 76/72/28 77/73/28 78/74/28
f 79/75/31 78/74/28 77/73/28
f 78/74/28 79/75/31 80/76/32
f 81/63/33 80/76/32 79/75/31
f 81/63/33 82/62/34 80/76/32
usemtl Meshpart2Mtl.006
f 83/77/35 84/78/35 85/79/36
f 85/79/36 84/78/35 86/80/36
f 86/80/36 87/81/3 85/79/36
f 87/81/3 86/80/36 88/82/3
f 87/81/3 88/82/3 89/83/4
f 89/83/4 88/82/3 90/84/4
f 89/83/4 90/84/4 91/85/6
f 91/85/6 90/84/4 92/86/37
f 91/85/6 92/86/37 93/87/38
f 93/87/38 92/86/37 94/88/39
f 95/89/35 96/90/35 97/91/36
f 97/91/36 96/90/35 98/92/36
f 97/91/36 98/92/36 99/93/3
f 99/93/3 98/92/36 100/94/3
f 100/94/3 101/95/4 99/93/3
f 101/95/4 100/94/3 102/96/5
f 101/95/4 102/96/5 103/97/40
f 103/97/40 102/96/5 104/98/37
f 103/97/40 104/98/37 105/99/41
f 105/99/41 104/98/37 106/100/41
f 107/101/42 108/102/35 109/103/36
f 109/103/36 108/102/35 110/104/36
f 110/104/36 111/105/3 109/103/36
f 111/105/3 110/104/36 112/106/3
f 112/106/3 113/107/5 111/105/3
f 113/107/5 112/106/3 114/108/4
f 113/107/5 114/108/4 115/109/40
f 115/109/40 114/108/4 116/110/6
f 115/109/40 116/110/6 117/111/41
f 117/111/41 116/110/6 118/112/41
f 119/113/10 120/114/43 121/115/10
f 121/115/10 120/114/43 122/116/10
f 123/117/43 124/118/10 125/119/10
f 125/119/10 124/118/10 126/120/10
f 127/121/43 128/122/10 129/123/43
f 129/123/43 128/122/10 130/124/10
f 131/125/14 132/126/44 133/127/44
f 132/126/44 131/125/14 134/128/14
f 135/129/14 134/128/14 131/125/14
f 134/128/14 135/129/14 136/93/15
f 137/130/14 136/93/15 135/129/14
f 135/129/14 138/131/45 137/130/14
f 139/132/14 137/130/14 138/131/45
f 138/131/45 140/133/14 139/132/14
f 141/134/14 139/132/14 140/133/14
f 140/133/14 142/135/14 141/134/14
f 143/136/14 144/137/14 145/138/14
f 144/137/14 143/136/14 146/139/14
f 147/140/14 146/139/14 143/136/14
f 146/139/14 147/140/14 148/141/14
f 149/142/14 148/141/14 147/140/14
f 148/141/14 149/142/14 150/143/15
f 151/144/15 150/143/15 149/142/14
f 149/142/14 152/145/14 151/144/15
f 153/146/44 151/144/15 152/145/14
f 152/145/14 154/147/46 153/146/44
f 155/148/45 156/149/14 157/150/14
f 156/149/14 155/148/45 158/151/14
f 159/152/14 158/151/14 155/148/45
f 158/151/14 159/152/14 160/153/14
f 161/154/14 160/153/14 159/152/14
f 160/153/14 161/154/14 162/155/14
f 163/156/15 162/155/14 161/154/14
f 161/154/14 164/157/14 163/156/15
f 165/158/45 163/156/15 164/157/14
f 164/157/14 166/159/46 165/158/45
f 167/160/47 168/161/48 169/162/48
f 167/160/47 169/162/48 170/163/47
f 168/161/48 171/164/24 169/162/48
f 168/161/48 172/165/24 171/164/24
f 172/165/24 173/166/25 171/164/24
f 172/165/24 174/167/49 173/166/25
f 174/167/49 175/168/26 173/166/25
f 174/167/49 176/169/26 175/168/26
f 176/169/26 177/170/50 175/168/26
f 178/171/51 177/170/50 176/169/26
f 179/172/52 180/173/48 181/174/48
f 179/172/52 181/174/48 182/175/52
f 180/173/48 183/176/24 181/174/48
f 180/173/48 184/177/24 183/176/24
f 184/177/24 185/178/25 183/176/24
f 184/177/24 186/179/53 185/178/25
f 186/179/53 187/180/26 185/178/25
f 186/179/53 188/181/26 187/180/26
f 188/181/26 189/182/54 187/180/26
f 190/183/55 189/182/54 188/181/26
f 191/184/47 192/185/48 193/186/48
f 191/184/47 193/186/48 194/187/47
f 192/185/48 195/188/24 193/186/48
f 192/185/48 196/189/24 195/188/24
f 196/189/24 197/190/25 195/188/24
f 196/189/24 198/191/25 197/190/25
f 198/191/25 199/192/26 197/190/25
f 198/191/25 200/193/56 199/192/26
f 200/193/56 201/194/50 199/192/26
f 202/195/57 201/194/50 200/193/56
f 203/196/58 204/197/58 205/198/58
f 205/198/58 204/197/58 206/199/58
f 207/200/59 208/201/58 209/202/59
f 209/202/59 208/201/58 210/203/58
f 211/204/58 212/205/58 213/206/58
f 213/206/58 212/205/58 214/207/58
f 215/208/29 216/209/28 217/210/29
f 216/209/28 215/208/29 218/211/28
f 218/211/28 219/212/28 216/209/28
f 219/212/28 218/211/28 220/94/28
f 221/213/28 219/212/28 220/94/28
f 219/212/28 221/213/28 222/214/28
f 223/215/28 222/214/28 221/213/28
f 222/214/28 223/215/28 224/216/28
f 225/217/60 224/216/28 223/215/28
f 224/216/28 225/217/60 226/218/61
f 227/219/28 228/220/28 229/221/28
f 228/220/28 227/219/28 230/222/28
f 230/222/28 231/223/28 228/220/28
f 231/223/28 230/222/28 232/224/28
f 232/224/28 233/225/62 231/223/28
f 233/225/62 232/224/28 234/226/62
f 235/227/28 233/225/62 234/226/62
f 233/225/62 235/227/28 236/228/28
f 237/229/30 236/228/28 235/227/28
f 236/228/28 237/229/30 238/230/63
f 239/231/28 240/232/28 241/233/28
f 240/232/28 239/231/28 242/234/28
f 242/234/28 243/235/28 240/232/28
f 243/235/28 242/234/28 244/236/28
f 244/236/28 245/237/28 243/235/28
f 245/237/28 244/236/28 246/238/28
f 247/239/28 245/237/28 246/238/28
f 245/237/28 247/239/28 248/240/28
f 249/241/28 248/240/28 247/239/28
f 248/240/28 249/241/28 250/242/28
