# Blender 5.1.2
# www.blender.org
mtllib IceCream.mtl
o IceCream
v 0.223698 -0.331417 -0.023029
v 0.223698 -0.331417 -0.067804
v 0.153439 -0.331417 -0.067804
v 0.223698 -0.331417 -0.067804
v 0.223698 -0.331417 -0.023029
v 0.223698 -1.094908 -0.067804
v -0.151943 -1.213040 -0.067804
v -0.151943 -0.331417 -0.067804
v -0.149374 -0.331417 -0.065710
v -0.151943 -0.331417 -0.067804
v -0.151943 -1.213040 -0.067804
v -0.222209 -1.114843 -0.067804
v -0.151943 -0.331417 -0.067804
v -0.222209 -0.331417 -0.067804
v -0.222209 -0.331417 -0.023029
v -0.222209 -0.331417 -0.067804
v 0.044260 -1.237960 -0.067804
v 0.044260 -0.331417 -0.067804
v 0.046830 -1.237568 -0.065710
v 0.044260 -0.331417 -0.067804
v 0.044260 -1.237960 -0.067804
v 0.021083 -0.331417 -0.067804
v 0.044260 -0.331417 -0.067804
v 0.021083 -0.331417 -0.067804
v 0.046829 -0.331417 -0.065710
v 0.153439 -0.331417 -0.067804
v 0.223698 -0.331417 -0.067804
v 0.223698 -1.094908 -0.067804
v -0.042757 -0.331417 -0.067804
v -0.042757 -1.239052 -0.067804
v -0.045325 -1.238660 -0.065710
v -0.042757 -1.239052 -0.067804
v -0.042757 -0.331417 -0.067804
v -0.042757 -0.331417 -0.067804
v -0.045325 -0.331417 -0.065710
v 0.153439 -1.209610 -0.067804
v -0.222209 -1.114843 -0.067804
v -0.211359 -1.145147 -0.067804
v -0.222209 -1.114843 0.066565
v -0.211359 -1.145147 -0.067804
v -0.222209 -0.331417 -0.067804
v -0.222209 -1.114843 -0.067804
v -0.222209 -0.331417 -0.023029
v -0.173090 -1.202820 -0.067804
v -0.172872 -1.203016 -0.067804
v -0.172872 -1.203016 -0.062933
v -0.172872 -1.203016 -0.067804
v -0.173090 -1.202820 -0.067804
v -0.172872 -1.203016 -0.067804
v -0.151943 -1.213040 -0.067804
v -0.172872 -1.203016 -0.062933
v -0.002828 -1.245128 -0.067804
v -0.002828 -1.245128 -0.067804
v 0.044260 -1.237960 -0.067804
v 0.046830 -1.237568 -0.065710
v 0.205701 -1.145147 -0.067804
v 0.223698 -1.094908 -0.067804
v 0.205701 -1.145147 0.066565
v 0.205701 -1.145147 -0.067804
v 0.167439 -1.202820 -0.067804
v 0.153439 -0.331417 -0.067804
v 0.153439 -1.209610 -0.067804
v 0.150870 -0.331417 -0.065710
v -0.042757 -1.239052 -0.067804
v -0.002828 -1.245128 -0.067804
v -0.045325 -1.238660 -0.065710
v -0.050345 -0.331417 0.061694
v -0.055728 -0.331417 0.060968
v -0.055728 -0.331417 0.060968
v -0.055728 -0.331417 -0.062933
v 0.046829 -0.331417 0.063788
v -0.041812 -0.331417 0.066565
v 0.043308 -0.331417 0.066565
v -0.045325 -0.331417 0.063788
v -0.055728 -0.331417 0.060968
v -0.055728 -0.331417 0.060968
v -0.055728 -0.968789 0.060968
v -0.055728 -0.331417 0.060968
v 0.057231 -0.331417 0.060968
v 0.057231 -0.331417 -0.062933
v 0.057231 -0.331417 -0.062933
v 0.057231 -0.331417 0.060968
v 0.057231 -0.331417 0.060968
v 0.057231 -0.331417 0.060968
v 0.057231 -1.235986 0.060968
v 0.057231 -0.331417 0.060968
v 0.145851 -0.331417 -0.063617
v 0.150870 -0.331417 -0.065710
v 0.140468 -0.331417 0.060968
v 0.145851 -0.331417 0.061694
v 0.140468 -0.331417 0.060968
v 0.145851 -1.213250 0.061694
v 0.140468 -0.331417 0.060968
v 0.145851 -0.331417 0.061694
v 0.150870 -0.331417 0.063788
v 0.154391 -0.331417 0.066565
v 0.223698 -0.331417 0.066565
v 0.140468 -0.331417 -0.062933
v -0.138964 -0.331417 -0.062933
v -0.144355 -0.331417 0.061694
v -0.138964 -0.331417 -0.062933
v -0.138964 -0.659382 -0.062933
v -0.144355 -0.331417 -0.063617
v -0.138964 -0.331417 -0.062933
v -0.138964 -0.331417 -0.062933
v -0.138964 -0.659382 -0.062933
v -0.138964 -0.331417 -0.062933
v -0.144355 -0.331417 -0.063617
v -0.138964 -0.707234 -0.062933
v -0.149374 -0.331417 -0.065710
v 0.140468 -0.331417 -0.062933
v 0.057231 -0.331417 -0.062933
v 0.057231 -0.659382 -0.062933
v 0.057231 -0.331417 -0.062933
v 0.057231 -0.331417 -0.062933
v 0.057231 -1.235986 -0.062933
v 0.057231 -0.331417 -0.062933
v 0.051848 -0.331417 0.061694
v 0.051848 -0.331417 -0.063617
v 0.046829 -0.331417 -0.065710
v 0.140468 -0.331417 0.060968
v -0.050345 -0.331417 -0.063617
v -0.045325 -0.331417 -0.065710
v -0.055728 -0.331417 -0.062933
v -0.138964 -0.331417 0.060968
v -0.138964 -0.331417 -0.062933
v -0.055728 -0.331417 -0.062933
v -0.138964 -0.659382 -0.062933
v -0.222209 -1.114843 0.066565
v -0.222209 -0.331417 0.066565
v -0.222209 -0.331417 0.066565
v -0.222209 -1.114843 0.066565
v -0.152888 -0.331417 0.066565
v -0.211359 -1.145147 0.066565
v -0.211359 -1.145147 0.066565
v -0.152888 -1.212584 0.066565
v -0.173090 -1.202820 0.066565
v -0.152888 -1.212584 0.066565
v -0.172872 -1.203016 0.066565
v -0.149374 -1.214272 0.063788
v -0.172872 -1.203016 0.066565
v -0.152888 -0.331417 0.066565
v -0.152888 -1.212584 0.066565
v -0.149374 -0.331417 0.063788
v 0.043308 -1.238106 0.066565
v -0.041812 -0.331417 0.066565
v -0.041812 -1.239192 0.066565
v 0.043308 -0.331417 0.066565
v -0.041812 -1.239192 0.066565
v -0.041812 -0.331417 0.066565
v -0.045325 -1.238660 0.063788
v -0.002828 -1.245128 0.066565
v -0.041812 -1.239192 0.066565
v -0.045325 -1.238660 0.063788
v -0.002828 -1.245128 0.066565
v 0.043308 -0.331417 0.066565
v 0.043308 -1.238106 0.066565
v 0.046830 -1.237568 0.063788
v 0.154391 -1.209162 0.066565
v 0.205701 -1.145147 0.066565
v 0.223698 -1.094908 0.066565
v 0.167439 -1.202820 0.066565
v 0.223698 -1.094908 0.066565
v 0.167439 -1.202820 0.066565
v 0.167222 -1.203016 0.066565
v 0.167439 -1.202820 -0.067804
v 0.167222 -1.203016 0.066565
v 0.154391 -1.209162 0.066565
v 0.154391 -0.331417 0.066565
v 0.150870 -0.331417 0.063788
v 0.154391 -0.331417 0.066565
v 0.167222 -1.203016 0.066565
v 0.154391 -1.209162 0.066565
v 0.150870 -1.210842 0.063788
v -0.050345 -0.331417 0.061694
v -0.055728 -0.331417 0.060968
v -0.138964 -0.331418 0.060968
v -0.138964 -1.219256 0.060968
v -0.138964 -0.331418 0.060968
v -0.055728 -1.005917 0.060968
v -0.055728 -0.331417 0.060968
v -0.055728 -0.331417 0.060968
v -0.055728 -1.005917 0.060968
v 0.057231 -1.235986 0.060968
v 0.057231 -1.235986 0.060968
v 0.057231 -0.331417 0.060968
v 0.057231 -1.235986 0.060968
v 0.140469 -1.215826 0.060968
v 0.140468 -0.331417 0.060968
v 0.140469 -1.215826 0.060968
v 0.140469 -1.215826 0.060968
v 0.140468 -0.331417 0.060968
v 0.140469 -1.215826 0.060968
v -0.138964 -1.005917 -0.062933
v -0.144355 -1.216673 -0.063617
v -0.138964 -1.219256 -0.062933
v -0.138964 -1.219256 -0.062933
v 0.057231 -1.235986 -0.062933
v 0.057231 -1.235986 -0.062933
v 0.057231 -0.659382 -0.062933
v 0.057231 -0.331417 -0.062933
v 0.140468 -0.331417 -0.062933
v -0.055728 -1.237078 -0.062933
v -0.055728 -1.237078 -0.062933
v -0.055728 -0.331417 -0.062933
v -0.055728 -0.331417 -0.062933
v -0.138964 -0.331417 0.060968
v -0.144355 -1.216673 0.061694
v -0.138964 -1.219256 0.060968
v -0.144355 -0.331417 0.061694
v -0.055728 -1.005917 0.060968
v -0.050345 -1.237897 0.061694
v -0.045325 -0.331417 0.063788
v -0.055728 -1.237078 0.060968
v 0.057231 -0.331417 0.060968
v 0.057231 -1.235986 0.060968
v 0.140469 -1.215826 0.060968
v -0.149374 -1.214272 -0.065710
v 0.205701 -1.145147 -0.067804
v 0.205701 -1.145147 0.066565
v 0.167439 -1.202820 -0.067804
v 0.167439 -1.202820 0.066565
v 0.167222 -1.203016 -0.067804
v 0.167222 -1.203016 -0.067804
v 0.117557 -1.226802 -0.023029
v -0.173090 -1.202820 -0.067804
v -0.173090 -1.202820 0.066565
v -0.211359 -1.145147 -0.067804
v -0.173090 -1.202820 0.066565
v -0.211359 -1.145147 0.066565
v -0.138964 -0.331418 0.060968
v -0.138964 -1.219256 -0.062933
v -0.123208 -1.226802 0.060968
v -0.138964 -1.219256 0.060968
v -0.123208 -1.226802 -0.062933
v -0.144355 -1.216673 0.061694
v -0.172872 -1.203016 0.066565
v -0.149374 -1.214272 0.063788
v -0.144355 -1.216673 -0.063617
v -0.138964 -1.219256 0.060968
v -0.055728 -1.237078 0.060968
v -0.050345 -1.237897 0.061694
v -0.123208 -1.226802 0.060968
v -0.055728 -1.237078 0.060968
v -0.055728 -1.237078 0.060968
v -0.055728 -1.237078 0.060968
v -0.055728 -1.237078 0.060968
v -0.055728 -1.237078 0.060968
v -0.055728 -1.237078 0.060968
v -0.123208 -1.226802 0.060968
v -0.055728 -1.237078 -0.062933
v -0.055728 -1.237078 -0.062933
v 0.057231 -0.331417 0.060968
v 0.051848 -0.331417 0.061694
v 0.057231 -1.235986 0.060968
v 0.057231 -1.235986 -0.062933
v 0.117557 -1.226802 -0.023029
v 0.057231 -1.235986 0.060968
v 0.057231 -1.235986 -0.062933
v 0.051848 -1.236805 -0.063617
v 0.051848 -1.236805 0.061694
v -0.050345 -1.237897 -0.063617
v 0.046830 -1.237568 0.063788
v 0.043308 -1.238106 0.066565
v -0.002828 -1.245128 0.066565
v 0.046829 -0.331417 0.063788
v 0.051848 -1.236805 0.061694
v 0.145851 -1.213250 0.061694
v 0.140469 -1.215826 0.060968
v 0.140469 -1.215826 0.060968
v 0.150870 -1.210842 0.063788
v 0.117557 -1.226802 0.060968
v 0.117557 -1.226802 -0.062933
v 0.140469 -1.215826 0.060968
v 0.117557 -1.226802 0.060968
v 0.117557 -1.226802 0.060968
v 0.140468 -0.331417 0.060968
v 0.140468 -0.331417 0.060968
v -0.123208 -1.226802 -0.062933
v -0.138964 -1.219256 -0.062933
v -0.123208 -1.226802 -0.062933
v -0.138964 -1.219256 -0.062933
v -0.138964 -1.219256 -0.062933
v -0.149374 -1.214272 -0.065710
v 0.057231 -1.235986 -0.062933
v 0.051848 -0.331417 -0.063617
v 0.057231 -1.235986 -0.062933
v 0.057231 -1.235986 -0.062933
v 0.140469 -1.215826 -0.062933
v 0.051848 -1.236805 -0.063617
v 0.150870 -1.210842 -0.065710
v 0.153439 -1.209610 -0.067804
v 0.150870 -1.210842 -0.065710
v 0.145851 -0.331417 -0.063617
v 0.145851 -1.213250 -0.063617
v 0.145851 -1.213250 -0.063617
v 0.140469 -1.215826 -0.062933
v 0.140468 -0.331417 -0.062933
v 0.140469 -1.215826 -0.062933
v 0.140468 -0.331417 -0.062933
v 0.117557 -1.226802 -0.062933
v 0.140469 -1.215826 -0.062933
v 0.140469 -1.215826 -0.062933
v 0.117557 -1.226802 -0.062933
v -0.050345 -1.237897 -0.063617
v -0.050345 -0.331417 -0.063617
v -0.055728 -1.237078 -0.062933
v 0.223698 -1.094908 0.066565
v 0.223698 -0.331417 0.066565
v 0.223698 -0.331417 0.066565
v 0.167222 -1.203016 -0.067804
v -0.152888 -0.331417 0.066565
v -0.222209 -0.331417 0.066565
v -0.149374 -0.331417 0.063788
v -0.138964 -1.219256 0.060968
v 0.057231 -1.235986 0.060968
vn -0.0000 1.0000 -0.0000
vn 1.0000 -0.0000 -0.0000
vn 0.6285 -0.0000 -0.7778
vn 0.4970 -0.0000 -0.8678
vn -0.0000 -0.0000 -1.0000
vn -0.0000 0.0001 -1.0000
vn -0.0000 -0.0002 -1.0000
vn -0.6285 -0.0000 -0.7778
vn -0.4970 -0.0000 -0.8678
vn -0.9224 -0.3863 -0.0000
vn -0.0000 -0.0001 -1.0000
vn -1.0000 -0.0000 -0.0000
vn -0.6063 -0.7952 -0.0000
vn -0.3863 -0.9224 -0.0000
vn 0.1337 -0.9910 -0.0000
vn 0.9224 -0.3863 -0.0000
vn -0.5029 -0.0000 -0.8643
vn -0.1337 -0.9910 -0.0000
vn -0.0000 -0.0000 1.0000
vn -0.2591 -0.0000 0.9658
vn -0.0001 1.0000 -0.0000
vn 0.2591 -0.0000 -0.9658
vn 0.4970 -0.0000 -0.8677
vn -0.5029 -0.0000 -0.8644
vn -0.0000 -0.0002 1.0000
vn 0.6707 -0.0000 0.7417
vn 0.4970 -0.0000 0.8678
vn -0.6707 -0.0000 0.7417
vn -0.4970 -0.0000 0.8677
vn -0.0000 -0.0001 1.0000
vn -0.0000 0.0001 1.0000
vn 0.6063 -0.7952 -0.0000
vn -0.5029 -0.0000 0.8643
vn 0.3863 -0.9224 -0.0001
vn 0.3863 -0.9224 -0.0000
vn 0.2591 -0.0000 0.9658
vn 0.0001 -0.0000 1.0000
vn -0.2592 -0.0000 0.9658
vn -0.4970 -0.0000 0.8678
vn -0.0000 0.0003 1.0000
vn 0.7953 -0.6063 -0.0000
vn -0.7953 -0.6063 -0.0000
vn 0.1336 -0.9910 -0.0000
vn 0.4970 -0.0000 0.8677
vn 0.3864 -0.9223 -0.0000
vn 0.3864 -0.9224 -0.0000
vn 0.3863 -0.9224 0.0001
vn -0.3863 -0.9224 0.0001
vn -0.3863 -0.9224 -0.0001
vn -0.2592 -0.0000 -0.9658
vn -0.2591 -0.0000 -0.9658
vt 17.996000 -12.960200
vt 17.988100 -12.960200
vt 17.988100 -12.972700
vt 18.011900 -12.918400
vt 18.004000 -12.918400
vt 18.011900 -13.054800
vt 18.027300 -13.075900
vt 18.027300 -12.918400
vt 18.026800 -12.918400
vt 18.039801 -13.058300
vt 17.988100 -13.027300
vt 17.988100 -13.039800
vt 17.996000 -13.039800
vt 18.039801 -12.918400
vt 17.992201 -13.080300
vt 17.992201 -12.918400
vt 17.991800 -13.080200
vt 17.996401 -12.918400
vt 17.988100 -12.992200
vt 17.988100 -12.996400
vt 17.988400 -12.991800
vt 17.972700 -12.918400
vt 17.960199 -12.918400
vt 17.960199 -13.054800
vt 18.007799 -12.918400
vt 18.007799 -13.080500
vt 18.008200 -13.080400
vt 17.988100 -13.007800
vt 17.988400 -13.008200
vt 17.972700 -13.075200
vt 17.988100 -13.058300
vt 17.988100 -13.063700
vt 18.011900 -13.058300
vt 18.037901 -13.063700
vt 17.988100 -12.918400
vt 17.996000 -12.918400
vt 18.011900 -13.031000
vt 18.011101 -13.031000
vt 18.031000 -13.074100
vt 18.031000 -13.074000
vt 18.011900 -13.027300
vt 18.000601 -13.081600
vt 18.011900 -13.000600
vt 18.011900 -12.992200
vt 18.011600 -12.991800
vt 18.011900 -13.063700
vt 17.963400 -13.063700
vt 17.970200 -13.074000
vt 17.973200 -12.918400
vt 18.011900 -13.007800
vt 18.011600 -13.008200
vt 18.011101 -13.009100
vt 18.011000 -13.010100
vt 17.988899 -13.010100
vt 18.011499 -12.991800
vt 18.011900 -13.007600
vt 18.011900 -12.992400
vt 18.011499 -13.008200
vt 17.989901 -12.918400
vt 17.989901 -13.032200
vt 18.011000 -12.989900
vt 17.988899 -12.989900
vt 17.989000 -12.918400
vt 17.989000 -13.079900
vt 17.988800 -12.974100
vt 17.988400 -12.973200
vt 18.011000 -12.975000
vt 18.025900 -12.918400
vt 18.025000 -12.918400
vt 18.025900 -13.075900
vt 18.011101 -12.974100
vt 18.011499 -12.973200
vt 18.011900 -12.972600
vt 18.011900 -12.960200
vt 17.988899 -12.975000
vt 18.011101 -13.010100
vt 17.989000 -13.010100
vt 17.988899 -13.024900
vt 18.011101 -13.025900
vt 17.989000 -12.989900
vt 17.988800 -13.025900
vt 18.024900 -12.918400
vt 18.024900 -12.977000
vt 18.024900 -12.985500
vt 17.988400 -13.026800
vt 17.975100 -12.918400
vt 17.975100 -13.077000
vt 18.011101 -12.990900
vt 17.989901 -13.079900
vt 17.988800 -12.990900
vt 17.991800 -12.918400
vt 17.988800 -13.009100
vt 18.008200 -12.918400
vt 18.011000 -13.024900
vt 18.010099 -12.918400
vt 17.960199 -13.058300
vt 17.972601 -12.918400
vt 17.962099 -13.063700
vt 17.972601 -13.075800
vt 17.969000 -13.074000
vt 17.988100 -13.027400
vt 17.988100 -13.031000
vt 17.988501 -13.026800
vt 17.969000 -13.074100
vt 18.007601 -13.080300
vt 17.992399 -12.918400
vt 17.992399 -13.080500
vt 18.007601 -12.918400
vt 17.991800 -13.080400
vt 17.988100 -13.000600
vt 17.988100 -13.007600
vt 17.988501 -13.008200
vt 17.999399 -13.081600
vt 18.008200 -13.080200
vt 18.027399 -13.075200
vt 18.036600 -13.063700
vt 18.039801 -13.054800
vt 18.029800 -13.074000
vt 17.988100 -13.054800
vt 17.988100 -12.970200
vt 17.988100 -12.970300
vt 18.011900 -12.970200
vt 18.029699 -13.074100
vt 18.027399 -12.918400
vt 17.988100 -12.972600
vt 17.988501 -12.973200
vt 17.990900 -12.918400
vt 18.011000 -13.038900
vt 18.011000 -12.918400
vt 17.989901 -13.038900
vt 18.010099 -13.079900
vt 18.025000 -13.076300
vt 18.011000 -13.076300
vt 18.024900 -13.038900
vt 18.025900 -13.076500
vt 18.024900 -13.077000
vt 18.011499 -13.026800
vt 18.011900 -13.027400
vt 18.011101 -13.079900
vt 18.011101 -12.918400
vt 18.011101 -12.977000
vt 17.989901 -12.977000
vt 17.975000 -12.918400
vt 18.010099 -13.080100
vt 17.974100 -13.076500
vt 17.974100 -12.918400
vt 17.990900 -13.080300
vt 17.989901 -13.080100
vt 18.026800 -13.076100
vt 18.011900 -13.074000
vt 17.988100 -13.074000
vt 18.011900 -12.970300
vt 18.004000 -12.979100
vt 18.011101 -13.024900
vt 17.989000 -13.022100
vt 17.989000 -13.024900
vt 18.011101 -13.022100
vt 17.988899 -13.025900
vt 17.973200 -13.076100
vt 18.011200 -13.025900
vt 17.988899 -13.009100
vt 17.977900 -13.078300
vt 18.011000 -13.080100
vt 18.009100 -12.918400
vt 18.011101 -12.989900
vt 18.011200 -12.990900
vt 17.988899 -12.990900
vt 18.011200 -13.009100
vt 17.988501 -12.991800
vt 17.988100 -12.992400
vt 18.009100 -13.080100
vt 17.988899 -12.974100
vt 17.989000 -12.975000
vt 18.026800 -13.075500
vt 17.989000 -12.979100
vt 18.011101 -12.979100
vt 18.020901 -13.078300
vt 18.011900 -13.039800
vt 18.022100 -13.078300
vt 17.970301 -13.074100
vt 18.011600 -13.026800
vt 17.975000 -13.076300
vt 17.990900 -13.080100
vt 18.011600 -12.973200
vt 18.011900 -12.972700
vt 17.973200 -13.075500
vt 18.011200 -12.974100
vt 17.974100 -13.075900
vt 18.011101 -12.975000
vt 17.979099 -13.078300
vt 18.009100 -13.080300
s 1
usemtl Union1Mtl.004
f 1/1/1 2/2/1 3/3/1
f 4/4/2 5/5/2 6/6/2
f 7/7/3 8/8/3 9/9/4
f 10/8/5 11/7/6 12/10/5
f 13/11/1 14/12/1 15/13/1
f 16/14/5 10/8/5 12/10/5
f 17/15/3 18/16/3 19/17/4
f 20/16/5 21/15/5 22/18/5
f 23/19/1 24/20/1 25/21/1
f 26/22/5 27/23/5 28/24/7
f 29/25/8 30/26/8 31/27/9
f 32/26/5 33/25/5 22/18/5
f 24/20/1 34/28/1 35/29/1
f 26/22/5 28/24/7 36/30/5
f 37/31/10 38/32/10 39/33/10
f 40/34/11 12/10/5 11/7/6
f 41/35/12 42/31/12 43/36/12
f 44/37/13 45/37/13 46/38/13
f 47/39/5 48/40/11 11/7/6
f 49/37/14 50/41/14 51/38/14
f 21/15/5 32/26/5 22/18/5
f 32/26/5 21/15/5 52/42/5
f 53/43/15 54/44/15 55/45/15
f 56/46/16 57/6/16 58/32/16
f 28/24/7 59/47/5 36/30/5
f 36/30/5 59/47/5 60/48/5
f 61/22/8 62/30/8 63/49/17
f 64/50/18 65/43/18 66/51/18
s 0
f 67/52/1 68/53/12 69/53/1
s 1
f 68/53/1 67/52/1 70/54/1
f 71/55/1 72/56/1 73/57/1
f 72/56/1 71/55/1 74/58/1
s 0
f 75/59/2 76/59/19 77/60/19
f 78/53/2 69/53/2 68/53/2
f 79/61/1 80/62/2 81/62/1
f 80/62/1 79/61/2 82/61/1
f 83/63/2 84/63/2 85/64/2
f 86/61/2 82/61/2 79/61/2
s 1
f 87/65/1 1/1/1 88/66/1
f 1/1/1 87/65/1 89/67/1
f 90/68/20 91/69/19 92/70/20
f 93/67/1 94/71/1 1/1/1
f 1/1/1 94/71/1 95/72/1
f 1/1/1 96/73/1 97/74/1
f 96/73/1 1/1/1 95/72/1
f 89/67/1 87/65/1 98/75/1
s 0
f 93/67/1 1/1/21 89/67/2
f 251/76/12 252/76/18 249/77/18
s 1
f 99/78/1 15/13/1 100/79/1
s 0
f 316/80/2 258/80/2 255/80/2
s 1
f 15/13/1 99/78/1 103/81/1
s 0
f 104/82/2 105/82/5 106/83/5
f 99/78/12 107/78/1 103/81/1
s 1
f 108/68/22 104/82/5 109/84/5
f 15/13/1 110/85/1 13/11/1
f 110/85/1 15/13/1 103/81/1
f 80/62/1 82/61/1 111/75/1
s 0
f 231/86/19 209/87/2 315/87/19
s 1
f 79/61/1 81/62/1 118/88/1
s 0
f 114/59/2 115/59/5 116/89/5
f 80/62/2 117/62/2 81/62/2
f 81/62/2 117/62/1 24/20/1
s 1
f 71/55/1 24/20/1 74/58/1
f 24/20/1 71/55/1 118/88/1
f 81/62/1 24/20/1 118/88/1
f 24/20/1 119/90/1 25/21/1
f 119/90/1 24/20/1 117/62/1
f 18/16/3 120/91/23 19/17/4
f 1/1/1 3/3/1 88/66/1
f 121/67/1 111/75/1 82/61/1
s 0
f 111/75/1 121/67/2 89/67/1
s 1
f 67/52/1 122/92/1 70/54/1
f 122/92/1 67/52/1 35/29/1
f 123/93/24 29/25/8 31/27/9
f 35/29/1 67/52/1 74/58/1
f 68/53/1 124/54/1 125/94/1
s 0
f 124/54/1 68/53/1 70/54/2
s 1
f 126/82/5 127/95/5 128/83/5
f 124/54/1 99/78/1 125/94/1
f 129/33/12 43/36/12 42/31/12
f 43/36/12 129/33/12 130/4/12
f 131/23/19 132/96/19 133/97/19
f 134/46/10 39/33/10 38/32/10
f 132/96/19 135/98/19 136/99/25
f 136/99/25 135/98/19 137/100/19
f 132/96/19 136/99/25 133/97/19
f 138/101/14 139/102/14 140/103/14
f 141/104/19 136/99/25 137/100/19
f 142/97/26 143/99/26 144/49/27
f 145/105/19 146/106/19 147/107/19
f 146/106/19 145/105/19 148/108/19
f 149/107/28 150/106/28 151/109/29
f 152/110/18 153/111/18 154/112/18
f 147/107/19 155/113/19 145/105/19
f 156/108/26 157/105/26 158/114/27
f 159/115/30 160/116/19 161/117/31
f 160/116/19 159/115/30 162/118/19
f 163/119/16 58/32/16 57/6/16
f 164/120/32 165/121/32 166/122/32
f 167/123/19 162/118/19 159/115/30
f 168/115/28 169/124/28 170/9/33
f 171/124/19 159/115/30 161/117/31
f 172/121/34 173/125/35 174/126/35
f 75/59/19 77/60/19 175/127/20
f 176/59/19 177/86/19 178/87/19
f 179/94/1 68/53/1 125/94/1
s 0
f 180/128/12 181/129/12 182/129/12
f 76/59/19 183/130/19 77/60/19
f 84/63/2 184/64/2 85/64/2
f 185/131/19 186/95/19 187/131/2
f 188/132/19 91/69/2 189/69/19
s 1
f 91/69/19 188/132/19 92/70/20
s 0
f 188/132/19 189/69/19 190/132/2
f 191/133/12 192/129/12 193/133/12
f 89/67/1 98/75/2 111/75/1
f 109/84/5 104/82/5 106/83/5
s 1
f 109/84/5 194/134/5 195/135/22
s 0
f 194/134/5 109/84/5 196/136/5
s 1
f 15/13/1 314/137/1 100/79/1
s 0
f 106/83/5 196/136/5 109/84/5
s 1
f 15/13/1 312/138/1 314/137/1
s 0
f 198/139/2 112/140/2 113/141/2
f 115/59/5 199/89/2 116/89/5
s 1
f 200/142/5 201/59/5 202/143/5
f 127/95/5 203/144/6 128/83/5
s 0
f 204/144/5 205/95/2 206/95/5
s 1
f 207/86/19 208/145/36 209/87/37
f 208/145/36 207/86/19 210/146/36
s 0
f 211/130/19 77/60/19 183/130/2
s 1
f 77/60/19 211/130/19 212/147/38
f 150/106/28 213/91/39 151/109/29
s 0
f 211/130/2 183/130/19 214/148/19
s 1
f 215/95/19 216/131/40 217/132/30
f 7/7/3 9/9/4 218/149/4
f 219/46/41 220/32/41 221/150/41
f 221/150/41 220/32/41 222/151/41
f 166/122/32 165/121/32 223/152/32
f 224/152/35 172/121/34 225/153/35
f 226/151/42 227/150/42 228/32/42
f 229/102/13 44/37/13 46/38/13
f 227/150/42 230/46/42 228/32/42
s 0
f 207/86/19 209/87/19 231/86/19
s 1
f 232/154/14 233/155/14 234/156/14
f 233/155/14 232/154/14 235/157/14
f 139/102/14 51/38/14 236/158/14
f 46/38/13 237/102/13 229/102/13
f 143/99/26 238/159/27 144/49/27
f 144/49/27 238/159/27 210/146/36
f 236/158/14 140/103/14 139/102/14
f 238/159/27 208/145/36 210/146/36
f 236/158/14 51/38/14 239/160/14
f 240/156/14 236/158/14 239/160/14
s 0
f 241/148/19 211/130/19 214/148/2
s 1
f 211/130/19 241/148/19 212/147/38
f 175/127/20 212/147/38 213/91/39
f 212/147/38 175/127/20 77/60/19
f 154/112/18 242/161/18 66/51/18
f 212/147/38 151/109/29 213/91/39
f 152/110/18 154/112/18 65/43/18
f 178/87/19 243/162/19 244/148/19
s 0
f 245/163/12 180/128/12 246/163/12
f 247/77/12 248/77/12 249/77/12
s 1
f 249/77/18 250/155/18 251/76/18
s 0
f 182/129/12 246/163/12 180/128/12
s 1
f 244/148/19 176/59/19 178/87/19
s 0
f 247/77/12 249/77/18 252/76/18
s 1
f 187/131/19 253/95/19 254/164/36
s 0
f 253/95/19 187/131/19 186/95/2
s 1
f 255/80/15 256/165/15 257/153/15
s 0
f 256/165/43 255/80/2 258/80/43
f 257/153/43 256/165/2 259/165/15
s 1
f 260/166/15 261/167/15 55/45/15
f 261/167/15 260/166/15 258/80/15
f 252/76/18 242/161/18 247/77/18
f 242/161/18 252/76/18 262/168/18
f 263/169/15 264/170/15 265/110/15
f 266/93/44 158/114/27 267/171/36
f 158/114/27 266/93/44 156/108/26
f 261/167/15 263/169/15 55/45/15
f 254/164/36 267/171/36 187/131/19
f 267/171/36 254/164/36 266/93/44
s 0
f 268/172/45 269/173/2 270/173/46
s 1
f 90/68/20 92/70/20 271/174/33
f 225/153/35 270/173/47 272/175/35
f 270/173/47 225/153/35 268/172/35
f 257/153/15 259/165/15 273/176/15
s 0
f 270/173/2 269/173/2 274/173/2
s 1
f 174/126/35 268/172/35 172/121/34
f 170/9/33 271/174/33 168/115/28
f 271/174/33 170/9/33 90/68/20
f 172/121/34 268/172/35 225/153/35
f 255/80/15 257/153/15 275/175/15
f 216/131/40 276/177/19 217/132/30
f 312/138/1 15/13/1 313/178/1
f 99/78/1 100/79/1 125/94/1
s 0
f 277/129/12 193/133/12 192/129/12
s 1
f 217/132/30 278/69/19 215/95/19
f 250/155/18 279/157/18 251/76/18
f 203/144/6 280/136/6 128/83/5
f 280/136/6 203/144/6 281/179/5
f 36/30/5 60/48/5 311/180/5
s 0
f 196/136/2 283/136/5 194/134/5
s 1
f 194/134/5 283/136/5 195/135/22
s 0
f 282/154/12 232/154/48 239/160/14
s 1
f 108/68/22 195/135/22 218/149/4
f 195/135/22 108/68/22 109/84/5
f 234/156/14 239/160/14 232/154/14
s 0
f 239/160/49 234/156/12 240/156/14
s 1
f 239/160/14 51/38/14 284/181/14
f 218/149/4 9/9/4 108/68/22
f 51/38/14 50/41/14 284/181/14
s 0
f 256/165/2 285/165/2 259/165/2
s 1
f 114/59/5 116/89/5 286/127/22
s 0
f 113/141/2 287/139/2 198/139/2
s 1
f 288/89/5 200/142/5 289/182/5
f 260/166/15 256/165/15 258/80/15
f 116/89/5 290/183/22 286/127/22
f 286/127/22 290/183/22 120/91/23
f 66/51/18 65/43/18 154/112/18
f 265/110/15 55/45/15 263/169/15
f 55/45/15 265/110/15 53/43/15
f 290/183/22 19/17/4 120/91/23
f 291/184/35 292/185/35 224/152/35
f 62/30/8 293/186/17 63/49/17
f 63/49/17 293/186/17 294/146/50
f 291/184/35 224/152/35 295/187/35
f 293/186/17 296/188/51 294/146/50
f 295/187/35 224/152/35 225/153/35
f 295/187/35 225/153/35 297/189/35
f 294/146/50 296/188/51 298/143/5
f 296/188/51 299/182/5 298/143/5
s 0
f 298/143/5 299/182/5 300/143/2
s 1
f 297/189/35 225/153/35 301/176/35
s 0
f 302/189/2 297/189/45 301/176/47
f 299/182/2 303/182/5 300/143/5
s 1
f 202/143/5 289/182/5 200/142/5
f 289/182/5 304/190/5 288/89/5
f 123/93/24 31/27/9 305/191/51
f 262/168/18 66/51/18 242/161/18
f 306/164/50 305/191/51 307/144/5
f 305/191/51 306/164/50 123/93/24
s 0
f 206/95/5 307/144/2 204/144/5
s 1
f 307/144/5 206/95/5 306/164/50
f 6/6/2 5/5/2 308/119/2
f 5/5/2 309/35/2 308/119/2
f 161/117/31 310/14/19 171/124/19
f 35/29/1 74/58/1 24/20/1
f 40/34/11 11/7/6 48/40/11
