# Blender 5.1.1
# www.blender.org
mtllib keybow aarow.mtl
o 112691946025878
v -0.039605 -2.116765 -0.095514
v 0.078564 -2.059171 0.000000
v -0.039605 -2.347139 -0.000000
v 0.078564 -2.059171 0.000000
v -0.039605 -2.116765 0.095516
v -0.039605 -2.347139 -0.000000
v -0.157774 -2.059171 -0.000000
v -0.039605 -2.116765 -0.095514
v -0.039605 -2.347139 -0.000000
v -0.039605 -2.116765 0.095516
v -0.157774 -2.059171 -0.000000
v -0.039605 -2.347139 -0.000000
v 0.009632 1.323286 -0.028427
v -0.039605 1.323286 -0.056853
v -0.039605 1.372506 -0.000000
v -0.088842 1.323286 -0.028427
v 0.009632 1.323286 0.028427
v -0.088842 1.323286 0.028427
v -0.039605 1.323286 0.056855
v -0.130240 1.407139 0.203867
v -0.019999 1.275025 0.012927
v -0.063292 1.275025 -0.012068
v -0.173531 1.407139 0.178873
v -0.043246 1.275025 0.024996
v 0.160520 1.380019 0.038924
v 0.177236 1.407139 0.024996
v -0.043246 1.267871 0.038924
v 0.177236 1.407139 -0.024994
v -0.043246 1.275025 -0.024994
v 0.160520 1.380019 -0.038923
v -0.043246 1.267871 -0.038923
v -0.043246 1.275025 -0.024994
v 0.177236 1.407139 -0.024994
v -0.019999 1.275025 0.012927
v -0.130240 1.407139 0.203867
v -0.109819 1.380019 0.196357
v -0.007936 1.267871 0.019891
v -0.177236 1.380019 -0.157432
v -0.075353 1.267871 0.019034
v -0.063292 1.275025 0.012068
v -0.173531 1.407139 -0.178871
v -0.063292 1.275025 -0.012068
v -0.177236 1.380019 0.157432
v -0.173531 1.407139 0.178873
v -0.075355 1.267871 -0.019032
v -0.043246 1.102244 -0.024994
v 0.115750 1.182784 0.024996
v 0.115750 1.182784 -0.024994
v -0.043246 1.102244 0.024996
v -0.173531 0.832950 -0.178871
v -0.177236 1.380019 -0.157432
v -0.173531 1.407139 -0.178871
v -0.177236 0.840173 -0.157432
v 0.115750 1.165878 -0.038923
v -0.043246 1.094920 -0.038923
v -0.043246 1.102244 -0.024994
v 0.115750 1.182784 -0.024994
v -0.173531 0.832950 0.178873
v -0.063292 0.721950 -0.012068
v -0.130240 0.832950 0.203867
v -0.019999 0.721950 0.012927
v -0.173531 1.407139 0.178873
v -0.130240 1.407139 0.203867
v 0.177236 0.832950 0.024996
v -0.043246 0.721950 0.024996
v 0.177236 0.832950 -0.024994
v -0.043246 0.721950 -0.024994
v 0.177236 1.407139 0.024996
v 0.177236 1.407139 -0.024994
v 0.160520 1.380019 0.038924
v 0.160520 0.840173 0.038924
v -0.043246 0.748811 0.038924
v -0.043246 1.102244 0.024996
v 0.115750 1.165878 0.038924
v 0.115750 1.182784 0.024996
v -0.043246 1.085340 0.038924
v -0.063292 0.721950 0.012068
v -0.177236 0.840173 -0.157432
v -0.173531 0.832950 -0.178871
v -0.075353 0.748811 0.019034
v -0.043246 0.721950 -0.024994
v 0.160520 0.840173 -0.038923
v 0.177236 0.832950 -0.024994
v -0.043246 0.748811 -0.038923
v 0.160520 1.380019 -0.038923
v 0.177236 1.407139 -0.024994
v -0.177236 0.840173 0.157432
v -0.063292 0.721950 -0.012068
v -0.173531 0.832950 0.178873
v -0.075355 0.748811 -0.019032
v -0.177236 1.380019 0.157432
v -0.173531 1.407139 0.178873
v -0.109818 0.840173 0.196357
v -0.019999 0.721950 0.012927
v -0.007936 0.748811 0.019891
v -0.130240 0.832950 0.203867
v -0.109819 1.380019 0.196357
v -0.130240 1.407139 0.203867
v -0.086193 0.863579 -0.155434
v -0.086193 1.296793 -0.155434
v -0.089896 1.269815 -0.133994
v -0.007936 1.213614 -0.019891
v -0.019999 1.186638 -0.012925
v -0.007936 1.267871 -0.019891
v -0.089896 0.871347 -0.133994
v -0.007936 0.790975 -0.019891
v -0.019999 0.798739 -0.012925
v -0.007936 0.748811 -0.019891
v -0.109818 0.840173 -0.196355
v -0.019999 0.721950 -0.012925
v -0.109818 1.380019 -0.196355
v -0.019999 1.275025 -0.012925
v -0.130240 0.832950 -0.203867
v -0.063292 0.721950 0.012068
v -0.173531 0.832950 -0.178871
v -0.130240 0.832950 -0.203867
v -0.130240 1.407139 -0.203867
v -0.063292 1.275025 0.012068
v -0.173531 1.407139 -0.178871
v -0.130240 1.407139 -0.203867
v -0.173531 0.832950 -0.178871
v -0.173531 1.407139 -0.178871
v 0.113267 1.296793 0.038924
v 0.160520 0.840173 0.038924
v 0.160520 1.380019 0.038924
v -0.043246 1.267871 0.038924
v -0.043246 1.213614 0.038924
v 0.113267 0.863579 0.038924
v -0.043246 0.748811 0.038924
v -0.043246 0.790975 0.038924
v -0.043246 1.267871 -0.038923
v 0.113267 1.296793 -0.038923
v -0.043246 1.213614 -0.038923
v 0.160520 1.380019 -0.038923
v 0.160520 0.840173 -0.038923
v 0.113267 0.863579 -0.038923
v -0.043246 0.748811 -0.038923
v -0.043246 0.790975 -0.038923
v -0.043246 1.094920 -0.038923
v 0.115750 1.107304 -0.038923
v -0.043246 1.039646 -0.038923
v 0.115750 1.165878 -0.038923
v 0.115750 1.165878 0.038924
v -0.043246 1.085340 0.038924
v 0.115750 1.107304 0.038924
v -0.043246 1.030513 0.038924
v -0.075353 1.267871 0.019034
v -0.177236 1.380019 -0.157432
v -0.153610 1.296793 -0.116510
v -0.075353 1.213614 0.019034
v -0.177236 0.840173 -0.157432
v -0.153610 0.863579 -0.116510
v -0.075353 0.748811 0.019034
v -0.075353 0.790975 0.019034
v -0.153610 1.296793 0.116511
v -0.177236 0.840173 0.157432
v -0.177236 1.380019 0.157432
v -0.075355 1.267871 -0.019032
v -0.075355 1.213614 -0.019032
v -0.153610 0.863579 0.116511
v -0.075355 0.748811 -0.019032
v -0.075355 0.790975 -0.019032
v -0.007936 1.267871 0.019891
v -0.086193 1.296793 0.155436
v -0.007936 1.213614 0.019891
v -0.109819 1.380019 0.196357
v -0.109818 0.840173 0.196357
v -0.086193 0.863579 0.155436
v -0.007936 0.748811 0.019891
v -0.007936 0.790975 0.019891
v 0.009632 -2.140247 0.028427
v 0.009632 1.323286 0.028427
v -0.039605 1.323286 0.056855
v 0.009632 -2.140247 -0.028427
v -0.039605 -2.140247 0.056855
v 0.009632 1.323286 -0.028427
v -0.088842 1.323286 0.028427
v -0.039605 -2.140247 -0.056853
v -0.088842 -2.140247 0.028427
v -0.039605 1.323286 -0.056853
v -0.088842 1.323286 -0.028427
v -0.088842 -2.140247 -0.028427
v 0.113267 0.863579 0.038924
v 0.113267 1.296793 0.038924
v 0.096553 1.269815 0.024996
v -0.043246 1.213614 0.038924
v -0.043246 1.186638 0.024996
v 0.096553 0.871347 0.024996
v -0.043246 0.790975 0.038924
v -0.043246 0.798739 0.024996
v -0.043246 0.790975 -0.038923
v 0.096553 0.871347 -0.024994
v 0.113267 0.863579 -0.038923
v -0.043246 0.798739 -0.024994
v 0.096553 1.269815 -0.024994
v 0.113267 1.296793 -0.038923
v -0.043246 1.213614 -0.038923
v -0.043246 1.186638 -0.024994
v -0.075353 0.790975 0.019034
v -0.133191 0.871347 -0.109000
v -0.153610 0.863579 -0.116510
v -0.063292 0.798739 0.012068
v -0.133191 1.269815 -0.109000
v -0.153610 1.296793 -0.116510
v -0.075353 1.213614 0.019034
v -0.063292 1.186638 0.012068
v -0.153610 0.863579 0.116511
v -0.153610 1.296793 0.116511
v -0.133191 1.269815 0.109000
v -0.075355 1.213614 -0.019032
v -0.063292 1.186638 -0.012068
v -0.133191 0.871347 0.109000
v -0.075355 0.790975 -0.019032
v -0.063292 0.798739 -0.012068
v -0.007936 0.790975 0.019891
v -0.089896 0.871347 0.133995
v -0.086193 0.863579 0.155436
v -0.019999 0.798739 0.012927
v -0.089896 1.269815 0.133995
v -0.086193 1.296793 0.155436
v -0.007936 1.213614 0.019891
v -0.019999 1.186638 0.012927
v 0.115750 1.090649 -0.024994
v -0.043246 1.013856 -0.024994
v -0.043246 1.039646 -0.038923
v 0.115750 1.107304 -0.038923
v -0.043246 1.030513 0.038924
v 0.115750 1.090649 0.024996
v 0.115750 1.107304 0.038924
v -0.043246 1.013856 0.024996
v -0.087434 1.185078 -0.157584
v -0.007936 1.085340 -0.019891
v -0.087434 1.126503 -0.157584
v -0.007936 1.030513 -0.019891
v -0.019999 1.102244 -0.012925
v -0.099497 1.109845 -0.150621
v -0.099497 1.201982 -0.150621
v -0.019999 1.013856 -0.012925
v -0.063292 1.102244 0.012068
v -0.063292 1.013856 0.012068
v -0.142790 1.201982 -0.125625
v -0.142790 1.109845 -0.125625
v -0.154851 1.185078 -0.118662
v -0.075353 1.039646 0.019034
v -0.075353 1.094920 0.019034
v -0.154851 1.126503 -0.118662
v -0.099497 1.201982 0.150621
v -0.063292 1.102244 -0.012068
v -0.142790 1.201982 0.125627
v -0.154851 1.185078 0.118662
v -0.019999 1.102244 0.012927
v -0.075355 1.085340 -0.019032
v -0.087434 1.185078 0.157586
v -0.154851 1.126503 0.118662
v -0.007936 1.094920 0.019891
v -0.075355 1.030513 -0.019032
v -0.087434 1.126503 0.157586
v -0.142790 1.109845 0.125627
v -0.007936 1.039646 0.019891
v -0.063292 1.013856 -0.012068
v -0.099497 1.109845 0.150621
v -0.019999 1.013856 0.012927
v 0.115750 1.090649 0.024996
v -0.043246 1.013856 0.024996
v 0.115750 1.090649 -0.024994
v -0.043246 1.013856 -0.024994
v 0.096553 1.269815 0.024996
v -0.043246 1.186638 0.024996
v 0.096553 1.269815 -0.024994
v -0.043246 1.186638 -0.024994
v 0.096553 0.871347 0.024996
v 0.096553 0.871347 -0.024994
v -0.043246 0.798739 -0.024994
v -0.043246 0.798739 0.024996
v -0.063292 0.798739 0.012068
v -0.089896 0.871347 -0.133994
v -0.133191 0.871347 -0.109000
v -0.019999 0.798739 -0.012925
v -0.133191 1.269815 -0.109000
v -0.089896 1.269815 -0.133994
v -0.063292 1.186638 0.012068
v -0.019999 1.186638 -0.012925
v -0.133191 1.269815 0.109000
v -0.019999 1.186638 0.012927
v -0.089896 1.269815 0.133995
v -0.063292 1.186638 -0.012068
v -0.133191 0.871347 0.109000
v -0.089896 0.871347 0.133995
v -0.019999 0.798739 0.012927
v -0.063292 0.798739 -0.012068
v -0.039605 -2.116765 0.095516
v -0.039605 -2.116765 -0.095514
v -0.157774 -2.059171 -0.000000
v 0.078564 -2.059171 0.000000
v -0.039605 -2.116765 -0.095514
v -0.039605 -2.116765 0.095516
vn 0.6823 -0.2800 -0.6753
vn 0.6823 -0.2800 0.6753
vn -0.6823 -0.2800 -0.6753
vn -0.6823 -0.2800 0.6753
vn 0.5672 0.7556 -0.3278
vn -0.0005 0.7560 -0.6545
vn -0.0003 1.0000 0.0003
vn -0.5671 0.7557 -0.3277
vn 0.5672 0.7556 0.3278
vn -0.5671 0.7556 0.3277
vn -0.0005 0.7560 0.6545
vn 0.2570 0.8578 -0.4451
vn 0.2574 0.8578 -0.4448
vn 0.2573 0.8578 -0.4449
vn -0.4764 0.8094 0.3435
vn -0.3961 0.6880 0.6081
vn -0.5020 0.8459 0.1804
vn -0.3961 0.6880 0.6080
vn -0.5141 0.8577 0.0003
vn -0.5140 0.8578 -0.0000
vn -0.3961 0.6880 -0.6081
vn -0.3961 0.6880 -0.6080
vn -0.3961 0.6881 -0.6080
vn 0.7254 0.6872 -0.0386
vn 0.7255 0.6872 -0.0386
vn -0.3289 0.6874 0.6475
vn -0.3288 0.6874 0.6475
vn -0.3288 0.6875 0.6475
vn -0.3288 0.6875 -0.6475
vn -0.3289 0.6874 -0.6475
vn -0.4518 0.8921 0.0005
vn -0.9854 0.0003 -0.1705
vn -0.9854 0.0004 -0.1705
vn -0.3385 0.7096 -0.6180
vn -0.3385 0.7096 -0.6179
vn -0.3385 0.7097 -0.6179
vn -0.4257 -0.5246 0.7373
vn -0.2251 -0.8932 0.3892
vn -0.2248 -0.8932 0.3894
vn -0.4997 0.0005 0.8662
vn 0.7828 -0.4587 0.4205
vn 0.4098 -0.8281 0.3825
vn 0.8515 -0.5243 0.0005
vn 0.4497 -0.8932 0.0005
vn 0.9680 -0.0000 0.2510
vn 1.0000 0.0003 0.0004
vn 0.6402 -0.0000 0.7682
vn 0.4617 -0.2996 0.8349
vn 0.2544 -0.5339 0.8063
vn -0.3066 0.6053 0.7346
vn -0.3066 0.6052 0.7346
vn -0.8254 -0.5343 0.1823
vn 0.2545 -0.5339 -0.8063
vn 0.4617 -0.2996 -0.8349
vn 0.4927 -0.2565 -0.8315
vn 0.2544 -0.5339 -0.8063
vn 0.6402 -0.0000 -0.7682
vn -0.9539 -0.2996 -0.0181
vn -0.8254 -0.5343 -0.1823
vn -0.9665 -0.2565 0.0112
vn -0.9854 0.0004 0.1705
vn 0.4920 -0.2996 0.8174
vn 0.5709 -0.5339 0.6237
vn 0.5710 -0.5339 0.6237
vn 0.4733 -0.2566 0.8427
vn 0.3454 0.0004 0.9385
vn 0.3453 0.0003 0.9385
vn 0.9592 0.1919 -0.2077
vn 0.9070 -0.1530 -0.3922
vn 0.9081 -0.3025 -0.2897
vn 0.6990 -0.3445 -0.6267
vn 0.5615 -0.5078 -0.6533
vn 0.8988 0.3005 -0.3191
vn 0.9105 0.4040 0.0884
vn 0.8875 0.3208 -0.3307
vn 0.7008 0.7134 -0.0014
vn 0.7136 -0.3513 -0.6061
vn 0.6452 -0.2048 -0.7361
vn 0.1265 -0.8279 -0.5465
vn 0.7414 0.3552 -0.5694
vn 0.5359 0.8095 0.2399
vn 0.1021 -0.8369 -0.5378
vn -0.2251 -0.8932 -0.3892
vn -0.2248 -0.8932 -0.3894
vn -0.1383 -0.0000 -0.9904
vn 0.4071 0.8459 0.3446
vn 0.2574 0.8578 0.4448
vn -0.2664 0.0002 -0.9639
vn -0.4997 0.0004 -0.8662
vn -0.0004 0.0003 1.0000
vn -0.0004 0.0003 -1.0000
vn -0.8662 0.0005 0.4997
vn -0.8661 0.0003 0.4998
vn -0.8662 0.0004 0.4997
vn -0.8661 0.0003 -0.4998
vn -0.8662 0.0004 -0.4997
vn -0.8662 0.0005 -0.4997
vn 0.8661 0.0003 0.4998
vn 0.8662 0.0005 0.4997
vn 0.8662 0.0004 0.4997
vn 0.8662 0.0004 -0.4997
vn 0.8661 0.0003 -0.4998
vn -0.5513 0.3539 0.7555
vn -0.2174 -0.2947 0.9305
vn -0.2027 -0.3025 0.9314
vn 0.2850 -0.5080 0.8129
vn -0.5321 0.4039 0.7442
vn -0.3493 0.7136 0.6072
vn -0.3493 0.7136 -0.6072
vn -0.5321 0.4039 -0.7442
vn -0.5513 0.3539 -0.7555
vn -0.2027 -0.3025 -0.9314
vn -0.2174 -0.2947 -0.9305
vn 0.2850 -0.5080 -0.8129
vn -0.3512 0.7136 0.6062
vn -0.3786 0.4038 0.8328
vn -0.3786 0.3539 0.8552
vn -0.7050 -0.3026 0.6415
vn -0.6973 -0.2948 0.6533
vn -0.8466 -0.5077 0.1597
vn -0.3785 0.3540 -0.8552
vn -0.6973 -0.2948 -0.6533
vn -0.7050 -0.3026 -0.6415
vn -0.8466 -0.5077 -0.1598
vn -0.8466 -0.5077 -0.1597
vn -0.3786 0.4038 -0.8328
vn -0.3512 0.7136 -0.6062
vn 0.7008 0.7134 0.0014
vn 0.9105 0.4040 -0.0884
vn 0.9298 0.3541 -0.1002
vn 0.9081 -0.3025 0.2897
vn 0.9146 -0.2946 0.2769
vn 0.5615 -0.5078 0.6533
vn 0.2418 -0.5322 -0.8114
vn 0.2418 -0.5321 -0.8114
vn 0.2956 -0.6133 0.7325
vn 0.2956 -0.6134 0.7324
vn 0.2956 -0.6133 0.7324
vn 0.8840 0.4194 -0.2066
vn 0.9054 0.2216 -0.3622
vn 0.7662 -0.2272 -0.6011
vn 0.6264 -0.4217 -0.6556
vn 0.6161 0.7627 0.1970
vn 0.1413 -0.7720 -0.6197
vn 0.5348 0.8003 0.2711
vn 0.0414 -0.8083 -0.5874
vn -0.0474 0.8026 0.5946
vn -0.5544 -0.7998 -0.2301
vn 0.0229 0.8207 0.5708
vn -0.6500 -0.7478 -0.1353
vn -0.5601 0.4945 0.6646
vn -0.8916 -0.3582 0.2770
vn -0.7226 0.2994 0.6230
vn -0.9002 -0.2009 0.3864
vn 0.4830 0.8207 -0.3052
vn -0.1372 0.7629 -0.6318
vn -0.0327 0.8006 -0.5984
vn -0.6210 0.4196 -0.6620
vn 0.5388 0.8025 -0.2565
vn -0.7663 0.2211 -0.6032
vn 0.8555 0.4948 0.1529
vn -0.9036 -0.2276 -0.3630
vn 0.9010 0.2992 0.3140
vn -0.8810 -0.4216 -0.2147
vn 0.7847 -0.2008 0.5864
vn -0.6072 -0.7721 0.1878
vn 0.6855 -0.3583 0.6338
vn -0.5292 -0.8084 0.2576
vn 0.2076 -0.7479 0.6305
vn 0.0777 -0.8002 0.5947
vn 0.4351 -0.9004 0.0003
vn 0.4351 -0.9004 0.0004
vn 0.4352 -0.9003 0.0005
vn -0.4940 -0.8695 0.0005
vn 0.5114 -0.8593 0.0005
vn -0.4941 -0.8694 0.0004
vn 0.5114 -0.8593 0.0006
vn -0.8546 0.5193 0.0005
vn -0.4607 0.8875 0.0004
vn 0.2300 0.8876 0.3991
vn 0.4273 0.5192 0.7402
vn 0.2474 -0.8691 0.4282
vn 0.2475 -0.8691 0.4283
vn -0.2556 -0.8594 -0.4428
vn -0.2554 -0.8593 -0.4431
vn 0.2475 -0.8691 -0.4283
vn -0.2553 -0.8593 0.4432
vn -0.2557 -0.8594 0.4428
vn 0.4273 0.5192 -0.7402
vn 0.2305 0.8874 -0.3992
vn 0.2299 0.8876 -0.3991
vn 0.4381 0.8989 0.0005
vn -0.4381 0.8989 0.0005
vt 0.000000 0.000000
s 1
f 1/1/1 2/1/1 3/1/1
f 4/1/2 5/1/2 6/1/2
f 7/1/3 8/1/3 9/1/3
f 10/1/4 11/1/4 12/1/4
f 13/1/5 14/1/6 15/1/7
f 14/1/6 16/1/8 15/1/7
f 17/1/9 13/1/5 15/1/7
f 16/1/8 18/1/10 15/1/7
f 19/1/11 17/1/9 15/1/7
f 18/1/10 19/1/11 15/1/7
f 20/1/12 21/1/13 22/1/14
f 20/1/12 22/1/14 23/1/13
f 24/1/15 25/1/16 26/1/17
f 25/1/16 24/1/15 27/1/18
f 28/1/19 24/1/15 26/1/17
f 24/1/15 28/1/19 29/1/20
f 30/1/21 31/1/22 32/1/23
f 30/1/21 32/1/23 33/1/21
f 34/1/24 35/1/25 36/1/25
f 36/1/25 37/1/24 34/1/24
f 38/1/26 39/1/27 40/1/28
f 38/1/26 40/1/28 41/1/26
f 42/1/29 43/1/30 44/1/30
f 43/1/30 42/1/29 45/1/29
f 46/1/31 47/1/31 48/1/31
f 47/1/31 46/1/31 49/1/31
f 50/1/32 51/1/33 52/1/32
f 51/1/33 50/1/32 53/1/33
f 54/1/34 55/1/35 56/1/36
f 54/1/34 56/1/36 57/1/34
f 58/1/37 59/1/38 60/1/37
f 61/1/39 60/1/37 59/1/38
f 60/1/37 62/1/40 58/1/37
f 60/1/37 63/1/40 62/1/40
f 64/1/41 65/1/42 66/1/43
f 67/1/44 66/1/43 65/1/42
f 66/1/43 68/1/45 64/1/41
f 66/1/43 69/1/46 68/1/45
f 64/1/41 68/1/45 70/1/47
f 64/1/41 70/1/47 71/1/48
f 65/1/42 64/1/41 71/1/48
f 65/1/42 71/1/48 72/1/49
f 73/1/50 74/1/50 75/1/51
f 74/1/50 73/1/50 76/1/50
f 77/1/52 78/1/52 79/1/52
f 78/1/52 77/1/52 80/1/52
f 81/1/53 82/1/54 83/1/55
f 82/1/54 81/1/53 84/1/56
f 85/1/57 83/1/55 82/1/54
f 83/1/55 85/1/57 86/1/57
f 87/1/58 88/1/59 89/1/60
f 88/1/59 87/1/58 90/1/59
f 89/1/60 91/1/61 87/1/58
f 89/1/60 92/1/61 91/1/61
f 93/1/62 94/1/63 95/1/64
f 94/1/63 93/1/62 96/1/65
f 97/1/66 96/1/65 93/1/62
f 96/1/65 97/1/66 98/1/67
f 99/1/68 100/1/69 101/1/70
f 101/1/70 102/1/71 103/1/72
f 102/1/71 101/1/70 100/1/69
f 100/1/69 104/1/73 102/1/71
f 99/1/68 101/1/70 105/1/74
f 106/1/75 99/1/68 105/1/74
f 105/1/74 107/1/76 106/1/75
f 99/1/68 106/1/75 108/1/77
f 99/1/68 108/1/77 109/1/78
f 109/1/78 100/1/69 99/1/68
f 109/1/78 108/1/77 110/1/79
f 104/1/73 100/1/69 111/1/80
f 100/1/69 109/1/78 111/1/80
f 111/1/80 112/1/81 104/1/73
f 110/1/79 113/1/82 109/1/78
f 114/1/83 113/1/82 110/1/79
f 113/1/82 114/1/83 115/1/84
f 116/1/85 111/1/80 109/1/78
f 112/1/81 111/1/80 117/1/86
f 117/1/86 118/1/87 112/1/81
f 118/1/87 117/1/86 119/1/87
f 116/1/85 120/1/88 111/1/80
f 121/1/89 120/1/88 116/1/85
f 121/1/89 122/1/89 120/1/88
f 123/1/90 124/1/90 125/1/90
f 126/1/90 123/1/90 125/1/90
f 123/1/90 126/1/90 127/1/90
f 124/1/90 123/1/90 128/1/90
f 128/1/90 129/1/90 124/1/90
f 128/1/90 130/1/90 129/1/90
f 131/1/91 132/1/91 133/1/91
f 132/1/91 131/1/91 134/1/91
f 134/1/91 135/1/91 132/1/91
f 136/1/91 132/1/91 135/1/91
f 137/1/91 136/1/91 135/1/91
f 136/1/91 137/1/91 138/1/91
f 139/1/91 140/1/91 141/1/91
f 140/1/91 139/1/91 142/1/91
f 143/1/90 144/1/90 145/1/90
f 145/1/90 144/1/90 146/1/90
f 147/1/92 148/1/93 149/1/92
f 149/1/92 150/1/94 147/1/92
f 148/1/93 151/1/94 149/1/92
f 152/1/93 149/1/92 151/1/94
f 153/1/93 152/1/93 151/1/94
f 152/1/93 153/1/93 154/1/93
f 155/1/95 156/1/96 157/1/96
f 158/1/96 155/1/95 157/1/96
f 155/1/95 158/1/96 159/1/97
f 156/1/96 155/1/95 160/1/96
f 161/1/97 156/1/96 160/1/96
f 161/1/97 160/1/96 162/1/96
f 163/1/98 164/1/99 165/1/99
f 164/1/99 163/1/98 166/1/98
f 166/1/98 167/1/100 164/1/99
f 168/1/100 164/1/99 167/1/100
f 169/1/100 168/1/100 167/1/100
f 168/1/100 169/1/100 170/1/98
f 171/1/98 172/1/100 173/1/90
f 174/1/101 172/1/100 171/1/98
f 171/1/98 173/1/90 175/1/90
f 174/1/101 176/1/102 172/1/100
f 175/1/90 173/1/90 177/1/94
f 178/1/91 176/1/102 174/1/101
f 175/1/90 177/1/94 179/1/94
f 178/1/91 180/1/91 176/1/102
f 181/1/96 179/1/94 177/1/94
f 182/1/96 180/1/91 178/1/91
f 179/1/94 181/1/96 182/1/96
f 182/1/96 181/1/96 180/1/91
f 183/1/103 184/1/104 185/1/105
f 184/1/104 186/1/106 185/1/105
f 187/1/106 185/1/105 186/1/106
f 183/1/103 185/1/105 188/1/107
f 189/1/108 183/1/103 188/1/107
f 188/1/107 190/1/108 189/1/108
f 191/1/109 192/1/110 193/1/111
f 192/1/110 191/1/109 194/1/109
f 195/1/112 193/1/111 192/1/110
f 193/1/111 195/1/112 196/1/113
f 197/1/114 196/1/113 195/1/112
f 195/1/112 198/1/114 197/1/114
f 199/1/115 200/1/116 201/1/117
f 200/1/116 199/1/115 202/1/115
f 203/1/118 201/1/117 200/1/116
f 201/1/117 203/1/118 204/1/119
f 205/1/120 204/1/119 203/1/118
f 205/1/120 203/1/118 206/1/120
f 207/1/121 208/1/122 209/1/123
f 210/1/124 209/1/123 208/1/122
f 209/1/123 210/1/124 211/1/125
f 207/1/121 209/1/123 212/1/126
f 213/1/127 207/1/121 212/1/126
f 212/1/126 214/1/127 213/1/127
f 215/1/128 216/1/129 217/1/130
f 216/1/129 215/1/128 218/1/128
f 219/1/131 217/1/130 216/1/129
f 217/1/130 219/1/131 220/1/132
f 221/1/133 220/1/132 219/1/131
f 219/1/131 222/1/133 221/1/133
f 223/1/134 224/1/135 225/1/135
f 225/1/135 226/1/134 223/1/134
f 227/1/136 228/1/137 229/1/138
f 228/1/137 227/1/136 230/1/138
f 231/1/139 232/1/140 233/1/141
f 233/1/141 232/1/140 234/1/142
f 231/1/139 235/1/143 232/1/140
f 234/1/142 236/1/144 233/1/141
f 235/1/143 231/1/139 237/1/145
f 236/1/144 234/1/142 238/1/146
f 237/1/145 239/1/147 235/1/143
f 240/1/148 236/1/144 238/1/146
f 239/1/147 237/1/145 241/1/149
f 236/1/144 240/1/148 242/1/150
f 243/1/151 239/1/147 241/1/149
f 244/1/152 242/1/150 240/1/148
f 243/1/151 245/1/153 239/1/147
f 244/1/152 246/1/154 242/1/150
f 246/1/154 245/1/153 243/1/151
f 245/1/153 246/1/154 244/1/152
f 247/1/155 248/1/156 249/1/157
f 248/1/156 250/1/158 249/1/157
f 248/1/156 247/1/155 251/1/159
f 250/1/158 248/1/156 252/1/160
f 251/1/159 247/1/155 253/1/161
f 250/1/158 252/1/160 254/1/162
f 253/1/161 255/1/163 251/1/159
f 256/1/164 254/1/162 252/1/160
f 257/1/165 255/1/163 253/1/161
f 256/1/164 258/1/166 254/1/162
f 255/1/163 257/1/165 259/1/167
f 258/1/166 256/1/164 260/1/168
f 261/1/169 259/1/167 257/1/165
f 258/1/166 260/1/168 261/1/169
f 261/1/169 262/1/170 259/1/167
f 262/1/170 261/1/169 260/1/168
f 263/1/171 264/1/172 265/1/173
f 266/1/173 265/1/173 264/1/172
f 267/1/174 268/1/175 269/1/176
f 270/1/177 269/1/176 268/1/175
f 269/1/176 271/1/178 267/1/174
f 269/1/176 272/1/178 271/1/178
f 273/1/179 271/1/178 272/1/178
f 271/1/178 273/1/179 274/1/179
f 275/1/180 276/1/181 277/1/181
f 276/1/181 275/1/180 278/1/180
f 276/1/181 279/1/182 277/1/181
f 279/1/182 276/1/181 280/1/183
f 280/1/183 281/1/184 279/1/182
f 281/1/184 280/1/183 282/1/185
f 283/1/186 284/1/187 285/1/186
f 284/1/187 283/1/186 286/1/188
f 285/1/186 287/1/189 283/1/186
f 287/1/189 285/1/186 288/1/189
f 289/1/190 287/1/189 288/1/189
f 287/1/189 289/1/190 290/1/191
f 291/1/192 292/1/192 293/1/192
f 294/1/193 295/1/193 296/1/193
