# Blender 5.1.2
# www.blender.org
mtllib Megaphonewhite.mtl
o RenderMesh_121639530417018
v 0.687229 0.246594 -0.109662
v 0.687229 0.292019 -0.000000
v 0.741688 0.220865 -0.083932
v 0.741688 0.255630 -0.000000
v 0.687229 0.292019 -0.000000
v 0.741688 0.220865 0.083932
v 0.741688 0.255630 -0.000000
v 0.687229 0.246594 0.109662
v 0.741688 0.220865 -0.083932
v 0.687229 0.136933 -0.155085
v 0.687229 0.246594 -0.109662
v 0.741688 0.136933 -0.118697
v 0.687229 0.136933 0.155085
v 0.741688 0.220865 0.083932
v 0.687229 0.246594 0.109662
v 0.741688 0.136933 0.118697
v 0.741688 0.053002 0.083932
v 0.687229 0.136933 0.155085
v 0.687229 0.027271 0.109662
v 0.741688 0.136933 0.118697
v 0.687229 0.136933 -0.155085
v 0.741688 0.053002 -0.083932
v 0.687229 0.027271 -0.109662
v 0.741688 0.136933 -0.118697
v 0.687229 -0.018152 0.000000
v 0.741688 0.053002 0.083932
v 0.687229 0.027271 0.109662
v 0.741688 0.018236 0.000000
v 0.741688 0.053002 -0.083932
v 0.687229 -0.018152 0.000000
v 0.687229 0.027271 -0.109662
v 0.741688 0.018236 0.000000
v 0.012081 -0.004247 0.140046
v 0.012081 0.135799 0.198055
v -0.126434 0.135799 0.228758
v -0.126434 -0.025957 0.161756
v -0.298625 0.135799 0.280095
v -0.298625 -0.062259 0.198057
v -0.126434 0.135799 -0.228758
v 0.012081 -0.004247 -0.140046
v -0.126434 -0.025957 -0.161756
v 0.012081 0.135799 -0.198055
v 0.012081 0.275844 -0.140046
v -0.126434 0.364557 -0.000000
v 0.012081 0.333854 -0.000000
v -0.126434 -0.092959 0.000000
v 0.012081 -0.004247 0.140046
v -0.126434 -0.025957 0.161756
v 0.012081 -0.062256 0.000000
v 0.012081 -0.004247 -0.140046
v -0.126434 -0.092959 0.000000
v -0.126434 -0.025957 -0.161756
v -0.298625 -0.144296 0.000000
v -0.126434 -0.025957 0.161756
v -0.126434 0.297555 0.161756
v -0.298625 0.135799 0.280095
v -0.126434 0.135799 0.228758
v -0.298625 0.333855 0.198057
v -0.519145 0.135799 0.371925
v -0.126434 -0.025957 -0.161756
v 0.012081 -0.004247 -0.140046
v -0.126434 -0.092959 0.000000
v -0.298625 -0.062259 -0.198057
v -0.298625 -0.144296 0.000000
v -0.519145 0.135799 -0.371925
v -0.519145 -0.127192 -0.262991
v -0.126434 0.364557 -0.000000
v 0.012081 0.275844 -0.140046
v -0.126434 0.297555 -0.161756
v 0.012081 0.275844 -0.140046
v -0.126434 0.135799 -0.228758
v 0.012081 0.135799 -0.198055
v -0.298625 -0.062259 0.198057
v -0.298625 0.135799 0.280095
v -0.519145 0.135799 0.371925
v 0.012081 0.275844 0.140046
v -0.126434 0.364557 -0.000000
v -0.126434 0.297555 0.161756
v -0.298625 0.135799 0.280095
v -0.298625 0.333855 0.198057
v -0.519145 0.135799 0.371925
v -0.519145 0.398790 0.262991
v -0.519145 0.507725 -0.000000
v -0.298625 0.135799 -0.280095
v -0.126434 -0.025957 -0.161756
v -0.298625 -0.062259 -0.198057
v -0.126434 0.135799 -0.228758
v -0.519145 -0.127192 -0.262991
v -0.519145 -0.236127 0.000000
v -0.298625 0.333855 -0.198057
v -0.126434 0.297555 -0.161756
v -0.298625 0.135799 -0.280095
v -0.519145 0.507725 -0.000000
v -0.519145 0.398790 -0.262991
v -0.519145 0.135799 -0.371925
v 0.204341 0.261574 -0.125755
v 0.204341 0.135819 -0.177844
v 0.012081 0.135799 -0.198055
v 0.204341 0.010064 0.125755
v 0.204341 0.135819 0.177844
v 0.012081 0.135799 0.198055
v 0.012081 0.135799 0.198055
v 0.204341 0.261574 0.125755
v 0.012081 0.275844 0.140046
v 0.204341 0.135819 0.177844
v 0.204341 0.261574 0.125755
v 0.012081 0.333854 -0.000000
v 0.204341 0.313663 -0.000000
v 0.204341 0.261574 -0.125755
v 0.012081 0.333854 -0.000000
v 0.012081 0.275844 0.140046
v -0.126434 0.135799 0.228758
v -0.126434 0.297555 0.161756
v -0.126434 0.364557 -0.000000
v 0.012081 0.275844 0.140046
v -0.298625 0.415894 -0.000000
v -0.126434 0.297555 0.161756
v -0.298625 0.333855 0.198057
v -0.126434 0.297555 -0.161756
v -0.298625 0.415894 -0.000000
v -0.298625 0.333855 -0.198057
v -0.519145 0.507725 -0.000000
v -0.298625 0.333855 0.198057
v -0.298625 0.415894 -0.000000
v -0.298625 0.333855 -0.198057
v 0.012081 0.333854 -0.000000
v 0.204341 0.261574 -0.125755
v 0.012081 0.275844 -0.140046
v 0.012081 0.135799 -0.198055
v 0.012081 -0.004247 0.140046
v 0.204341 0.010064 0.125755
v 0.012081 0.135799 0.198055
v -0.126434 -0.025957 0.161756
v -0.126434 0.135799 0.228758
v -0.298625 -0.144296 0.000000
v -0.298625 -0.062259 0.198057
v -0.519145 -0.127192 0.262991
v -0.519145 0.135799 0.371925
v -0.519145 -0.236127 0.000000
v -0.298625 -0.062259 0.198057
v -0.298625 -0.144296 0.000000
v -0.298625 -0.062259 -0.198057
v -0.519145 -0.236127 0.000000
v -0.726909 0.055629 -0.079305
v -0.145496 -0.024097 -0.159031
v -0.145496 -0.089970 0.000000
v -0.726909 0.022780 0.000000
v -0.145496 -0.089970 0.000000
v -0.726909 0.055629 0.079305
v -0.726909 0.022780 0.000000
v -0.145496 -0.024097 0.159031
v -0.145496 0.134934 -0.224904
v -0.726909 0.055629 -0.079305
v -0.726909 0.134934 -0.112154
v -0.145496 -0.024097 -0.159031
v -0.726909 0.055629 0.079305
v -0.145496 -0.024097 0.159031
v -0.145496 0.134934 0.224904
v -0.726909 0.134934 0.112154
v -0.145496 0.134934 0.224904
v -0.726909 0.214239 0.079305
v -0.726909 0.134934 0.112154
v -0.145496 0.293965 0.159031
v -0.726909 0.214239 -0.079305
v -0.145496 0.293965 -0.159031
v -0.145496 0.134934 -0.224904
v -0.726909 0.134934 -0.112154
v -0.726909 0.214239 -0.079305
v -0.145496 0.359838 -0.000000
v -0.145496 0.293965 -0.159031
v -0.726909 0.247088 -0.000000
v -0.145496 0.359838 -0.000000
v -0.726909 0.247088 -0.000000
v -0.726909 0.214239 0.079305
v -0.145496 0.293965 0.159031
v -0.737090 -0.205584 0.341382
v -0.519145 -0.127192 0.262991
v -0.737090 0.135799 0.482787
v -0.519145 0.135799 0.371925
v -0.737090 0.135799 0.482787
v -0.519145 0.398790 0.262991
v -0.737090 0.477181 0.341382
v -0.519145 0.398790 0.262991
v -0.737090 0.135799 0.482787
v -0.519145 0.135799 0.371925
v 0.012081 0.135799 -0.198055
v 0.204341 0.010064 -0.125755
v 0.012081 -0.004247 -0.140046
v 0.204341 0.135819 -0.177844
v 0.204341 0.010064 -0.125755
v 0.012081 -0.062256 0.000000
v 0.204341 -0.042025 0.000000
v 0.204341 0.010064 0.125755
v 0.012081 -0.062256 0.000000
v 0.012081 -0.004247 0.140046
v -0.126434 0.297555 -0.161756
v -0.126434 0.135799 -0.228758
v -0.298625 0.135799 -0.280095
v -0.298625 0.333855 -0.198057
v -0.519145 0.135799 -0.371925
v -0.519145 0.398790 -0.262991
v -0.737090 0.135799 -0.482787
v -0.737090 0.477181 -0.341382
v -0.737090 0.618586 -0.000000
v -0.519145 0.398790 -0.262991
v -0.737090 0.618586 -0.000000
v -0.519145 0.398790 0.262991
v -0.519145 0.507725 -0.000000
v -0.737090 0.477181 0.341382
v -0.519145 0.398790 -0.262991
v -0.737090 0.618586 -0.000000
v -0.298074 0.000055 0.135744
v -0.298074 0.135799 0.191972
v -0.298074 0.271544 0.135744
v -0.298074 0.000055 -0.135744
v -0.298074 -0.056172 0.000000
v -0.298074 0.271544 -0.135744
v -0.298074 0.327771 -0.000000
v -0.298074 0.135799 -0.191972
v -0.298625 -0.062259 -0.198057
v -0.519145 0.135799 -0.371925
v -0.298625 0.135799 -0.280095
v -0.519145 -0.127192 -0.262991
v -0.737090 0.135799 -0.482787
v -0.737090 -0.205584 -0.341382
v -0.519145 -0.127192 -0.262991
v -0.737090 -0.346987 0.000000
v -0.519145 -0.236127 0.000000
v -0.519145 -0.127192 0.262991
v -0.737090 -0.346987 0.000000
v -0.737090 -0.205584 0.341382
v -0.741688 0.585987 -0.000000
v -0.519631 0.336614 0.200815
v -0.741688 0.454131 0.318331
v -0.741688 0.135799 0.450189
v -0.519631 -0.065016 -0.200815
v -0.741688 -0.314389 0.000000
v -0.519631 -0.148196 0.000000
v -0.519631 -0.065016 0.200815
v -0.741688 0.135799 -0.450189
v -0.519631 0.336614 -0.200815
v -0.741688 0.454131 -0.318331
v -0.298074 0.271544 -0.135744
v -0.519631 0.419794 -0.000000
v -0.519631 0.336614 -0.200815
v -0.741688 0.585987 -0.000000
v -0.519631 0.419794 -0.000000
v -0.519631 0.336614 0.200815
v -0.741688 0.585987 -0.000000
v -0.519631 0.135799 -0.283995
v -0.298074 0.271544 -0.135744
v -0.298074 0.135799 -0.191972
v -0.298074 0.000055 -0.135744
v -0.519631 0.135799 -0.283995
v -0.519631 -0.065016 -0.200815
v -0.741688 -0.314389 0.000000
v -0.741688 -0.182532 -0.318331
v -0.519631 -0.065016 -0.200815
v -0.741688 0.135799 -0.450189
v -0.519631 0.135799 -0.283995
v -0.519631 -0.065016 0.200815
v -0.741688 0.135799 0.450189
v -0.519631 0.135799 0.283995
v -0.519631 0.336614 -0.200815
v -0.741688 0.135799 -0.450189
v -0.519631 0.135799 -0.283995
v -0.741688 0.135799 0.450189
v -0.519631 0.336614 0.200815
v -0.519631 0.135799 0.283995
v -0.741688 -0.314389 0.000000
v -0.741688 -0.182532 0.318331
v -0.519631 -0.065016 0.200815
v -0.298074 0.000055 0.135744
v -0.519631 -0.148196 0.000000
v -0.298074 -0.056172 0.000000
v -0.298074 0.000055 -0.135744
v -0.519631 -0.148196 0.000000
v -0.741688 0.135799 0.450189
v -0.519631 -0.065016 0.200815
v -0.741688 -0.182532 0.318331
v -0.519631 0.135799 0.283995
v -0.298074 0.000055 0.135744
v -0.298074 0.135799 0.191972
v -0.298074 0.271544 0.135744
v -0.519631 0.135799 0.283995
v -0.519631 0.336614 0.200815
v -0.519631 0.419794 -0.000000
v -0.298074 0.271544 0.135744
v -0.298074 0.327771 -0.000000
v -0.519631 0.135799 -0.283995
v -0.298074 0.000055 -0.135744
v -0.298074 0.135799 -0.191972
v -0.519631 0.419794 -0.000000
v -0.298074 0.271544 -0.135744
v -0.298074 0.327771 -0.000000
v -0.519631 0.135799 0.283995
v -0.298074 0.271544 0.135744
v -0.298074 0.135799 0.191972
v -0.519631 -0.148196 0.000000
v -0.298074 0.000055 -0.135744
v -0.519631 -0.065016 -0.200815
vn 0.5556 0.5879 -0.5879
vn 0.5556 0.8315 -0.0000
vn 0.5556 0.5879 0.5879
vn 0.5556 0.5879 -0.5880
vn 0.5556 -0.0000 -0.8315
vn 0.5556 -0.0000 0.8315
vn 0.5556 0.5879 0.5880
vn 0.5555 -0.0000 0.8315
vn 0.5556 -0.5879 0.5880
vn 0.5556 -0.5879 0.5879
vn 0.5556 -0.5879 -0.5879
vn 0.5556 -0.5879 -0.5880
vn 0.5555 -0.0000 -0.8315
vn 0.5556 -0.8315 -0.0000
vn 0.5556 -0.5880 0.5879
vn 0.5556 -0.5880 -0.5879
vn 0.1632 -0.6976 0.6977
vn 0.1631 -0.0000 0.9866
vn 0.2535 -0.0000 0.9673
vn 0.2535 -0.6840 0.6840
vn 0.3399 -0.0000 0.9405
vn 0.3399 -0.6650 0.6650
vn 0.2535 -0.0000 -0.9673
vn 0.1631 -0.6976 -0.6977
vn 0.2535 -0.6840 -0.6840
vn 0.1631 -0.0001 -0.9866
vn 0.1631 0.6976 -0.6977
vn 0.2535 0.9673 -0.0000
vn 0.1630 0.9866 -0.0000
vn 0.2535 -0.9673 -0.0000
vn 0.1631 -0.6977 0.6976
vn 0.1631 -0.9866 0.0001
vn 0.1632 -0.6977 -0.6976
vn 0.1631 -0.9866 -0.0000
vn 0.3399 -0.9405 -0.0000
vn 0.2535 0.6840 0.6840
vn 0.3399 0.6650 0.6650
vn 0.4230 -0.0000 0.9061
vn 0.1631 -0.6977 -0.6976
vn 0.3399 -0.6650 -0.6650
vn 0.4230 -0.0001 -0.9061
vn 0.4230 -0.6407 -0.6408
vn 0.2535 0.6840 -0.6840
vn 0.1631 0.0001 -0.9866
vn 0.4230 -0.0001 0.9061
vn 0.1631 0.6976 0.6977
vn 0.4230 0.0001 0.9061
vn 0.4230 0.6407 0.6407
vn 0.4230 0.9061 0.0001
vn 0.3399 -0.0000 -0.9405
vn 0.4230 -0.6408 -0.6407
vn 0.4230 -0.9061 -0.0001
vn 0.3399 0.6650 -0.6650
vn 0.4230 0.9061 -0.0001
vn 0.4230 0.6407 -0.6407
vn 0.4230 -0.0000 -0.9061
vn 0.1045 0.7033 -0.7032
vn 0.1045 -0.0000 -0.9945
vn 0.1631 -0.0000 -0.9866
vn 0.1046 -0.7032 0.7032
vn 0.1045 -0.0000 0.9945
vn 0.1631 -0.0001 0.9866
vn 0.1045 0.7033 0.7032
vn 0.1044 0.9945 -0.0000
vn 0.1631 0.0001 0.9866
vn 0.3399 0.9405 -0.0000
vn 0.4230 0.9061 -0.0000
vn 0.1045 0.7032 -0.7032
vn 0.1631 -0.6976 0.6977
vn 0.4230 -0.6407 0.6408
vn 0.4230 -0.9061 -0.0000
vn 0.4230 -0.6408 0.6407
vn -0.1904 -0.6942 -0.6942
vn -0.1904 -0.9817 -0.0000
vn -0.1904 -0.6942 0.6942
vn -0.1904 -0.0000 -0.9817
vn -0.1904 -0.0000 0.9817
vn -0.1904 0.6942 0.6942
vn -0.1904 0.6942 -0.6942
vn -0.1904 0.9817 -0.0000
vn 0.4534 -0.6302 0.6303
vn 0.4230 -0.6407 0.6407
vn 0.4534 -0.0000 0.8913
vn 0.4230 0.6407 0.6408
vn 0.4534 0.6302 0.6303
vn 0.1046 -0.7032 -0.7032
vn 0.1046 -0.9945 -0.0001
vn 0.1046 -0.9945 0.0001
vn 0.4230 0.0001 -0.9061
vn 0.4534 -0.0000 -0.8913
vn 0.4534 0.6302 -0.6303
vn 0.4534 0.8913 -0.0000
vn 0.4230 0.6408 -0.6407
vn 0.4534 0.6303 -0.6302
vn 0.4534 0.6303 0.6302
vn -1.0000 -0.0000 -0.0000
vn 0.4230 -0.6407 -0.6407
vn 0.4534 -0.6302 -0.6303
vn 0.4534 -0.6303 -0.6302
vn 0.4534 -0.8913 -0.0000
vn 0.4534 -0.6303 0.6302
vn -0.5992 -0.8006 -0.0000
vn -0.5086 -0.6088 -0.6088
vn -0.5992 -0.5661 -0.5661
vn -0.5992 -0.0000 -0.8006
vn -0.5086 0.6089 0.6088
vn -0.5992 0.8006 -0.0000
vn -0.5086 0.8610 -0.0000
vn -0.5086 0.6088 -0.6088
vn -0.5992 -0.0000 0.8006
vn -0.5086 -0.6088 0.6088
vn -0.5992 -0.5661 0.5661
vn -0.3836 -0.6530 0.6530
vn -0.5086 -0.8610 -0.0000
vn -0.5086 -0.6089 -0.6088
vn -0.5086 -0.0000 0.8610
vn -0.3836 -0.0000 0.9235
vn -0.3836 0.6530 0.6530
vn -0.5086 0.6088 0.6088
vn -0.5992 0.5661 0.5661
vn -0.5086 0.6088 -0.6089
vn -0.5086 -0.0000 -0.8610
vn -0.5086 -0.6088 0.6089
vn -0.5992 0.5661 -0.5661
vn -0.3836 0.6530 -0.6530
vn -0.3836 0.9235 -0.0000
vn -0.3836 -0.0000 -0.9235
vn -0.3836 -0.6530 -0.6530
vn -0.3836 -0.9235 -0.0000
vn -0.3836 0.6530 0.6531
vt 0.125000 0.375000
vt 0.000000 0.375000
vt 0.125000 0.250000
vt 0.000000 0.250000
vt 1.000000 0.375000
vt 0.875000 0.250000
vt 1.000000 0.250000
vt 0.875000 0.375000
vt 0.250000 0.375000
vt 0.250000 0.250000
vt 0.750000 0.375000
vt 0.750000 0.250000
vt 0.625000 0.250000
vt 0.625000 0.375000
vt 0.375000 0.250000
vt 0.375000 0.375000
vt 0.500000 0.375000
vt 0.500000 0.250000
vt 0.387187 0.387187
vt 0.250000 0.444012
vt 0.250000 0.055988
vt 0.387187 0.112813
vt 0.112813 0.112813
vt 0.055988 0.250000
vt 0.444012 0.250000
vt 0.112813 0.387187
vt 0.625000 0.985039
vt 0.625000 0.500000
vt 0.750000 0.500000
vt 0.750000 0.985039
vt 0.875000 0.985039
vt 0.875000 0.500000
vt 0.500000 0.500000
vt 0.500000 0.985039
vt 1.000000 0.500000
vt 1.000000 0.985039
vt 0.000000 0.500000
vt 0.125000 0.985039
vt 0.000000 0.985039
vt 0.125000 0.500000
vt 0.375000 0.985039
vt 0.375000 0.500000
vt 0.250000 0.500000
vt 0.250000 0.985039
s 1
f 1/1/1 2/2/2 3/3/1
f 3/3/1 2/2/2 4/4/2
f 5/5/2 6/6/3 7/7/2
f 6/6/3 5/5/2 8/8/3
f 9/3/4 10/9/5 11/1/4
f 10/9/5 9/3/4 12/10/5
f 13/11/6 14/6/7 15/8/7
f 13/11/6 16/12/8 14/6/7
f 17/13/9 18/11/6 19/14/10
f 18/11/6 17/13/9 20/12/6
f 21/9/5 22/15/11 23/16/12
f 21/9/5 24/10/13 22/15/11
f 25/17/14 26/13/10 27/14/15
f 25/17/14 28/18/14 26/13/10
f 29/15/16 30/17/14 31/16/11
f 30/17/14 29/15/16 32/18/14
f 33/19/17 34/20/18 35/20/19
f 36/19/20 35/20/19 37/20/21
f 38/19/22 36/19/20 37/20/21
f 39/21/23 40/22/24 41/22/25
f 40/22/24 39/21/23 42/21/26
f 43/23/27 44/24/28 45/24/29
f 46/25/30 47/19/31 48/19/20
f 47/19/31 46/25/30 49/25/32
f 50/22/33 49/25/34 51/25/30
f 52/22/25 51/25/30 53/25/35
f 54/19/20 53/25/35 51/25/30
f 55/26/36 56/20/21 57/20/19
f 58/26/37 59/20/38 56/20/21
f 60/22/25 61/22/39 62/25/30
f 63/22/40 60/22/25 64/25/35
f 65/21/41 63/22/40 66/22/42
f 67/24/28 68/23/27 69/23/43
f 69/23/43 70/23/27 71/21/23
f 70/23/27 72/21/44 71/21/23
f 73/19/22 74/20/21 75/20/45
f 76/26/46 77/24/28 78/26/36
f 79/20/21 78/26/36 80/26/37
f 81/20/47 80/26/37 82/26/48
f 80/26/37 83/24/49 82/26/48
f 84/21/50 85/22/25 86/22/40
f 85/22/25 84/21/50 87/21/23
f 88/22/51 86/22/40 89/25/52
f 90/23/53 91/23/43 92/21/50
f 93/24/54 90/23/53 94/23/55
f 94/23/55 90/23/53 95/21/56
f 96/23/57 97/21/58 98/21/59
f 99/19/60 100/20/61 101/20/62
f 102/20/18 103/26/63 104/26/46
f 103/26/63 102/20/18 105/20/61
f 106/26/63 107/24/29 104/26/46
f 107/24/29 106/26/63 108/24/64
f 109/23/57 110/24/29 108/24/64
f 111/26/46 112/20/19 102/20/65
f 112/20/19 111/26/46 113/26/36
f 114/24/28 115/26/46 110/24/29
f 116/24/66 117/26/36 114/24/28
f 117/26/36 116/24/66 118/26/37
f 119/23/43 120/24/66 114/24/28
f 120/24/66 119/23/43 121/23/53
f 122/24/67 123/26/37 124/24/66
f 125/23/53 122/24/67 124/24/66
f 126/24/29 127/23/68 128/23/27
f 128/23/27 127/23/68 129/21/59
f 130/19/69 131/19/60 132/20/18
f 133/19/20 130/19/69 134/20/19
f 135/25/35 133/19/20 136/19/22
f 137/19/70 136/19/22 138/20/38
f 139/25/71 140/19/22 137/19/72
f 140/19/22 139/25/71 141/25/35
f 142/22/40 141/25/35 143/25/71
f 144/27/73 145/28/73 146/29/74
f 144/27/73 146/29/74 147/30/74
f 148/29/74 149/31/75 150/30/74
f 149/31/75 148/29/74 151/32/75
f 152/33/76 153/27/73 154/34/76
f 153/27/73 152/33/76 155/28/73
f 156/31/75 157/32/75 158/35/77
f 156/31/75 158/35/77 159/36/77
f 160/37/77 161/38/78 162/39/77
f 161/38/78 160/37/77 163/40/78
f 164/41/79 165/42/79 166/33/76
f 164/41/79 166/33/76 167/34/76
f 168/41/79 169/43/80 170/42/79
f 169/43/80 168/41/79 171/44/80
f 172/43/80 173/44/80 174/38/78
f 172/43/80 174/38/78 175/40/78
f 176/19/81 177/19/82 178/20/83
f 177/19/82 179/20/38 178/20/83
f 180/20/83 181/26/84 182/26/85
f 183/26/84 184/20/83 185/20/38
f 186/21/26 187/22/86 188/22/24
f 187/22/86 186/21/26 189/21/58
f 188/22/39 190/22/86 191/25/34
f 190/22/86 192/25/87 191/25/34
f 193/19/60 194/25/34 192/25/88
f 194/25/34 193/19/60 195/19/31
f 196/23/43 197/21/23 198/21/50
f 199/23/53 198/21/50 200/21/89
f 201/23/55 200/21/56 202/21/90
f 203/23/91 201/23/55 202/21/90
f 204/24/92 205/23/93 203/23/94
f 206/24/92 207/26/48 208/24/67
f 207/26/48 206/24/92 209/26/95
f 210/23/93 211/24/92 208/24/67
f 212/19/96 213/20/96 214/26/96
f 215/22/96 212/19/96 214/26/96
f 212/19/96 215/22/96 216/25/96
f 215/22/96 214/26/96 217/23/96
f 217/23/96 214/26/96 218/24/96
f 215/22/96 217/23/96 219/21/96
f 220/22/40 221/21/56 222/21/50
f 223/22/97 224/21/90 221/21/56
f 224/21/90 223/22/97 225/22/98
f 225/22/99 226/22/97 227/25/100
f 226/22/97 228/25/71 227/25/100
f 229/19/82 230/25/100 228/25/71
f 230/25/100 229/19/82 231/19/101
f 232/24/102 233/26/103 234/26/104
f 233/26/103 235/20/105 234/26/104
f 236/22/106 237/25/107 238/25/108
f 238/25/108 237/25/107 239/19/109
f 240/21/110 241/23/111 242/23/112
f 243/23/113 244/24/114 241/23/111
f 245/23/111 246/24/102 242/23/112
f 246/24/102 245/23/111 247/24/114
f 248/26/115 249/24/102 247/24/114
f 250/21/116 251/23/113 241/23/111
f 251/23/113 250/21/116 252/21/117
f 253/22/118 254/21/116 255/22/119
f 256/25/107 255/22/119 257/22/120
f 258/22/119 259/21/110 257/22/120
f 259/21/110 258/22/119 260/21/116
f 261/19/121 262/20/105 263/20/122
f 264/23/123 265/21/110 266/21/116
f 267/20/105 268/26/103 269/20/122
f 270/25/107 271/19/124 272/19/109
f 272/19/109 273/19/125 274/25/108
f 275/25/126 274/25/108 273/19/125
f 276/22/118 277/25/108 275/25/126
f 278/20/105 279/19/109 280/19/124
f 281/20/122 282/19/125 279/19/109
f 282/19/125 281/20/122 283/20/127
f 284/26/128 285/20/122 286/26/103
f 287/24/114 288/26/128 286/26/103
f 288/26/128 287/24/114 289/24/129
f 290/21/116 291/22/130 292/21/117
f 293/24/114 294/23/113 295/24/129
f 296/20/122 297/26/128 298/20/127
f 299/25/108 300/22/118 301/22/119
