# Blender 5.1.2
# www.blender.org
mtllib pixelcrossbowscopeglass.mtl
o RenderMesh_119023383473695
v -0.387929 -0.087445 -0.087444
v -0.387929 -0.087445 0.087445
v -0.387929 0.087445 -0.087444
v -0.387929 0.087445 0.087445
v 0.716485 0.087445 -0.096189
v 0.716485 0.087445 0.096189
v 0.716485 -0.087445 -0.096189
v 0.716485 -0.087445 0.096189
vn -1.0000 -0.0000 -0.0000
vn 1.0000 -0.0000 -0.0000
vt 0.000000 0.000000
s 1
f 1/1/1 2/1/1 3/1/1
f 3/1/1 2/1/1 4/1/1
f 5/1/2 6/1/2 7/1/2
f 7/1/2 6/1/2 8/1/2
