# Blender 5.1.2
# www.blender.org
mtllib pixel arrow.mtl
o pixel_cross.004
v 2.244028 0.106688 0.016328
v 0.392929 0.106688 0.040474
v 0.392929 0.106688 0.016328
v 2.244028 0.106688 0.040474
v 2.244028 0.065745 0.040474
v 2.244028 0.106688 0.040474
v 2.244028 0.106688 0.016328
v 2.244028 0.065745 0.016328
v 2.244028 0.035785 -0.017600
v 2.244028 0.035785 0.016328
v 2.244028 0.065745 -0.017600
v 2.244028 0.106688 -0.017600
v 2.244028 0.136648 0.016328
v 2.244028 0.136648 -0.017600
v 2.244028 0.065745 -0.042325
v 2.244028 0.106688 -0.042325
v 2.244028 0.136648 -0.017600
v 0.392929 0.136648 0.016328
v 0.392929 0.136648 -0.017600
v 2.244028 0.136648 0.016328
v 2.244028 0.106688 -0.042325
v 0.392929 0.106688 -0.017600
v 0.392929 0.106688 -0.042325
v 2.244028 0.106688 -0.017600
v 2.244028 0.065745 0.040474
v 0.392929 0.065745 0.040474
v 0.392929 0.106688 0.040474
v 2.244028 0.106688 0.040474
v 0.392929 0.106688 0.016328
v 2.244028 0.136648 0.016328
v 2.244028 0.106688 0.016328
v 0.392929 0.136648 0.016328
v 0.392929 0.035785 0.016328
v 2.244028 0.065745 0.016328
v 2.244028 0.035785 0.016328
v 0.392929 0.065745 0.016328
v 0.392929 0.065745 -0.042325
v 0.392929 0.106688 -0.042325
v 0.392929 0.106688 -0.017600
v 0.392929 0.065745 -0.017600
v 0.392929 0.065745 0.016328
v 0.392929 0.035785 -0.017600
v 0.392929 0.035785 0.016328
v 0.392929 0.106688 0.016328
v 0.392929 0.106688 0.040474
v 0.392929 0.065745 0.040474
v 0.392929 0.136648 -0.017600
v 0.392929 0.136648 0.016328
v 0.392929 0.035785 -0.017600
v 2.244028 0.035785 0.016328
v 2.244028 0.035785 -0.017600
v 0.392929 0.035785 0.016328
v 0.392929 0.065745 -0.042325
v 2.244028 0.065745 -0.017600
v 2.244028 0.065745 -0.042325
v 0.392929 0.065745 -0.017600
v 0.392929 0.065745 0.016328
v 2.244028 0.065745 0.040474
v 2.244028 0.065745 0.016328
v 0.392929 0.065745 0.040474
v 0.392929 0.106688 -0.042325
v 2.244028 0.065745 -0.042325
v 2.244028 0.106688 -0.042325
v 0.392929 0.065745 -0.042325
v 2.244028 0.136648 -0.017600
v 0.392929 0.136648 -0.017600
v 0.392929 0.106688 -0.017600
v 2.244028 0.106688 -0.017600
v 0.392929 0.065745 -0.017600
v 2.244028 0.035785 -0.017600
v 2.244028 0.065745 -0.017600
v 0.392929 0.035785 -0.017600
v 2.285328 0.063344 -0.062452
v 2.285328 0.063344 -0.021048
v 2.285328 0.113527 -0.062452
v 2.285328 0.113527 -0.021048
v 2.285328 0.113527 0.019776
v 2.285328 0.163717 -0.021048
v 2.285328 0.163717 0.019776
v 2.285328 0.063344 0.019776
v 2.285328 0.063344 0.061180
v 2.285328 0.113527 0.061180
v 2.285328 0.013161 0.019776
v 2.285328 0.013161 -0.021048
v 2.249479 0.113527 -0.062452
v 2.249479 0.113527 -0.021048
v 2.249479 0.163717 -0.062452
v 2.249479 0.163717 -0.021048
v 2.249479 0.113527 0.019776
v 2.249479 0.113527 0.061180
v 2.249479 0.163717 0.019776
v 2.249479 0.163717 0.061180
v 2.249479 0.013161 -0.062452
v 2.249479 0.013161 -0.021048
v 2.249479 0.063344 -0.062452
v 2.249479 0.063344 -0.021048
v 2.249479 0.013161 0.019776
v 2.249479 0.013161 0.061180
v 2.249479 0.063344 0.019776
v 2.249479 0.063344 0.061180
v 2.227777 0.063344 -0.103847
v 2.227777 0.063344 -0.062452
v 2.227777 0.113527 -0.103847
v 2.227777 0.113527 -0.062452
v 2.227777 0.063344 0.061180
v 2.227777 0.063344 0.102575
v 2.227777 0.113527 0.061180
v 2.227777 0.113527 0.102575
v 2.227777 0.163717 -0.021048
v 2.227777 0.163717 0.019776
v 2.227777 0.213900 -0.021048
v 2.227777 0.213900 0.019776
v 2.227777 -0.037022 -0.021048
v 2.227777 -0.037022 0.019776
v 2.227777 0.013161 -0.021048
v 2.227777 0.013161 0.019776
v 2.191929 0.213900 -0.021048
v 2.227777 0.213900 -0.021048
v 2.191929 0.213900 0.019776
v 2.227777 0.213900 0.019776
v 2.249479 0.163717 -0.021048
v 2.249479 0.163717 0.019776
v 2.227777 0.163717 0.019776
v 2.285328 0.163717 -0.021048
v 2.227777 0.163717 -0.021048
v 2.249479 0.163717 -0.062452
v 2.191929 0.163717 -0.062452
v 2.191929 0.163717 -0.021048
v 2.285328 0.163717 0.019776
v 2.249479 0.163717 0.061180
v 2.191929 0.163717 0.061180
v 2.191929 0.163717 0.019776
v 2.191929 0.113527 -0.103847
v 2.227777 0.113527 -0.103847
v 2.191929 0.113527 -0.062452
v 2.227777 0.113527 -0.062452
v 2.191929 0.113527 0.061180
v 2.227777 0.113527 0.061180
v 2.191929 0.113527 0.102575
v 2.227777 0.113527 0.102575
v 2.357029 0.113527 -0.021048
v 2.285328 0.113527 0.019776
v 2.285328 0.113527 -0.021048
v 2.357029 0.113527 0.019776
v 2.285328 0.113527 -0.062452
v 2.249479 0.113527 -0.021048
v 2.249479 0.113527 -0.062452
v 2.285328 0.113527 0.061180
v 2.249479 0.113527 0.061180
v 2.249479 0.113527 0.019776
v 2.227777 0.063344 0.102575
v 2.191929 0.063344 0.102575
v 2.191929 0.113527 0.102575
v 2.227777 0.113527 0.102575
v 2.285328 0.113527 0.061180
v 2.285328 0.063344 0.061180
v 2.249479 0.063344 0.061180
v 2.249479 0.113527 0.061180
v 2.227777 0.113527 0.061180
v 2.249479 0.163717 0.061180
v 2.191929 0.163717 0.061180
v 2.191929 0.113527 0.061180
v 2.227777 0.063344 0.061180
v 2.249479 0.013161 0.061180
v 2.191929 0.013161 0.061180
v 2.191929 0.063344 0.061180
v 2.227777 0.163717 0.019776
v 2.191929 0.163717 0.019776
v 2.191929 0.213900 0.019776
v 2.227777 0.213900 0.019776
v 2.357029 0.113527 0.019776
v 2.357029 0.063344 0.019776
v 2.285328 0.113527 0.019776
v 2.285328 0.063344 0.019776
v 2.249479 0.163717 0.019776
v 2.285328 0.163717 0.019776
v 2.249479 0.113527 0.019776
v 2.249479 0.063344 0.019776
v 2.285328 0.013161 0.019776
v 2.249479 0.013161 0.019776
v 2.227777 -0.037022 0.019776
v 2.191929 -0.037022 0.019776
v 2.191929 0.013161 0.019776
v 2.227777 0.013161 0.019776
v 2.191929 -0.037022 -0.021048
v 2.227777 -0.037022 0.019776
v 2.227777 -0.037022 -0.021048
v 2.191929 -0.037022 0.019776
v 2.227777 0.013161 -0.021048
v 2.249479 0.013161 -0.021048
v 2.249479 0.013161 -0.062452
v 2.191929 0.013161 -0.062452
v 2.191929 0.013161 -0.021048
v 2.249479 0.013161 0.019776
v 2.227777 0.013161 0.019776
v 2.249479 0.013161 0.061180
v 2.191929 0.013161 0.061180
v 2.191929 0.013161 0.019776
v 2.285328 0.013161 -0.021048
v 2.285328 0.013161 0.019776
v 2.191929 0.063344 -0.103847
v 2.227777 0.063344 -0.062452
v 2.227777 0.063344 -0.103847
v 2.191929 0.063344 -0.062452
v 2.191929 0.063344 0.061180
v 2.227777 0.063344 0.102575
v 2.227777 0.063344 0.061180
v 2.191929 0.063344 0.102575
v 2.285328 0.063344 -0.021048
v 2.357029 0.063344 0.019776
v 2.357029 0.063344 -0.021048
v 2.285328 0.063344 0.019776
v 2.249479 0.063344 -0.062452
v 2.249479 0.063344 -0.021048
v 2.285328 0.063344 -0.062452
v 2.249479 0.063344 0.019776
v 2.285328 0.063344 0.061180
v 2.249479 0.063344 0.061180
v 2.191929 0.113527 -0.103847
v 2.191929 0.063344 -0.103847
v 2.227777 0.113527 -0.103847
v 2.227777 0.063344 -0.103847
v 2.227777 0.063344 -0.062452
v 2.191929 0.063344 -0.062452
v 2.191929 0.013161 -0.062452
v 2.249479 0.013161 -0.062452
v 2.249479 0.063344 -0.062452
v 2.249479 0.113527 -0.062452
v 2.227777 0.113527 -0.062452
v 2.249479 0.163717 -0.062452
v 2.191929 0.163717 -0.062452
v 2.191929 0.113527 -0.062452
v 2.285328 0.063344 -0.062452
v 2.285328 0.113527 -0.062452
v 2.191929 0.213900 -0.021048
v 2.191929 0.163717 -0.021048
v 2.227777 0.213900 -0.021048
v 2.227777 0.163717 -0.021048
v 2.191929 0.013161 -0.021048
v 2.191929 -0.037022 -0.021048
v 2.227777 0.013161 -0.021048
v 2.227777 -0.037022 -0.021048
v 2.249479 0.163717 -0.021048
v 2.249479 0.113527 -0.021048
v 2.285328 0.163717 -0.021048
v 2.285328 0.113527 -0.021048
v 2.285328 0.063344 -0.021048
v 2.357029 0.113527 -0.021048
v 2.357029 0.063344 -0.021048
v 2.249479 0.063344 -0.021048
v 2.249479 0.013161 -0.021048
v 2.285328 0.013161 -0.021048
v 0.572279 0.193089 0.101425
v 0.572279 0.211359 0.086475
v 0.572279 0.177682 0.058872
v 0.572279 0.159412 0.073823
v 0.572279 0.159412 -0.076253
v 0.572279 0.177682 -0.061303
v 0.572279 0.211359 -0.088896
v 0.572279 0.193089 -0.104426
v 0.478678 0.211359 0.086475
v 0.478678 0.193089 0.101425
v 0.478678 0.209931 0.115797
v 0.478678 0.228201 0.100276
v 0.478678 0.211359 -0.088896
v 0.478678 0.228201 -0.103276
v 0.478678 0.209931 -0.118227
v 0.478678 0.193089 -0.104426
v 0.385128 0.209931 -0.118227
v 0.478678 0.209931 -0.118227
v 0.478678 0.228201 -0.103276
v 0.385128 0.228201 -0.103276
v 0.478678 0.211359 0.086475
v 0.572279 0.211359 0.086475
v 0.572279 0.193089 0.101425
v 0.478678 0.193089 0.101425
v 0.572279 0.159412 -0.076253
v 0.665829 0.159412 -0.076253
v 0.665829 0.177682 -0.061303
v 0.572279 0.177682 -0.061303
v 0.572279 0.177682 0.058872
v 0.478678 0.211359 0.086475
v 0.478678 0.143998 0.031279
v 0.572279 0.211359 0.086475
v 0.385128 0.143998 0.031279
v 0.385128 0.228201 0.100276
v 0.478678 0.228201 0.100276
v 0.478678 0.211359 -0.088896
v 0.572279 0.211359 -0.088896
v 0.572279 0.177682 -0.061303
v 0.478678 0.144005 -0.033700
v 0.385128 0.144005 -0.033700
v 0.385128 0.228201 -0.103276
v 0.478678 0.228201 -0.103276
v 0.665829 0.177682 -0.061303
v 0.665829 0.127163 -0.019899
v 0.478678 0.127163 -0.019899
v 0.478678 0.228201 0.100276
v 0.478678 0.209931 0.115797
v 0.385128 0.228201 0.100276
v 0.385128 0.209931 0.115797
v 0.665829 0.177682 0.058872
v 0.665829 0.159412 0.073823
v 0.572279 0.177682 0.058872
v 0.572279 0.159412 0.073823
v 0.572279 0.159412 0.073823
v 0.478678 0.193089 0.101425
v 0.478678 0.125728 0.046229
v 0.385128 0.125728 0.046229
v 0.385128 0.209931 0.115797
v 0.478678 0.209931 0.115797
v 0.572279 0.177682 -0.061303
v 0.478678 0.127163 -0.019899
v 0.478678 0.144005 -0.033700
v 0.385128 0.209931 0.115797
v 0.385128 0.125728 0.046229
v 0.385128 0.143998 0.031279
v 0.385128 0.228201 0.100276
v 0.478678 0.125728 0.046229
v 0.478678 0.108893 0.032428
v 0.478678 0.127163 0.017477
v 0.478678 0.143998 0.031279
v 0.478678 0.125735 -0.048651
v 0.478678 0.144005 -0.033700
v 0.478678 0.127163 -0.019899
v 0.478678 0.108893 -0.034850
v 0.478678 0.108893 0.032428
v 0.572279 0.159412 0.073823
v 0.665829 0.108893 0.032428
v 0.478678 0.125728 0.046229
v 0.665829 0.159412 0.073823
v 0.478678 0.193089 0.101425
v 0.572279 0.193089 0.101425
v 0.572279 0.159412 -0.076253
v 0.478678 0.193089 -0.104426
v 0.478678 0.125735 -0.048651
v 0.572279 0.193089 -0.104426
v 0.385128 0.125735 -0.048651
v 0.385128 0.209931 -0.118227
v 0.478678 0.144005 -0.033700
v 0.478678 0.125735 -0.048651
v 0.385128 0.144005 -0.033700
v 0.385128 0.125735 -0.048651
v 0.478678 0.193089 -0.104426
v 0.572279 0.193089 -0.104426
v 0.572279 0.211359 -0.088896
v 0.478678 0.211359 -0.088896
v 0.665829 0.127163 0.017477
v 0.665829 0.177682 0.058872
v 0.572279 0.177682 0.058872
v 0.478678 0.127163 0.017477
v 0.478678 0.143998 0.031279
v 0.665829 0.108893 -0.034850
v 0.665829 0.159412 -0.076253
v 0.572279 0.159412 -0.076253
v 0.478678 0.108893 -0.034850
v 0.478678 0.125735 -0.048651
v 0.478678 0.193089 -0.104426
v 0.385128 0.209931 -0.118227
v 0.478678 0.209931 -0.118227
v 0.478678 0.125728 0.046229
v 0.478678 0.143998 0.031279
v 0.385128 0.125728 0.046229
v 0.385128 0.143998 0.031279
v 0.665829 0.159412 0.073823
v 0.665829 0.177682 0.058872
v 0.665829 0.127163 0.017477
v 0.665829 0.108893 0.032428
v 0.665829 0.108893 -0.034850
v 0.665829 0.127163 -0.019899
v 0.665829 0.159412 -0.076253
v 0.665829 0.177682 -0.061303
v 0.385128 0.125735 -0.048651
v 0.385128 0.209931 -0.118227
v 0.385128 0.228201 -0.103276
v 0.385128 0.144005 -0.033700
v 2.357029 0.063344 -0.021048
v 2.357029 0.113527 0.019776
v 2.357029 0.113527 -0.021048
v 2.357029 0.063344 0.019776
v 2.191929 0.113527 0.061180
v 2.191929 0.063344 -0.062452
v 2.191929 0.113527 -0.062452
v 2.191929 0.163717 -0.021048
v 2.191929 0.163717 0.019776
v 2.191929 0.163717 0.061180
v 2.191929 0.113527 0.102575
v 2.191929 0.063344 0.102575
v 2.191929 0.063344 0.061180
v 2.191929 0.013161 0.019776
v 2.191929 0.013161 0.061180
v 2.191929 0.013161 -0.021048
v 2.191929 -0.037022 -0.021048
v 2.191929 -0.037022 0.019776
v 2.191929 0.013161 -0.062452
v 2.191929 0.213900 0.019776
v 2.191929 0.213900 -0.021048
v 2.191929 0.163717 -0.062452
v 2.191929 0.113527 -0.103847
v 2.191929 0.063344 -0.103847
vn -0.0000 1.0000 -0.0000
vn 1.0000 -0.0000 -0.0000
vn -0.0000 -0.0000 1.0000
vn -1.0000 -0.0000 -0.0000
vn -0.0000 -1.0000 -0.0000
vn -0.0000 -0.0000 -1.0000
vn -0.0000 0.6348 -0.7727
vn -0.0000 0.6347 0.7727
vn -0.0000 0.6347 0.7728
vn -0.0000 0.6347 -0.7727
vn -0.0000 0.6345 -0.7730
vn -0.0000 0.6345 -0.7729
vn -0.0000 0.6347 -0.7728
vn -0.0000 0.6348 0.7727
vn -0.0000 0.6349 0.7726
vn -0.0001 0.6347 0.7727
vn -0.0000 0.6346 0.7728
vn -0.0000 0.6346 0.7729
vn -0.0000 0.6344 0.7730
vn -0.0000 0.6345 0.7729
vn -0.0000 0.6350 0.7725
vn -0.0000 -0.6348 0.7727
vn -0.0000 -0.6349 0.7726
vn -0.0000 -0.6347 0.7727
vn 0.0001 -0.6348 0.7727
vn -0.0000 -0.6347 0.7728
vn -1.0000 -0.0000 -0.0003
vn -0.0000 -0.6346 0.7729
vn -0.0000 -0.6346 0.7728
vn -0.0000 -0.6348 -0.7727
vn -0.0000 -0.6347 -0.7728
vn -0.0000 -0.6347 -0.7727
vn -0.0000 -0.6349 -0.7726
vn -0.0001 -0.6350 -0.7725
vn -0.0000 -0.6345 0.7730
vn -0.0000 0.6346 -0.7728
vn -0.0000 0.6348 -0.7726
vn -0.0000 0.6349 -0.7726
vn -0.0000 0.6346 -0.7729
vn -0.0001 0.6343 -0.7731
vn -0.0000 -0.6346 -0.7728
vn -0.0000 -0.6344 -0.7730
vn -0.0000 -0.6345 -0.7729
vn -0.0000 -0.6343 -0.7731
vn -0.0000 -0.6345 -0.7730
vt 23.768600 -36.996300
vt 24.231400 -36.996300
vt 24.231400 -36.991001
vt 23.768600 -36.991001
vt 23.990999 -37.003700
vt 23.996401 -36.996300
vt 23.990999 -36.996300
vt 23.996401 -37.003700
vt 24.003599 -36.996300
vt 24.003599 -37.003700
vt 24.003599 -37.008999
vt 23.996401 -37.008999
vt 23.996401 -36.991001
vt 24.009001 -37.003700
vt 24.003599 -36.991001
vt 24.009001 -36.996300
vt 23.768600 -37.003700
vt 24.231400 -37.003700
vt 23.768600 -37.008999
vt 24.231400 -37.008999
vt 30.013399 -5.004480
vt 30.013399 -4.995520
vt 30.004499 -5.004480
vt 30.004499 -4.995520
vt 30.004499 -4.986560
vt 29.995501 -4.995520
vt 29.995501 -4.986560
vt 29.995501 -5.004480
vt 29.986601 -5.004480
vt 29.986601 -4.995520
vt 29.995501 -5.013440
vt 30.004499 -5.013440
vt 30.013399 -4.986560
vt 29.986601 -4.986560
vt 30.013399 -5.013440
vt 29.986601 -5.013440
vt 30.022400 -5.004480
vt 30.022400 -4.995520
vt 29.977600 -5.004480
vt 29.977600 -4.995520
vt 30.004499 -4.977600
vt 29.995501 -4.977600
vt 30.004499 -5.022400
vt 29.995501 -5.022400
vt 30.020599 -5.004480
vt 30.020599 -4.995520
vt 30.011700 -5.004480
vt 30.011700 -4.995520
vt 30.006300 -5.004480
vt 30.006300 -4.995520
vt 29.997299 -5.004480
vt 30.006300 -5.013440
vt 30.020599 -5.013440
vt 29.997299 -4.995520
vt 30.006300 -4.986560
vt 30.020599 -4.986560
vt 30.020599 -5.022400
vt 30.011700 -5.022400
vt 30.011700 -5.013440
vt 30.020599 -4.977600
vt 30.011700 -4.986560
vt 30.011700 -4.977600
vt 29.979401 -5.004480
vt 29.979401 -4.995520
vt 29.997299 -5.013440
vt 29.997299 -4.986560
vt 29.988300 -5.004480
vt 29.988300 -4.995520
vt 30.002701 -4.995520
vt 29.993700 -5.004480
vt 30.002701 -5.004480
vt 29.993700 -4.995520
vt 29.993700 -4.986560
vt 29.979401 -4.986560
vt 29.993700 -5.013440
vt 29.979401 -5.013440
vt 29.988300 -4.986560
vt 29.979401 -4.977600
vt 29.988300 -4.977600
vt 30.002701 -4.986560
vt 30.002701 -5.013440
vt 29.988300 -5.022400
vt 29.979401 -5.022400
vt 29.988300 -5.013440
vt 7.977620 -32.980900
vt 7.986900 -32.983601
vt 7.980890 -32.977600
vt 7.983640 -32.986900
vt 8.016360 -32.986900
vt 8.019120 -32.977600
vt 8.013100 -32.983601
vt 8.022380 -32.980900
vt 7.974620 -32.977901
vt 7.977880 -32.974602
vt 8.025380 -32.977901
vt 8.022120 -32.974602
vt 8.035090 -33.025398
vt 8.011700 -33.022099
vt 8.011700 -33.025398
vt 8.035090 -33.022099
vt 8.011700 -32.980900
vt 7.988300 -32.977600
vt 7.988300 -32.980900
vt 8.011700 -32.977600
vt 7.988300 -33.016399
vt 7.964910 -33.013100
vt 7.964910 -33.016399
vt 7.988300 -33.013100
vt 7.988300 -32.986900
vt 8.011700 -32.992901
vt 8.035090 -32.992901
vt 8.035090 -32.977901
vt 8.011700 -32.977901
vt 8.011700 -33.019100
vt 7.988300 -33.019100
vt 8.011700 -33.007099
vt 8.035090 -33.007099
vt 7.964910 -33.004101
vt 8.011700 -33.004101
vt 7.988300 -32.974602
vt 7.964910 -32.974602
vt 7.988300 -32.977901
vt 7.964910 -32.977901
vt 8.035090 -32.983601
vt 8.011700 -32.983601
vt 8.035090 -32.986900
vt 8.011700 -32.986900
vt 7.988300 -32.992901
vt 7.964910 -32.992901
vt 7.988300 -32.992699
vt 7.988300 -32.989700
vt 8.007090 -32.989700
vt 8.010350 -32.992901
vt 8.004080 -32.992699
vt 8.007340 -32.995899
vt 7.989650 -32.992901
vt 7.995920 -32.992699
vt 7.992910 -32.989700
vt 7.992660 -32.995899
vt 8.035090 -32.992699
vt 7.988300 -33.022400
vt 8.011700 -33.016399
vt 7.988300 -33.010300
vt 8.011700 -33.022400
vt 7.964910 -33.010300
vt 7.964910 -33.025398
vt 7.988300 -33.007099
vt 7.964910 -33.007099
vt 7.964910 -32.992699
vt 7.988300 -32.983601
vt 7.964910 -32.983601
vt 8.011700 -32.992699
vt 8.011700 -32.989700
vt 7.964910 -32.995899
vt 7.964910 -32.986900
vt 8.011700 -32.995899
vt 8.035090 -32.989700
s 1
usemtl Stick1Mtl
f 1/1/1 3/2/1 2/3/1
f 1/1/1 2/3/1 4/4/1
f 5/5/2 7/6/2 6/7/2
f 7/6/2 5/5/2 8/8/2
f 8/8/2 12/9/2 7/6/2
f 11/10/2 8/8/2 9/11/2
f 9/11/2 8/8/2 10/12/2
f 8/8/2 11/10/2 12/9/2
f 12/9/2 13/13/2 7/6/2
f 15/14/2 12/9/2 11/10/2
f 12/9/2 14/15/2 13/13/2
f 15/14/2 16/16/2 12/9/2
f 17/17/1 19/18/1 18/2/1
f 17/17/1 18/2/1 20/1/1
f 21/19/1 23/20/1 22/18/1
f 21/19/1 22/18/1 24/17/1
f 25/18/3 27/1/3 26/17/3
f 27/1/3 25/18/3 28/2/3
f 29/1/3 31/2/3 30/3/3
f 29/1/3 30/3/3 32/4/3
f 33/19/3 35/20/3 34/18/3
f 33/19/3 34/18/3 36/17/3
f 37/5/4 39/6/4 38/7/4
f 39/6/4 37/5/4 40/8/4
f 41/10/4 39/6/4 40/8/4
f 42/12/4 41/10/4 40/8/4
f 41/10/4 42/12/4 43/11/4
f 41/10/4 44/9/4 39/6/4
f 41/10/4 45/16/4 44/9/4
f 41/10/4 46/14/4 45/16/4
f 47/13/4 39/6/4 44/9/4
f 47/13/4 44/9/4 48/15/4
f 49/17/5 51/18/5 50/2/5
f 49/17/5 50/2/5 52/1/5
f 53/19/5 55/20/5 54/18/5
f 53/19/5 54/18/5 56/17/5
f 57/1/5 59/2/5 58/3/5
f 57/1/5 58/3/5 60/4/5
f 61/2/6 63/1/6 62/17/6
f 61/2/6 62/17/6 64/18/6
f 65/4/6 67/2/6 66/3/6
f 67/2/6 65/4/6 68/1/6
f 69/18/6 71/17/6 70/19/6
f 69/18/6 70/19/6 72/20/6
usemtl Tip1Mtl
f 73/21/2 75/22/2 74/23/2
f 75/22/2 76/24/2 74/23/2
f 76/24/2 78/25/2 77/26/2
f 78/25/2 79/27/2 77/26/2
f 80/28/2 77/26/2 81/29/2
f 77/26/2 82/30/2 81/29/2
f 74/23/2 80/28/2 83/31/2
f 84/32/2 74/23/2 83/31/2
f 85/22/2 87/33/2 86/24/2
f 87/33/2 88/25/2 86/24/2
f 89/26/2 91/27/2 90/30/2
f 91/27/2 92/34/2 90/30/2
f 93/35/2 95/21/2 94/32/2
f 95/21/2 96/23/2 94/32/2
f 97/31/2 99/28/2 98/36/2
f 99/28/2 100/29/2 98/36/2
f 101/37/2 103/38/2 102/21/2
f 103/38/2 104/22/2 102/21/2
f 105/29/2 107/30/2 106/39/2
f 107/30/2 108/40/2 106/39/2
f 109/25/2 111/41/2 110/27/2
f 111/41/2 112/42/2 110/27/2
f 113/43/2 115/32/2 114/44/2
f 115/32/2 116/31/2 114/44/2
f 117/45/1 119/46/1 118/47/1
f 118/47/1 119/46/1 120/48/1
f 121/49/1 123/48/1 122/50/1
f 121/49/1 122/50/1 124/51/1
f 123/48/1 121/49/1 125/47/1
f 126/52/1 125/47/1 121/49/1
f 127/53/1 125/47/1 126/52/1
f 125/47/1 127/53/1 128/45/1
f 124/51/1 122/50/1 129/54/1
f 123/48/1 130/55/1 122/50/1
f 130/55/1 123/48/1 131/56/1
f 132/46/1 131/56/1 123/48/1
f 133/57/1 135/53/1 134/58/1
f 134/58/1 135/53/1 136/59/1
f 137/56/1 139/60/1 138/61/1
f 138/61/1 139/60/1 140/62/1
f 141/63/1 143/51/1 142/54/1
f 141/63/1 142/54/1 144/64/1
f 145/65/1 146/49/1 143/51/1
f 146/49/1 145/65/1 147/52/1
f 142/54/1 149/55/1 148/66/1
f 149/55/1 142/54/1 150/50/1
f 151/67/3 153/64/3 152/63/3
f 153/64/3 151/67/3 154/68/3
f 155/69/3 157/70/3 156/71/3
f 157/70/3 155/69/3 158/72/3
f 159/68/3 157/70/3 158/72/3
f 160/73/3 159/68/3 158/72/3
f 159/68/3 160/73/3 161/74/3
f 159/68/3 161/74/3 162/64/3
f 159/68/3 163/67/3 157/70/3
f 163/67/3 164/75/3 157/70/3
f 164/75/3 163/67/3 165/76/3
f 165/76/3 163/67/3 166/63/3
f 167/77/3 169/78/3 168/74/3
f 169/78/3 167/77/3 170/79/3
f 171/46/3 173/69/3 172/45/3
f 174/71/3 172/45/3 173/69/3
f 175/73/3 173/69/3 176/80/3
f 173/69/3 175/73/3 177/72/3
f 178/70/3 179/81/3 174/71/3
f 179/81/3 178/70/3 180/75/3
f 181/82/3 183/76/3 182/83/3
f 183/76/3 181/82/3 184/84/3
f 185/63/5 187/67/5 186/68/5
f 185/63/5 186/68/5 188/64/5
f 189/67/5 191/75/5 190/70/5
f 194/72/5 189/67/5 190/70/5
f 192/76/5 191/75/5 189/67/5
f 192/76/5 189/67/5 193/63/5
f 195/68/5 189/67/5 194/72/5
f 196/73/5 195/68/5 194/72/5
f 195/68/5 196/73/5 197/74/5
f 197/74/5 198/64/5 195/68/5
f 199/71/5 194/72/5 190/70/5
f 194/72/5 199/71/5 200/69/5
f 201/83/5 203/82/5 202/84/5
f 201/83/5 202/84/5 204/76/5
f 205/74/5 207/77/5 206/79/5
f 205/74/5 206/79/5 208/78/5
f 209/71/5 211/45/5 210/46/5
f 209/71/5 210/46/5 212/69/5
f 213/75/5 209/71/5 214/70/5
f 213/75/5 215/81/5 209/71/5
f 216/72/5 212/69/5 217/80/5
f 216/72/5 217/80/5 218/73/5
f 219/46/6 221/48/6 220/45/6
f 221/48/6 222/47/6 220/45/6
f 223/47/6 225/53/6 224/45/6
f 225/53/6 223/47/6 226/52/6
f 227/49/6 226/52/6 223/47/6
f 223/47/6 228/50/6 227/49/6
f 228/50/6 223/47/6 229/48/6
f 229/48/6 230/55/6 228/50/6
f 231/56/6 230/55/6 229/48/6
f 231/56/6 229/48/6 232/46/6
f 228/50/6 233/51/6 227/49/6
f 228/50/6 234/54/6 233/51/6
f 235/60/6 237/62/6 236/56/6
f 237/62/6 238/61/6 236/56/6
f 239/53/6 241/59/6 240/57/6
f 241/59/6 242/58/6 240/57/6
f 243/55/6 245/66/6 244/50/6
f 245/66/6 246/54/6 244/50/6
f 246/54/6 248/64/6 247/51/6
f 249/63/6 247/51/6 248/64/6
f 250/49/6 247/51/6 251/52/6
f 247/51/6 252/65/6 251/52/6
f 253/85/2 255/86/2 254/87/2
f 255/86/2 253/85/2 256/88/2
f 257/89/2 259/90/2 258/91/2
f 259/90/2 257/89/2 260/92/2
f 261/87/2 263/93/2 262/85/2
f 263/93/2 261/87/2 264/94/2
f 265/90/2 267/95/2 266/96/2
f 267/95/2 265/90/2 268/92/2
f 269/97/7 271/98/7 270/99/7
f 271/98/7 269/97/7 272/100/7
f 273/101/8 275/102/8 274/103/8
f 275/102/8 273/101/8 276/104/9
f 277/105/10 279/106/11 278/107/11
f 279/106/11 277/105/10 280/108/7
f 282/101/12 281/109/13 283/110/7
f 282/101/12 284/103/10 281/109/13
f 285/111/7 282/101/12 283/110/7
f 282/101/12 285/111/7 286/112/11
f 286/112/11 287/113/12 282/101/12
f 288/114/14 290/108/14 289/115/15
f 288/114/14 291/116/14 290/108/14
f 291/116/14 288/114/14 292/117/16
f 288/114/14 293/100/9 292/117/16
f 293/100/9 288/114/14 294/98/15
f 295/106/15 290/108/17 296/118/18
f 297/119/17 296/118/18 290/108/17
f 298/120/19 300/121/15 299/122/20
f 301/123/21 299/122/20 300/121/15
f 302/124/8 304/125/14 303/126/14
f 305/127/14 303/126/14 304/125/14
f 307/103/22 308/128/23 306/127/24
f 308/128/23 307/103/22 309/129/25
f 307/103/22 310/123/26 309/129/25
f 310/123/26 307/103/22 311/122/26
f 313/130/9 312/125/9 314/131/9
f 315/95/4 317/132/4 316/133/4
f 317/132/4 315/95/4 318/96/4
f 319/133/4 321/134/4 320/135/27
f 321/134/4 319/133/4 322/132/4
f 323/136/4 325/137/4 324/138/4
f 325/137/4 323/136/4 326/139/4
f 327/130/28 329/140/26 328/125/24
f 327/130/28 328/125/24 330/131/29
f 331/124/24 328/125/24 329/140/26
f 332/102/24 328/125/24 333/104/24
f 335/141/30 334/142/31 336/143/32
f 335/141/30 337/144/31 334/142/31
f 338/145/33 335/141/30 336/143/32
f 335/141/30 338/145/33 339/146/34
f 340/147/22 342/148/35 341/143/24
f 343/145/35 341/143/24 342/148/35
f 344/101/36 346/102/37 345/103/38
f 346/102/37 344/101/36 347/104/39
f 348/149/13 350/150/12 349/151/10
f 351/152/39 350/150/12 348/149/13
f 350/150/12 351/152/39 352/153/40
f 353/154/41 355/109/42 354/155/33
f 356/156/33 355/109/42 353/154/41
f 355/109/42 356/156/33 357/110/33
f 359/112/43 360/113/43 358/101/44
f 361/110/45 363/111/32 362/153/45
f 364/157/30 362/153/45 363/111/32
f 365/88/2 367/137/2 366/86/2
f 367/137/2 365/88/2 368/139/2
f 369/135/2 371/89/2 370/134/2
f 370/134/2 371/89/2 372/91/2
f 373/136/4 375/94/4 374/93/4
f 375/94/4 373/136/4 376/138/4
f 377/23/2 379/24/2 378/26/2
f 377/23/2 378/26/2 380/28/2
f 381/22/4 383/30/4 382/29/4
f 381/22/4 382/29/4 390/32/4
f 383/30/4 381/22/4 384/27/4
f 381/22/4 385/25/4 384/27/4
f 385/25/4 381/22/4 386/33/4
f 387/38/4 381/22/4 388/37/4
f 389/21/4 388/37/4 381/22/4
f 381/22/4 390/32/4 389/21/4
f 390/32/4 391/35/4 389/21/4
f 390/32/4 382/29/4 392/31/4
f 393/44/4 390/32/4 392/31/4
f 390/32/4 393/44/4 394/43/4
f 382/29/4 395/36/4 392/31/4
f 384/27/4 385/25/4 396/41/4
f 397/42/4 384/27/4 396/41/4
f 384/27/4 398/34/4 383/30/4
f 399/40/4 382/29/4 383/30/4
f 399/40/4 400/39/4 382/29/4
